<svg width="24" height="24" viewBox="0 0 24 24" fill="none" xmlns="http://www.w3.org/2000/svg">
<path d="M20.5 5.25C20.5 5.05109 20.421 4.86034 20.2803 4.71969C20.1397 4.57904 19.9489 4.50002 19.75 4.5H17.4492C17.3155 3.11148 16.1714 2 14.75 2L6.25 2C4.74011 2 3.5 3.24011 3.5 4.75L3.5 19.25C3.5 20.7599 4.74011 22 6.25 22H14.75C16.1714 22 17.3155 20.8885 17.4492 19.5H19.75C19.9489 19.5 20.1397 19.421 20.2803 19.2803C20.421 19.1397 20.5 18.9489 20.5 18.75L20.5 13.75C20.5 13.5511 20.421 13.3603 20.2803 13.2197C20.1397 13.079 19.9489 13 19.75 13H17.5V11H19.75C19.9489 11 20.1397 10.921 20.2803 10.7803C20.421 10.6397 20.5 10.4489 20.5 10.25V5.25ZM19 6V9.5H17.5V6H19ZM19 14.5V18H17.5V14.5H19ZM16 4.75V5.12695C15.9868 5.20747 15.9868 5.2896 16 5.37012V10.127C15.9868 10.2075 15.9868 10.2896 16 10.3701V13.627C15.9868 13.7075 15.9868 13.7896 16 13.8701L16 18.627C15.9868 18.7075 15.9868 18.7896 16 18.8701V19.25C16 19.9491 15.4491 20.5 14.75 20.5H6.25C5.55089 20.5 5 19.9491 5 19.25L5 4.75C5 4.05089 5.55089 3.5 6.25 3.5L14.75 3.5C15.4491 3.5 16 4.05089 16 4.75Z" fill="black"/>
</svg>
