<svg width="24" height="24" viewBox="0 0 24 24" fill="none" xmlns="http://www.w3.org/2000/svg">
<path d="M16.6212 0C16.677 0 16.7329 0 16.7919 0C16.9289 1.69253 16.2829 2.95719 15.4977 3.87301C14.7273 4.78251 13.6724 5.6646 11.9662 5.53076C11.8523 3.86247 12.4994 2.69161 13.2835 1.77789C14.0107 0.92636 15.3439 0.168621 16.6212 0Z" fill="black"/>
<path d="M21.7851 17.6164C21.7851 17.6332 21.7851 17.648 21.7851 17.6638C21.3056 19.1161 20.6216 20.3607 19.7869 21.5157C19.025 22.5643 18.0912 23.9755 16.424 23.9755C14.9833 23.9755 14.0264 23.0491 12.5499 23.0238C10.9881 22.9985 10.1292 23.7984 8.70116 23.9997C8.53781 23.9997 8.37446 23.9997 8.21427 23.9997C7.16566 23.848 6.3194 23.0175 5.70288 22.2693C3.88493 20.0582 2.48011 17.2022 2.21875 13.5474C2.21875 13.189 2.21875 12.8318 2.21875 12.4735C2.32941 9.85772 3.60039 7.73099 5.28975 6.7003C6.18134 6.15228 7.407 5.68541 8.77177 5.89408C9.35668 5.98471 9.95423 6.18495 10.478 6.38308C10.9744 6.57383 11.5951 6.91213 12.1832 6.89421C12.5815 6.88262 12.9778 6.67501 13.3793 6.52852C14.5555 6.1038 15.7084 5.61691 17.2281 5.8456C19.0545 6.12172 20.3507 6.93321 21.1517 8.18521C19.6067 9.16848 18.3853 10.6502 18.5939 13.1806C18.7794 15.4791 20.1157 16.8239 21.7851 17.6164Z" fill="black"/>
</svg>
