<svg width="24" height="24" viewBox="0 0 24 24" fill="none" xmlns="http://www.w3.org/2000/svg">
<path d="M3.74982 17.4998C3.57982 17.4998 3.39982 17.4398 3.25982 17.3198C2.94982 17.0498 2.90982 16.5798 3.17982 16.2598L7.76982 10.8998C8.26982 10.3198 8.98982 9.96982 9.74982 9.93982C10.5098 9.91982 11.2598 10.1998 11.7998 10.7398L12.7498 11.6898C12.9998 11.9398 13.3298 12.0598 13.6798 12.0598C14.0298 12.0498 14.3498 11.8898 14.5798 11.6198L19.1698 6.25983C19.4398 5.94983 19.9098 5.90981 20.2298 6.17981C20.5398 6.44981 20.5798 6.91981 20.3098 7.23981L15.7198 12.5998C15.2198 13.1798 14.4998 13.5298 13.7398 13.5598C12.9798 13.5798 12.2298 13.2998 11.6898 12.7598L10.7498 11.8098C10.4998 11.5598 10.1698 11.4298 9.81982 11.4398C9.46982 11.4498 9.14982 11.6098 8.91982 11.8798L4.32982 17.2398C4.16982 17.4098 3.95982 17.4998 3.74982 17.4998Z" fill="black"/>
</svg>
