<svg width="24" height="24" viewBox="0 0 24 24" fill="none" xmlns="http://www.w3.org/2000/svg">
<path d="M9.00945 21.2497C8.81945 21.2497 8.62945 21.1797 8.47945 21.0297L3.46945 16.0197C3.17945 15.7297 3.17945 15.2497 3.46945 14.9597C3.75945 14.6697 4.23945 14.6697 4.52945 14.9597L9.53945 19.9697C9.82945 20.2597 9.82945 20.7397 9.53945 21.0297C9.38945 21.1697 9.19945 21.2497 9.00945 21.2497Z" fill="black"/>
<path d="M9.00977 21.25C8.59977 21.25 8.25977 20.91 8.25977 20.5V3.5C8.25977 3.09 8.59977 2.75 9.00977 2.75C9.41977 2.75 9.75977 3.09 9.75977 3.5V20.5C9.75977 20.91 9.41977 21.25 9.00977 21.25Z" fill="black"/>
<path d="M20.0104 9.26043C19.8204 9.26043 19.6304 9.19043 19.4804 9.04043L14.4704 4.03043C14.1804 3.74043 14.1804 3.26043 14.4704 2.97043C14.7604 2.68043 15.2404 2.68043 15.5304 2.97043L20.5404 7.98043C20.8304 8.27043 20.8304 8.75043 20.5404 9.04043C20.3904 9.19043 20.2004 9.26043 20.0104 9.26043Z" fill="black"/>
<path d="M14.9902 21.25C14.5802 21.25 14.2402 20.91 14.2402 20.5V3.5C14.2402 3.09 14.5802 2.75 14.9902 2.75C15.4002 2.75 15.7402 3.09 15.7402 3.5V20.5C15.7402 20.91 15.4102 21.25 14.9902 21.25Z" fill="black"/>
</svg>
