<svg width="24" height="24" viewBox="0 0 24 24" fill="none" xmlns="http://www.w3.org/2000/svg">
<path d="M12 2C6.48615 2 2 6.48615 2 12C2 13.6377 2.43135 15.1684 3.13086 16.5332L2.04688 20.4141C1.7944 21.3158 2.68596 22.2073 3.58789 21.9551L7.47168 20.8711C8.83537 21.5691 10.3639 22 12 22C17.5139 22 22 17.5139 22 12C22 6.48615 17.5139 2 12 2ZM12 3.5C16.7031 3.5 20.5 7.29685 20.5 12C20.5 16.7031 16.7031 20.5 12 20.5C10.4992 20.5 9.0953 20.1097 7.87109 19.4277C7.69853 19.3316 7.495 19.3073 7.30469 19.3604L3.61133 20.3906L4.64258 16.6992C4.69585 16.5086 4.67163 16.3047 4.5752 16.1318C3.89183 14.9067 3.5 13.5023 3.5 12C3.5 7.29685 7.29685 3.5 12 3.5ZM12 6.50098C10.3521 6.50098 9 7.85304 9 9.50098C8.99859 9.60036 9.01696 9.69903 9.05402 9.79126C9.09108 9.88348 9.1461 9.96743 9.21588 10.0382C9.28566 10.109 9.36882 10.1652 9.46051 10.2035C9.5522 10.2419 9.65061 10.2617 9.75 10.2617C9.84939 10.2617 9.9478 10.2419 10.0395 10.2035C10.1312 10.1652 10.2143 10.109 10.2841 10.0382C10.3539 9.96743 10.4089 9.88348 10.446 9.79126C10.483 9.69903 10.5014 9.60036 10.5 9.50098C10.5 8.66391 11.1629 8.00098 12 8.00098C12.8371 8.00098 13.5 8.66391 13.5 9.50098C13.5 10.2941 13.1783 10.5275 12.6133 11.0557C12.0482 11.5838 11.25 12.4043 11.25 13.751C11.2486 13.8504 11.267 13.949 11.304 14.0413C11.3411 14.1335 11.3961 14.2174 11.4659 14.2882C11.5357 14.359 11.6188 14.4152 11.7105 14.4535C11.8022 14.4919 11.9006 14.5117 12 14.5117C12.0994 14.5117 12.1978 14.4919 12.2895 14.4535C12.3812 14.4152 12.4643 14.359 12.5341 14.2882C12.6039 14.2174 12.6589 14.1335 12.696 14.0413C12.733 13.949 12.7514 13.8504 12.75 13.751C12.75 12.9212 13.0768 12.6747 13.6367 12.1514C14.1967 11.628 15 10.8254 15 9.50098C15 7.85304 13.6479 6.50098 12 6.50098ZM12 15.501C11.7348 15.501 11.4804 15.6063 11.2929 15.7939C11.1054 15.9814 11 16.2358 11 16.501C11 16.7662 11.1054 17.0205 11.2929 17.2081C11.4804 17.3956 11.7348 17.501 12 17.501C12.2652 17.501 12.5196 17.3956 12.7071 17.2081C12.8946 17.0205 13 16.7662 13 16.501C13 16.2358 12.8946 15.9814 12.7071 15.7939C12.5196 15.6063 12.2652 15.501 12 15.501Z" fill="black"/>
</svg>
