<svg width="24" height="24" viewBox="0 0 24 24" fill="none" xmlns="http://www.w3.org/2000/svg">
<path d="M16.213 2.01953C14.798 2.01953 13.383 2.55654 12.3077 3.63184L2.21887 13.7207C2.14689 13.7898 2.08942 13.8726 2.04984 13.9642C2.01025 14.0558 1.98933 14.1544 1.98832 14.2541C1.98731 14.3539 2.00621 14.4529 2.04393 14.5453C2.08164 14.6377 2.13741 14.7216 2.20797 14.7921C2.27853 14.8627 2.36246 14.9185 2.45484 14.9562C2.54722 14.9939 2.6462 15.0128 2.74598 15.0118C2.84576 15.0108 2.94434 14.9899 3.03593 14.9503C3.12753 14.9107 3.2103 14.8532 3.27941 14.7812L13.3683 4.69238C14.9457 3.11498 17.4803 3.11498 19.0577 4.69238C20.6351 6.26978 20.6351 8.80443 19.0577 10.3818L9.53625 19.9033C8.7184 20.7212 7.41465 20.7212 6.5968 19.9033C5.77895 19.0855 5.77895 17.7817 6.5968 16.9639L14.2794 9.28125C14.3514 9.21214 14.4089 9.12936 14.4484 9.03777C14.488 8.94617 14.5089 8.8476 14.51 8.74782C14.511 8.64804 14.4921 8.54906 14.4544 8.45668C14.4166 8.3643 14.3609 8.28037 14.2903 8.20981C14.2198 8.13925 14.1358 8.08348 14.0434 8.04576C13.9511 8.00805 13.8521 7.98914 13.7523 7.99016C13.6525 7.99117 13.5539 8.01208 13.4624 8.05167C13.3708 8.09126 13.288 8.14872 13.2189 8.2207L5.53625 15.9033C4.1451 17.2945 4.1451 19.5727 5.53625 20.9639C6.9274 22.355 9.20565 22.355 10.5968 20.9639L20.1183 11.4424C22.2689 9.29178 22.2689 5.78243 20.1183 3.63184C19.043 2.55654 17.628 2.01953 16.213 2.01953Z" fill="black"/>
</svg>
