<svg width="24" height="24" viewBox="0 0 24 24" fill="none" xmlns="http://www.w3.org/2000/svg">
<path d="M11.9883 1.98837C11.7895 1.99148 11.6002 2.07334 11.4617 2.21598C11.3233 2.35862 11.2471 2.55037 11.25 2.74912V3.49912H7.75C6.51625 3.49912 5.5 4.51536 5.5 5.74912V10.2491C5.5 11.4829 6.51625 12.4991 7.75 12.4991H16.25C17.4837 12.4991 18.5 11.4829 18.5 10.2491V5.74912C18.5 4.51536 17.4837 3.49912 16.25 3.49912H12.75V2.74912C12.7514 2.64873 12.7327 2.54908 12.6949 2.45607C12.6571 2.36306 12.6011 2.27858 12.53 2.20763C12.459 2.13669 12.3745 2.08073 12.2814 2.04307C12.1883 2.0054 12.0887 1.9868 11.9883 1.98837ZM7.75 4.99912H16.25C16.6732 4.99912 17 5.32587 17 5.74912V10.2491C17 10.6724 16.6732 10.9991 16.25 10.9991H7.75C7.32675 10.9991 7 10.6724 7 10.2491V5.74912C7 5.32587 7.32675 4.99912 7.75 4.99912ZM9.75 6.49912C9.41848 6.49912 9.10054 6.63081 8.86612 6.86523C8.6317 7.09965 8.5 7.41759 8.5 7.74912C8.5 8.08064 8.6317 8.39858 8.86612 8.633C9.10054 8.86742 9.41848 8.99912 9.75 8.99912C10.0815 8.99912 10.3995 8.86742 10.6339 8.633C10.8683 8.39858 11 8.08064 11 7.74912C11 7.41759 10.8683 7.09965 10.6339 6.86523C10.3995 6.63081 10.0815 6.49912 9.75 6.49912ZM14.25 6.49912C13.9185 6.49912 13.6005 6.63081 13.3661 6.86523C13.1317 7.09965 13 7.41759 13 7.74912C13 8.08064 13.1317 8.39858 13.3661 8.633C13.6005 8.86742 13.9185 8.99912 14.25 8.99912C14.5815 8.99912 14.8995 8.86742 15.1339 8.633C15.3683 8.39858 15.5 8.08064 15.5 7.74912C15.5 7.41759 15.3683 7.09965 15.1339 6.86523C14.8995 6.63081 14.5815 6.49912 14.25 6.49912ZM6.25 13.9991C5.01625 13.9991 4 15.0154 4 16.2491V16.631C4 17.8035 4.48109 18.9299 5.34375 19.7335C5.34375 19.7338 5.34375 19.7341 5.34375 19.7345C6.50574 20.8164 8.60856 21.9991 12 21.9991C15.3914 21.9991 17.4942 20.816 18.6562 19.7335C19.5188 18.93 20 17.8029 20 16.63V16.2491C20 15.0154 18.9837 13.9991 17.75 13.9991H6.25ZM6.25 15.4991H17.75C18.1732 15.4991 18.5 15.8259 18.5 16.2491V16.63C18.5 17.394 18.1892 18.1193 17.6348 18.6358C16.7218 19.4863 15.0506 20.4991 12 20.4991C8.94944 20.4991 7.27824 19.4859 6.36523 18.6358C5.81127 18.1195 5.5 17.3941 5.5 16.631V16.2491C5.5 15.8259 5.82675 15.4991 6.25 15.4991Z" fill="black"/>
</svg>
