<svg xmlns="http://www.w3.org/2000/svg" width="20" height="20" viewBox="0 0 20 20" fill="none">
  <path d="M5.41797 18.9583C5.0763 18.9583 4.79297 18.675 4.79297 18.3333V12.5C4.79297 12.1583 5.0763 11.875 5.41797 11.875C5.75964 11.875 6.04297 12.1583 6.04297 12.5V18.3333C6.04297 18.675 5.75964 18.9583 5.41797 18.9583Z" fill="black"/>
  <path d="M5.41797 4.79102C5.0763 4.79102 4.79297 4.50768 4.79297 4.16602V1.66602C4.79297 1.32435 5.0763 1.04102 5.41797 1.04102C5.75964 1.04102 6.04297 1.32435 6.04297 1.66602V4.16602C6.04297 4.50768 5.75964 4.79102 5.41797 4.79102Z" fill="black"/>
  <path d="M14.582 18.959C14.2404 18.959 13.957 18.6757 13.957 18.334V15.834C13.957 15.4923 14.2404 15.209 14.582 15.209C14.9237 15.209 15.207 15.4923 15.207 15.834V18.334C15.207 18.6757 14.9237 18.959 14.582 18.959Z" fill="black"/>
  <path d="M14.582 8.12435C14.2404 8.12435 13.957 7.84102 13.957 7.49935V1.66602C13.957 1.32435 14.2404 1.04102 14.582 1.04102C14.9237 1.04102 15.207 1.32435 15.207 1.66602V7.49935C15.207 7.84102 14.9237 8.12435 14.582 8.12435Z" fill="black"/>
  <path d="M6.2513 13.1243H4.58464C3.1513 13.1243 2.29297 12.266 2.29297 10.8327V5.83268C2.29297 4.39935 3.1513 3.54102 4.58464 3.54102H6.2513C7.68464 3.54102 8.54297 4.39935 8.54297 5.83268V10.8327C8.54297 12.266 7.68464 13.1243 6.2513 13.1243ZM4.58464 4.79102C3.84297 4.79102 3.54297 5.09102 3.54297 5.83268V10.8327C3.54297 11.5743 3.84297 11.8743 4.58464 11.8743H6.2513C6.99297 11.8743 7.29297 11.5743 7.29297 10.8327V5.83268C7.29297 5.09102 6.99297 4.79102 6.2513 4.79102H4.58464Z" fill="black"/>
  <path d="M15.4154 16.4583H13.7487C12.3154 16.4583 11.457 15.6 11.457 14.1667V9.16667C11.457 7.73333 12.3154 6.875 13.7487 6.875H15.4154C16.8487 6.875 17.707 7.73333 17.707 9.16667V14.1667C17.707 15.6 16.8487 16.4583 15.4154 16.4583ZM13.7487 8.125C13.007 8.125 12.707 8.425 12.707 9.16667V14.1667C12.707 14.9083 13.007 15.2083 13.7487 15.2083H15.4154C16.157 15.2083 16.457 14.9083 16.457 14.1667V9.16667C16.457 8.425 16.157 8.125 15.4154 8.125H13.7487Z" fill="black"/>
</svg>