<svg xmlns="http://www.w3.org/2000/svg" width="20" height="20" viewBox="0 0 20 20" fill="none">
  <path d="M14.168 8.33464H15.8346C17.5013 8.33464 18.3346 7.5013 18.3346 5.83464V4.16797C18.3346 2.5013 17.5013 1.66797 15.8346 1.66797H14.168C12.5013 1.66797 11.668 2.5013 11.668 4.16797V5.83464C11.668 7.5013 12.5013 8.33464 14.168 8.33464Z" stroke="black" stroke-width="1.5" stroke-miterlimit="10" stroke-linecap="round" stroke-linejoin="round"/>
  <path d="M4.16797 18.3346H5.83464C7.5013 18.3346 8.33464 17.5013 8.33464 15.8346V14.168C8.33464 12.5013 7.5013 11.668 5.83464 11.668H4.16797C2.5013 11.668 1.66797 12.5013 1.66797 14.168V15.8346C1.66797 17.5013 2.5013 18.3346 4.16797 18.3346Z" stroke="black" stroke-width="1.5" stroke-miterlimit="10" stroke-linecap="round" stroke-linejoin="round"/>
  <path d="M5.0013 8.33464C6.84225 8.33464 8.33464 6.84225 8.33464 5.0013C8.33464 3.16035 6.84225 1.66797 5.0013 1.66797C3.16035 1.66797 1.66797 3.16035 1.66797 5.0013C1.66797 6.84225 3.16035 8.33464 5.0013 8.33464Z" stroke="black" stroke-width="1.5" stroke-miterlimit="10" stroke-linecap="round" stroke-linejoin="round"/>
  <path d="M15.0013 18.3346C16.8423 18.3346 18.3346 16.8423 18.3346 15.0013C18.3346 13.1604 16.8423 11.668 15.0013 11.668C13.1604 11.668 11.668 13.1604 11.668 15.0013C11.668 16.8423 13.1604 18.3346 15.0013 18.3346Z" stroke="black" stroke-width="1.5" stroke-miterlimit="10" stroke-linecap="round" stroke-linejoin="round"/>
</svg>