<svg width="24" height="24" viewBox="0 0 24 24" fill="none" xmlns="http://www.w3.org/2000/svg">
<path d="M19.7423 3.48849C19.5442 3.49317 19.3561 3.57602 19.2189 3.71896L11.9991 10.9387L4.77941 3.71896C4.7095 3.64697 4.62586 3.58973 4.53343 3.55065C4.44101 3.51156 4.34168 3.49142 4.24133 3.49142C4.09207 3.49146 3.94621 3.53602 3.82242 3.61942C3.69863 3.70282 3.60254 3.82125 3.54644 3.95957C3.49033 4.09788 3.47677 4.24979 3.50749 4.39586C3.53821 4.54192 3.61181 4.6755 3.71887 4.77951L10.9386 11.9992L3.71887 19.219C3.64689 19.2881 3.58942 19.3708 3.54984 19.4624C3.51025 19.554 3.48933 19.6526 3.48832 19.7524C3.48731 19.8522 3.50621 19.9511 3.54393 20.0435C3.58164 20.1359 3.63741 20.2198 3.70797 20.2904C3.77853 20.361 3.86246 20.4167 3.95484 20.4544C4.04722 20.4922 4.1462 20.5111 4.24598 20.5101C4.34576 20.509 4.44434 20.4881 4.53593 20.4485C4.62753 20.409 4.7103 20.3515 4.77941 20.2795L11.9991 13.0598L19.2189 20.2795C19.288 20.3515 19.3708 20.409 19.4623 20.4485C19.5539 20.4881 19.6525 20.509 19.7523 20.5101C19.8521 20.5111 19.9511 20.4922 20.0434 20.4544C20.1358 20.4167 20.2197 20.361 20.2903 20.2904C20.3609 20.2198 20.4166 20.1359 20.4544 20.0435C20.4921 19.9511 20.511 19.8522 20.51 19.7524C20.5089 19.6526 20.488 19.554 20.4484 19.4624C20.4089 19.3708 20.3514 19.2881 20.2794 19.219L13.0597 11.9992L20.2794 4.77951C20.3885 4.67483 20.4634 4.53964 20.4943 4.39165C20.5252 4.24367 20.5106 4.08981 20.4526 3.95024C20.3945 3.81066 20.2956 3.69189 20.1689 3.6095C20.0421 3.5271 19.8934 3.48492 19.7423 3.48849Z" fill="black"/>
</svg>
