<svg xmlns="http://www.w3.org/2000/svg" width="18" height="18" viewBox="0 0 18 18" fill="none">
  <path d="M16.7423 0.488491C16.5442 0.493168 16.3561 0.576021 16.2189 0.718959L8.99914 7.93869L1.77941 0.718959C1.7095 0.646966 1.62586 0.589733 1.53343 0.550649C1.44101 0.511565 1.34168 0.491424 1.24133 0.49142C1.09207 0.491457 0.946211 0.536024 0.822421 0.619421C0.698632 0.702817 0.602539 0.82125 0.546436 0.959566C0.490334 1.09788 0.476774 1.24979 0.507491 1.39586C0.538208 1.54192 0.611805 1.6755 0.718867 1.77951L7.93859 8.99923L0.718867 16.219C0.646888 16.2881 0.589423 16.3708 0.549835 16.4624C0.510248 16.554 0.489335 16.6526 0.48832 16.7524C0.487306 16.8522 0.50621 16.9511 0.543927 17.0435C0.581644 17.1359 0.637415 17.2198 0.707973 17.2904C0.778532 17.361 0.862459 17.4167 0.954841 17.4544C1.04722 17.4922 1.1462 17.5111 1.24598 17.5101C1.34576 17.509 1.44434 17.4881 1.53593 17.4485C1.62753 17.409 1.7103 17.3515 1.77941 17.2795L8.99914 10.0598L16.2189 17.2795C16.288 17.3515 16.3708 17.409 16.4623 17.4485C16.5539 17.4881 16.6525 17.509 16.7523 17.5101C16.8521 17.5111 16.9511 17.4922 17.0434 17.4544C17.1358 17.4167 17.2197 17.361 17.2903 17.2904C17.3609 17.2198 17.4166 17.1359 17.4544 17.0435C17.4921 16.9511 17.511 16.8522 17.51 16.7524C17.5089 16.6526 17.488 16.554 17.4484 16.4624C17.4089 16.3708 17.3514 16.2881 17.2794 16.219L10.0597 8.99923L17.2794 1.77951C17.3885 1.67483 17.4634 1.53964 17.4943 1.39165C17.5252 1.24367 17.5106 1.08981 17.4526 0.950238C17.3945 0.810664 17.2956 0.691893 17.1689 0.609496C17.0421 0.527098 16.8934 0.48492 16.7423 0.488491Z" fill="black"/>
</svg>