<svg width="24" height="24" viewBox="0 0 24 24" fill="none" xmlns="http://www.w3.org/2000/svg">
<path d="M12 2.00098C6.47 2.00098 2 6.47098 2 12.001C2 17.531 6.47 22.001 12 22.001C17.53 22.001 22 17.531 22 12.001C22 6.47098 17.53 2.00098 12 2.00098ZM16.707 15.294C17.098 15.685 17.098 16.317 16.707 16.708C16.512 16.903 16.256 17.001 16 17.001C15.744 17.001 15.488 16.903 15.293 16.708L12 13.415L8.707 16.708C8.512 16.903 8.256 17.001 8 17.001C7.744 17.001 7.488 16.903 7.293 16.708C6.902 16.317 6.902 15.685 7.293 15.294L10.586 12.001L7.293 8.70798C6.902 8.31698 6.902 7.68498 7.293 7.29398C7.684 6.90298 8.316 6.90298 8.707 7.29398L12 10.587L15.293 7.29398C15.684 6.90298 16.316 6.90298 16.707 7.29398C17.098 7.68498 17.098 8.31698 16.707 8.70798L13.414 12.001L16.707 15.294Z" fill="black"/>
</svg>
