<svg width="132" height="32" viewBox="0 0 132 32" fill="none" xmlns="http://www.w3.org/2000/svg">
<path fill-rule="evenodd" clip-rule="evenodd" d="M125.874 27.1951C129.013 27.1951 131.557 24.6506 131.557 21.5121H131.545V16.1948C131.553 16.0748 131.557 15.9529 131.557 15.831H131.545V10.1479H128.704V16.0906C128.572 17.5379 127.357 18.6725 125.874 18.6725C124.305 18.6725 123.033 17.4002 123.033 15.831V10.1479H120.191V15.831C120.191 18.9694 122.736 21.514 125.874 21.514C126.905 21.514 127.87 21.2407 128.704 20.7609V21.514H128.716C128.716 23.0833 127.443 24.3556 125.874 24.3556C124.305 24.3556 123.033 23.0833 123.033 21.514H120.191C120.191 24.6505 122.736 27.1951 125.874 27.1951ZM104.564 10.1479C105.598 10.1479 106.569 10.4252 107.405 10.9089V10.1479H110.247V15.831V21.514H107.405V20.753C106.569 21.2368 105.6 21.514 104.564 21.514C101.425 21.514 98.8806 18.9694 98.8806 15.831C98.8826 12.6925 101.425 10.1479 104.564 10.1479ZM104.564 12.9894C106.133 12.9894 107.405 14.2617 107.405 15.831C107.405 17.4002 106.133 18.6725 104.564 18.6725C102.994 18.6725 101.722 17.4002 101.722 15.831C101.722 14.2598 102.994 12.9894 104.564 12.9894ZM82.3152 10.1479C85.4536 10.1479 87.9982 12.6925 87.9982 15.831C87.9982 18.9694 85.4536 21.514 82.3152 21.514C79.1767 21.514 76.6321 18.9694 76.6321 15.831C76.6321 12.6925 79.1767 10.1479 82.3152 10.1479ZM82.3152 12.9894C83.8844 12.9894 85.1567 14.2617 85.1567 15.831C85.1567 17.4002 83.8844 18.6725 82.3152 18.6725C80.7459 18.6725 79.4736 17.4002 79.4736 15.831C79.4736 14.2598 80.744 12.9894 82.3152 12.9894ZM94.5977 10.1479C96.2062 10.1479 97.6634 10.7831 98.7174 11.8115L96.6585 13.8213C96.1315 13.308 95.4039 12.9894 94.5996 12.9894C92.9911 12.9894 91.6873 14.2617 91.6873 15.831C91.6873 17.4002 92.9911 18.6725 94.5996 18.6725C95.4039 18.6725 96.1315 18.3539 96.6585 17.8407L98.7174 19.8504C97.6634 20.8789 96.2062 21.514 94.5977 21.514C91.3805 21.514 88.773 18.9694 88.773 15.831C88.771 12.6925 91.3805 10.1479 94.5977 10.1479ZM72.6933 4.46484H75.5348V21.5121H72.6933V4.46484ZM71.2715 15.829V21.5121H68.43V15.829C68.43 14.2598 67.1577 12.9875 65.5885 12.9875C64.0192 12.9875 62.7469 14.2598 62.7469 15.829V21.5121H59.9054V15.829V10.1459H62.7469V10.907C63.5827 10.4232 64.5541 10.1459 65.5885 10.1459C68.7269 10.1479 71.2715 12.6925 71.2715 15.829ZM55.6441 10.1479H58.4856V21.5121H55.6441V10.1479ZM57.0658 5.88463C57.8504 5.88463 58.4876 6.51979 58.4876 7.30441C58.4876 8.08903 57.8504 8.7242 57.0658 8.7242C56.2812 8.7242 55.646 8.08903 55.646 7.30441C55.6441 6.52176 56.2812 5.88463 57.0658 5.88463ZM111.667 4.46484H114.508V21.5121H111.667V4.46484ZM48.8441 10.1479C51.9825 10.1479 54.5271 12.6925 54.5271 15.831C54.5271 18.9694 51.9825 21.514 48.8441 21.514C45.7056 21.514 43.161 18.9694 43.161 15.831C43.161 12.6925 45.7056 10.1479 48.8441 10.1479ZM48.8441 12.9894C50.4133 12.9894 51.6856 14.2617 51.6856 15.831C51.6856 17.4002 50.4133 18.6725 48.8441 18.6725C47.2748 18.6725 46.0025 17.4002 46.0025 15.831C46.0025 14.2598 47.2748 12.9894 48.8441 12.9894ZM38.7679 10.1479C40.3725 10.1479 41.8258 10.7831 42.8778 11.8076L40.8229 13.8114C40.2978 13.2982 39.5702 12.9816 38.7679 12.9816C37.1633 12.9816 35.8615 14.2499 35.8615 15.8153C35.8615 17.3806 37.1613 18.6489 38.7679 18.6489C39.5702 18.6489 40.2959 18.3323 40.8229 17.8191L42.8778 19.8229C41.8258 20.8494 40.3725 21.4826 38.7679 21.4826C35.5587 21.4826 32.957 18.9439 32.957 15.8133C32.957 12.6866 35.5587 10.1479 38.7679 10.1479ZM115.93 4.46484H118.771V21.5121H115.93V4.46484Z" fill="black"/>
<path fill-rule="evenodd" clip-rule="evenodd" d="M15.0011 6.99133C19.343 6.99133 22.863 10.5113 22.863 14.8532C22.863 19.1952 19.343 22.7151 15.0011 22.7151C10.6591 22.7151 7.13915 19.1952 7.13915 14.8532C7.13719 10.5113 10.6571 6.99133 15.0011 6.99133ZM24.0704 14.4934H24.0743C24.0664 14.3026 24.0546 14.1138 24.035 13.9251L24.033 13.9133L24.031 13.9015C23.5788 9.28619 19.7068 5.67773 14.9991 5.67773C10.2934 5.67773 6.42336 9.28029 5.96714 13.8936L5.96518 13.9054L5.96321 13.9172L5.96124 13.929C5.94158 14.1158 5.92978 14.3026 5.92191 14.4914H5.92585C5.92192 14.5956 5.91995 14.7018 5.91995 14.808L5.92191 14.9398H5.91602C5.91798 15.1856 5.92978 15.4274 5.95141 15.6673L5.95928 15.6654C5.97304 15.8148 5.99074 15.9643 6.01237 16.1118L6.00254 16.1137C6.03794 16.3654 6.08317 16.6112 6.13823 16.8551L6.15002 16.8512C6.18345 16.9986 6.22082 17.1422 6.26015 17.2877L6.24835 17.2916C6.31324 17.5276 6.38993 17.7616 6.47449 17.9897L6.48826 17.9838C6.53938 18.1235 6.59641 18.2631 6.6554 18.4007L6.64164 18.4066C6.74193 18.6406 6.85008 18.8687 6.96807 19.0929L6.97987 19.0851C7.05066 19.2168 7.12342 19.3486 7.20011 19.4764L7.18831 19.4842C7.31417 19.6966 7.44789 19.9031 7.58947 20.1017L7.5993 20.0938C7.68583 20.2158 7.77629 20.3357 7.86871 20.4537L7.85888 20.4616C8.0162 20.6622 8.18138 20.8549 8.35442 21.0397L8.36229 21.0318C8.46455 21.142 8.56877 21.2501 8.67693 21.3543L8.66906 21.3622C8.84604 21.5353 9.03089 21.7004 9.22163 21.8578L9.22557 21.8519C9.33962 21.9463 9.45761 22.0406 9.57756 22.1291L9.57363 22.135C9.77814 22.2884 9.99052 22.432 10.2068 22.5677L10.2088 22.5637C10.3346 22.6424 10.4644 22.7191 10.5942 22.7918L10.5923 22.7958C10.8086 22.9157 11.0308 23.0278 11.2569 23.1301V23.1281C11.3926 23.1891 11.5322 23.248 11.6718 23.3031C11.8016 23.3542 11.9334 23.4014 12.0651 23.4486L12.0769 23.4526L12.0887 23.4565L12.1005 23.4604L12.1123 23.4644L12.1241 23.4683L12.1359 23.4722L12.2382 23.5057L12.25 23.5096L12.2618 23.5135L12.2736 23.5174L12.3306 23.5352L12.3424 23.5391L12.3542 23.543L12.366 23.547L12.3778 23.5509L12.3896 23.5548L12.4014 23.5587C13.2253 23.8065 14.0985 23.9402 15.003 23.9402C15.9076 23.9402 16.7807 23.8065 17.6046 23.5587L17.6164 23.5548L17.6282 23.5509L17.64 23.547L17.7521 23.5135L17.7639 23.5096L17.7757 23.5057L17.7875 23.5017L17.8426 23.484L17.8544 23.4801L17.8662 23.4762L17.878 23.4722L17.8898 23.4683L17.9016 23.4644L17.9429 23.4506H17.9448L17.9566 23.4467C18.0786 23.4054 18.1985 23.3621 18.3165 23.3149C18.4561 23.2598 18.5938 23.2028 18.7314 23.1399V23.1419C18.9654 23.0357 19.1955 22.9216 19.4177 22.7977L19.4158 22.7938C19.5455 22.721 19.6753 22.6443 19.8012 22.5657L19.8031 22.5696C20.0136 22.4379 20.2181 22.2983 20.4167 22.1527L20.4128 22.1468C20.5327 22.0564 20.6507 21.964 20.7667 21.8696L20.7726 21.8755C20.9693 21.7142 21.16 21.5431 21.3429 21.3661L21.335 21.3583C21.4432 21.2541 21.5474 21.1459 21.6497 21.0358L21.6575 21.0436C21.8247 20.8627 21.9859 20.6759 22.1393 20.4832L22.1295 20.4753C22.2219 20.3574 22.3124 20.2394 22.3989 20.1174L22.4087 20.1253C22.5562 19.9188 22.6958 19.7065 22.8256 19.4862L22.8138 19.4783C22.8905 19.3505 22.9633 19.2188 23.0321 19.087L23.0439 19.0949C23.1579 18.8786 23.2641 18.6564 23.3605 18.4302L23.3467 18.4243C23.4057 18.2867 23.4627 18.1471 23.5139 18.0074L23.5276 18.0133C23.6161 17.7774 23.6928 17.5374 23.7616 17.2936L23.7498 17.2897C23.7911 17.1461 23.8265 17.0006 23.86 16.8531L23.8718 16.8571C23.9248 16.6211 23.9681 16.3812 24.0035 16.1373L23.9937 16.1354C24.0153 15.9879 24.033 15.8404 24.0468 15.6909L24.0546 15.6929C24.0782 15.4451 24.09 15.1934 24.092 14.9417H24.0861L24.0881 14.81C24.0763 14.7038 24.0743 14.5996 24.0704 14.4934Z" fill="#F1C304"/>
<path fill-rule="evenodd" clip-rule="evenodd" d="M0 14.3971C0.0117988 13.8819 0.0491614 13.3725 0.112088 12.8711L1.00093 12.9891C0.9439 13.4512 0.906537 13.9212 0.896705 14.3971H0Z" fill="black"/>
<path fill-rule="evenodd" clip-rule="evenodd" d="M9.26173 24.1646L9.67075 23.4567C9.40331 23.2915 9.14374 23.1165 8.894 22.9277L8.39648 23.5747C8.67376 23.7851 8.96282 23.9818 9.26173 24.1646Z" fill="black"/>
<path fill-rule="evenodd" clip-rule="evenodd" d="M10.5355 24.8341L10.8482 24.0789C10.5689 23.9551 10.2975 23.8174 10.0321 23.6699L9.62305 24.3778C9.91998 24.543 10.2248 24.6964 10.5355 24.8341Z" fill="black"/>
<path fill-rule="evenodd" clip-rule="evenodd" d="M11.9169 25.3395L12.1292 24.5509C11.8264 24.4624 11.5295 24.3602 11.2404 24.2441L10.9277 24.9973C11.2502 25.1271 11.5806 25.2411 11.9169 25.3395Z" fill="black"/>
<path fill-rule="evenodd" clip-rule="evenodd" d="M13.3251 25.6512L13.4333 24.843C13.1305 24.7958 12.8316 24.7349 12.5366 24.6621L12.3262 25.4507C12.6526 25.5333 12.9869 25.6001 13.3251 25.6512Z" fill="black"/>
<path fill-rule="evenodd" clip-rule="evenodd" d="M14.7708 26.1183L14.7786 25.1685C14.462 25.1606 14.1494 25.137 13.8406 25.0957L13.7246 26.0376C14.0687 26.0848 14.4188 26.1104 14.7708 26.1183Z" fill="black"/>
<path fill-rule="evenodd" clip-rule="evenodd" d="M16.2217 25.4899L16.1156 24.6797C15.8147 24.7131 15.5099 24.7328 15.2031 24.7387V25.5548C15.5453 25.5489 15.8855 25.5253 16.2217 25.4899Z" fill="black"/>
<path fill-rule="evenodd" clip-rule="evenodd" d="M17.6796 25.4507L17.4672 24.6621C17.1644 24.7368 16.8576 24.7998 16.5449 24.847L16.6511 25.6571C16.9992 25.604 17.3413 25.5352 17.6796 25.4507Z" fill="black"/>
<path fill-rule="evenodd" clip-rule="evenodd" d="M19.0529 25.009L18.7422 24.2539C18.459 24.366 18.1719 24.4643 17.877 24.5508L18.0893 25.3394C18.4158 25.243 18.7363 25.1329 19.0529 25.009Z" fill="black"/>
<path fill-rule="evenodd" clip-rule="evenodd" d="M20.3776 24.3778L19.9686 23.6699C19.6953 23.8233 19.416 23.9629 19.127 24.0907L19.4377 24.8459C19.7621 24.7043 20.0748 24.547 20.3776 24.3778Z" fill="black"/>
<path fill-rule="evenodd" clip-rule="evenodd" d="M21.5866 23.5942L21.0911 22.9453C20.8472 23.1262 20.5955 23.2973 20.3359 23.4566L20.745 24.1645C21.034 23.9875 21.3152 23.7968 21.5866 23.5942Z" fill="black"/>
<path fill-rule="evenodd" clip-rule="evenodd" d="M22.702 22.6406L22.1239 22.0625C21.8997 22.2808 21.6677 22.4892 21.4238 22.6859L21.9194 23.3348C22.1907 23.1146 22.4523 22.8825 22.702 22.6406Z" fill="black"/>
<path fill-rule="evenodd" clip-rule="evenodd" d="M23.6608 21.5698L23.0138 21.0723C22.827 21.3102 22.6284 21.5403 22.4199 21.7605L22.9981 22.3387C23.2301 22.0909 23.4503 21.8353 23.6608 21.5698Z" fill="black"/>
<path fill-rule="evenodd" clip-rule="evenodd" d="M10.0774 25.9398L10.3763 25.224C10.0479 25.0785 9.72739 24.9172 9.41669 24.7422L9.0293 25.4147C9.36753 25.6055 9.71756 25.7805 10.0774 25.9398Z" fill="black"/>
<path fill-rule="evenodd" clip-rule="evenodd" d="M11.6073 26.4958L11.8079 25.7466C11.452 25.6443 11.1039 25.5224 10.7637 25.3867L10.4668 26.1025C10.8385 26.252 11.218 26.3837 11.6073 26.4958Z" fill="black"/>
<path fill-rule="evenodd" clip-rule="evenodd" d="M13.168 26.8367L13.2702 26.0678C12.9123 26.0128 12.5623 25.942 12.2162 25.8555L12.0156 26.6047C12.3932 26.701 12.7766 26.7797 13.168 26.8367Z" fill="black"/>
<path fill-rule="evenodd" clip-rule="evenodd" d="M14.7582 27.5106L14.766 26.608C14.3944 26.6001 14.0266 26.5726 13.6648 26.5234L13.5547 27.4182C13.9499 27.4732 14.3511 27.5027 14.7582 27.5106Z" fill="black"/>
<path fill-rule="evenodd" clip-rule="evenodd" d="M16.3634 26.4759L16.2631 25.707C15.9092 25.7464 15.5513 25.77 15.1895 25.7759V26.5506C15.5867 26.5447 15.978 26.5192 16.3634 26.4759Z" fill="black"/>
<path fill-rule="evenodd" clip-rule="evenodd" d="M17.9892 26.6066L17.7886 25.8574C17.4346 25.9459 17.0728 26.0187 16.7051 26.0737L16.8054 26.8426C17.2065 26.7817 17.6018 26.703 17.9892 26.6066Z" fill="black"/>
<path fill-rule="evenodd" clip-rule="evenodd" d="M19.5089 26.1142L19.2139 25.3965C18.8816 25.5282 18.5434 25.6443 18.1973 25.7445L18.3978 26.4938C18.7754 26.3856 19.1451 26.2578 19.5089 26.1142Z" fill="black"/>
<path fill-rule="evenodd" clip-rule="evenodd" d="M20.9781 25.4147L20.5907 24.7441C20.2701 24.9231 19.9417 25.0883 19.6035 25.2377L19.9004 25.9555C20.2682 25.7903 20.628 25.6113 20.9781 25.4147Z" fill="black"/>
<path fill-rule="evenodd" clip-rule="evenodd" d="M22.3139 24.5432L21.8439 23.9277C21.5588 24.1421 21.2618 24.3427 20.9551 24.5295L21.3425 25.202C21.6768 24.9975 22.0012 24.7772 22.3139 24.5432Z" fill="black"/>
<path fill-rule="evenodd" clip-rule="evenodd" d="M23.5484 23.4861L22.9997 22.9375C22.7382 23.1951 22.4629 23.4389 22.1777 23.669L22.6497 24.2845C22.9624 24.0328 23.2613 23.7654 23.5484 23.4861Z" fill="black"/>
<path fill-rule="evenodd" clip-rule="evenodd" d="M24.6085 22.2981L23.995 21.8262C23.7747 22.1074 23.5407 22.3768 23.2949 22.6364L23.8436 23.185C24.111 22.9018 24.3666 22.6069 24.6085 22.2981Z" fill="black"/>
<path fill-rule="evenodd" clip-rule="evenodd" d="M25.5243 20.9597L24.8517 20.5723C24.6649 20.8889 24.4644 21.1956 24.248 21.4906L24.8635 21.9626C25.0995 21.642 25.3198 21.3058 25.5243 20.9597Z" fill="black"/>
<path fill-rule="evenodd" clip-rule="evenodd" d="M9.5999 27.0949L9.91847 26.3279C9.54288 26.1628 9.17515 25.9779 8.81922 25.7773L8.4043 26.4951C8.78972 26.7153 9.18891 26.9159 9.5999 27.0949Z" fill="black"/>
<path fill-rule="evenodd" clip-rule="evenodd" d="M11.2842 27.7035L11.4985 26.9032C11.0915 26.7852 10.6943 26.6495 10.3049 26.4922L9.98633 27.2591C10.4091 27.4282 10.8417 27.5757 11.2842 27.7035Z" fill="black"/>
<path fill-rule="evenodd" clip-rule="evenodd" d="M13.003 28.0775L13.1131 27.2555C12.7041 27.1946 12.303 27.114 11.9077 27.0137L11.6934 27.814C12.122 27.9222 12.5586 28.0107 13.003 28.0775Z" fill="black"/>
<path fill-rule="evenodd" clip-rule="evenodd" d="M14.7456 28.9662L14.7535 28.0007C14.3287 27.9928 13.9079 27.9594 13.4949 27.9043L13.377 28.86C13.8273 28.9229 14.2835 28.9583 14.7456 28.9662Z" fill="black"/>
<path fill-rule="evenodd" clip-rule="evenodd" d="M16.5012 27.5876L16.3931 26.7656C15.99 26.8109 15.579 26.8384 15.166 26.8443V27.6741C15.6163 27.6682 16.0627 27.6387 16.5012 27.5876Z" fill="black"/>
<path fill-rule="evenodd" clip-rule="evenodd" d="M18.3145 27.814L18.1002 27.0137C17.6951 27.1159 17.2822 27.1985 16.8613 27.2595L16.9695 28.0815C17.4237 28.0146 17.8741 27.9261 18.3145 27.814Z" fill="black"/>
<path fill-rule="evenodd" clip-rule="evenodd" d="M19.9866 27.2708L19.67 26.5039C19.2905 26.6553 18.9031 26.7871 18.5059 26.9011L18.7202 27.7034C19.1528 27.5796 19.5756 27.436 19.9866 27.2708Z" fill="black"/>
<path fill-rule="evenodd" clip-rule="evenodd" d="M21.6042 26.4971L21.1893 25.7793C20.8235 25.9858 20.446 26.1726 20.0605 26.3417L20.3771 27.1086C20.796 26.9257 21.207 26.7212 21.6042 26.4971Z" fill="black"/>
<path fill-rule="evenodd" clip-rule="evenodd" d="M24.4303 24.3692L23.8443 23.7832C23.5454 24.0762 23.2307 24.3554 22.9043 24.6189L23.4077 25.2777C23.7636 24.9926 24.1058 24.6897 24.4303 24.3692Z" fill="black"/>
<path fill-rule="evenodd" clip-rule="evenodd" d="M25.5997 23.0601L24.9429 22.5547C24.6912 22.8772 24.4238 23.1859 24.1406 23.4809L24.7266 24.0669C25.0334 23.7464 25.3244 23.4101 25.5997 23.0601Z" fill="black"/>
<path fill-rule="evenodd" clip-rule="evenodd" d="M26.6052 21.5848L25.8875 21.1699C25.6751 21.5318 25.4431 21.8818 25.1973 22.22L25.8541 22.7254C26.1235 22.3596 26.3752 21.9801 26.6052 21.5848Z" fill="black"/>
<path fill-rule="evenodd" clip-rule="evenodd" d="M12.8284 29.3848C12.3269 29.3101 11.8334 29.2118 11.3496 29.0899L11.5817 28.2227C12.028 28.3367 12.4843 28.4272 12.9464 28.496L12.8284 29.3848Z" fill="black"/>
<path fill-rule="evenodd" clip-rule="evenodd" d="M14.7312 30.5C14.21 30.4921 13.6948 30.4508 13.1895 30.382L13.3173 29.3477C13.7853 29.4125 14.2592 29.4479 14.741 29.4578L14.7312 30.5Z" fill="black"/>
<path fill-rule="evenodd" clip-rule="evenodd" d="M16.6665 28.7736C16.1709 28.8306 15.6695 28.8641 15.1621 28.87V27.9733C15.6321 27.9654 16.0942 27.9359 16.5524 27.8828L16.6665 28.7736Z" fill="black"/>
<path fill-rule="evenodd" clip-rule="evenodd" d="M18.6536 29.0879C18.1581 29.2138 17.6508 29.3141 17.1375 29.3888L17.0215 28.4999C17.4974 28.4311 17.9634 28.3367 18.4216 28.2207L18.6536 29.0879Z" fill="black"/>
<path fill-rule="evenodd" clip-rule="evenodd" d="M20.4878 28.49C20.0237 28.6768 19.5478 28.84 19.0621 28.9777L18.8301 28.1105C19.2784 27.9827 19.7189 27.8312 20.1476 27.6602L20.4878 28.49Z" fill="black"/>
<path fill-rule="evenodd" clip-rule="evenodd" d="M22.2637 27.6381C21.8173 27.8918 21.3552 28.1218 20.8793 28.3263L20.5371 27.4985C20.9756 27.3077 21.4004 27.0953 21.8153 26.8613L22.2637 27.6381Z" fill="black"/>
<path fill-rule="evenodd" clip-rule="evenodd" d="M23.8748 26.5849C23.4736 26.8858 23.0567 27.167 22.6261 27.4266L22.1777 26.6498C22.575 26.4099 22.9584 26.1503 23.3281 25.8711L23.8748 26.5849Z" fill="black"/>
<path fill-rule="evenodd" clip-rule="evenodd" d="M26.6438 23.865C26.3351 24.2603 26.0067 24.6398 25.6586 24.9997L25.0254 24.3665C25.3459 24.0322 25.6488 23.6822 25.9339 23.3184L26.6438 23.865Z" fill="black"/>
<path fill-rule="evenodd" clip-rule="evenodd" d="M27.7469 22.2452C27.4854 22.6897 27.2022 23.1183 26.8974 23.5313L26.1875 22.9846C26.4687 22.6031 26.7302 22.2059 26.9701 21.7969L27.7469 22.2452Z" fill="black"/>
<path fill-rule="evenodd" clip-rule="evenodd" d="M28.6132 20.5297C28.4166 20.9918 28.1983 21.4421 27.9584 21.8787L27.1816 21.4303C27.4019 21.0272 27.6044 20.6123 27.7853 20.1855L28.6132 20.5297Z" fill="black"/>
<path fill-rule="evenodd" clip-rule="evenodd" d="M29.102 23.0426C28.8011 23.5538 28.4747 24.0474 28.1247 24.5233L27.3066 23.894C27.6291 23.4555 27.93 22.9993 28.2073 22.5273L29.102 23.0426Z" fill="black"/>
<path fill-rule="evenodd" clip-rule="evenodd" d="M7.32617 6.67249L7.90431 7.25063C8.12455 7.04218 8.35463 6.84357 8.59454 6.65479L8.09899 6.00586C7.82959 6.21627 7.57198 6.43848 7.32617 6.67249Z" fill="black"/>
<path fill-rule="evenodd" clip-rule="evenodd" d="M6.31055 7.68081L6.95751 8.17832C7.14433 7.95021 7.34294 7.728 7.54942 7.51759L6.97128 6.93945C6.7412 7.17739 6.52096 7.42517 6.31055 7.68081Z" fill="black"/>
<path fill-rule="evenodd" clip-rule="evenodd" d="M5.35352 8.79869L6.06144 9.20771C6.22269 8.94814 6.39574 8.69447 6.57862 8.45259L5.93165 7.95508C5.72714 8.22645 5.53443 8.50765 5.35352 8.79869Z" fill="black"/>
<path fill-rule="evenodd" clip-rule="evenodd" d="M4.9668 10.2443L5.72192 10.557C5.8458 10.2856 5.97952 10.0201 6.12701 9.76253L5.41908 9.35547C5.25587 9.64257 5.10445 9.93951 4.9668 10.2443Z" fill="black"/>
<path fill-rule="evenodd" clip-rule="evenodd" d="M4.45898 11.6003L5.24753 11.8127C5.33799 11.5177 5.44025 11.2286 5.5543 10.9455L4.80115 10.6328C4.67136 10.9474 4.55731 11.2699 4.45898 11.6003Z" fill="black"/>
<path fill-rule="evenodd" clip-rule="evenodd" d="M4.13867 12.9871L4.94885 13.0953C4.99801 12.7983 5.06094 12.5073 5.1337 12.2182L4.34515 12.0078C4.26256 12.3283 4.19373 12.6548 4.13867 12.9871Z" fill="black"/>
<path fill-rule="evenodd" clip-rule="evenodd" d="M4.04723 15.8584L4.85742 15.7522C4.82989 15.4553 4.81415 15.1564 4.81022 14.8535H3.99414C3.99611 15.1937 4.0138 15.528 4.04723 15.8584Z" fill="black"/>
<path fill-rule="evenodd" clip-rule="evenodd" d="M4.28839 17.2947L5.07694 17.0824C5.00811 16.7835 4.95109 16.4787 4.90979 16.1699L4.09961 16.2761C4.1468 16.6222 4.20973 16.9624 4.28839 17.2947Z" fill="black"/>
<path fill-rule="evenodd" clip-rule="evenodd" d="M4.70329 18.6661L5.45841 18.3554C5.35222 18.0742 5.2598 17.7871 5.17918 17.4961L4.39062 17.7065C4.48108 18.0329 4.58531 18.3515 4.70329 18.6661Z" fill="black"/>
<path fill-rule="evenodd" clip-rule="evenodd" d="M5.31165 19.9948L6.01957 19.5858C5.87209 19.3124 5.73837 19.0312 5.61645 18.7441L4.86133 19.0548C4.99701 19.3773 5.14646 19.69 5.31165 19.9948Z" fill="black"/>
<path fill-rule="evenodd" clip-rule="evenodd" d="M6.07603 21.2097L6.72496 20.7141C6.54798 20.4683 6.38279 20.2147 6.22941 19.9551L5.52148 20.3641C5.69257 20.6532 5.87741 20.9363 6.07603 21.2097Z" fill="black"/>
<path fill-rule="evenodd" clip-rule="evenodd" d="M7.00852 22.3369L7.58666 21.7587C7.37231 21.5326 7.16977 21.2946 6.97706 21.0488L6.32812 21.5444C6.54247 21.8216 6.77058 22.0851 7.00852 22.3369Z" fill="black"/>
<path fill-rule="evenodd" clip-rule="evenodd" d="M8.06373 23.3171L8.56124 22.6701C8.32527 22.4774 8.09912 22.2749 7.88281 22.0625L7.30664 22.6387C7.54655 22.8766 7.80022 23.1028 8.06373 23.3171Z" fill="black"/>
<path fill-rule="evenodd" clip-rule="evenodd" d="M7.81836 4.90663L8.29031 5.52213C8.57151 5.31762 8.86255 5.1249 9.16342 4.94792L8.77602 4.27539C8.44566 4.47204 8.12709 4.68245 7.81836 4.90663Z" fill="black"/>
<path fill-rule="evenodd" clip-rule="evenodd" d="M6.26758 5.60092L6.81622 6.14956C7.07579 5.90375 7.34716 5.66778 7.63033 5.44753L7.15838 4.83203C6.84965 5.07391 6.55075 5.32955 6.26758 5.60092Z" fill="black"/>
<path fill-rule="evenodd" clip-rule="evenodd" d="M5.29492 6.88666L5.91042 7.36058C6.13067 7.0892 6.36468 6.82766 6.60852 6.57989L6.05987 6.03125C5.79244 6.30262 5.5368 6.58972 5.29492 6.88666Z" fill="black"/>
<path fill-rule="evenodd" clip-rule="evenodd" d="M4.06836 8.0613L4.74089 8.4487C4.92967 8.14193 5.13418 7.84302 5.35049 7.55789L4.73695 7.08594C4.49705 7.3986 4.27484 7.72504 4.06836 8.0613Z" fill="black"/>
<path fill-rule="evenodd" clip-rule="evenodd" d="M3.86133 9.78236L4.57712 10.0793C4.72264 9.75876 4.87995 9.4461 5.053 9.1413L4.38047 8.75391C4.19366 9.0882 4.01864 9.43036 3.86133 9.78236Z" fill="black"/>
<path fill-rule="evenodd" clip-rule="evenodd" d="M3.30273 11.2888L4.05196 11.4894C4.15618 11.1413 4.27613 10.8011 4.41182 10.4688L3.69603 10.1719C3.54658 10.5357 3.41482 10.9073 3.30273 11.2888Z" fill="black"/>
<path fill-rule="evenodd" clip-rule="evenodd" d="M2.95312 12.8299L3.72201 12.9322C3.77904 12.5822 3.8518 12.238 3.93832 11.8998L3.1891 11.6992C3.09274 12.0689 3.01409 12.4465 2.95312 12.8299Z" fill="black"/>
<path fill-rule="evenodd" clip-rule="evenodd" d="M2.80469 14.4319H3.58144C3.59127 14.0661 3.6188 13.7043 3.66403 13.3464L2.89515 13.2441C2.84598 13.6355 2.81452 14.0327 2.80469 14.4319Z" fill="black"/>
<path fill-rule="evenodd" clip-rule="evenodd" d="M2.85979 16.0137L3.62867 15.9134C3.59328 15.5654 3.57558 15.2114 3.57361 14.8555H2.79883C2.80079 15.2448 2.82046 15.6322 2.85979 16.0137Z" fill="black"/>
<path fill-rule="evenodd" clip-rule="evenodd" d="M3.13039 17.6063L3.87961 17.4057C3.79702 17.0537 3.73016 16.6958 3.681 16.332L2.91211 16.4323C2.9652 16.8295 3.03796 17.2209 3.13039 17.6063Z" fill="black"/>
<path fill-rule="evenodd" clip-rule="evenodd" d="M3.5962 19.1222L4.31396 18.8252C4.18811 18.4949 4.07799 18.1586 3.9836 17.8145L3.23438 18.015C3.3386 18.3926 3.45855 18.7603 3.5962 19.1222Z" fill="black"/>
<path fill-rule="evenodd" clip-rule="evenodd" d="M4.27697 20.5933L4.9495 20.2059C4.77645 19.8854 4.61717 19.555 4.47362 19.2188L3.75586 19.5137C3.91318 19.8834 4.08622 20.2433 4.27697 20.5933Z" fill="black"/>
<path fill-rule="evenodd" clip-rule="evenodd" d="M5.12155 21.9389L5.73705 21.467C5.52861 21.1799 5.33393 20.881 5.15104 20.5742L4.47852 20.9616C4.68106 21.2979 4.89344 21.6243 5.12155 21.9389Z" fill="black"/>
<path fill-rule="evenodd" clip-rule="evenodd" d="M6.16157 23.1851L6.71021 22.6365C6.45851 22.371 6.2186 22.0938 5.99245 21.8047L5.37695 22.2766C5.62276 22.5913 5.8843 22.8941 6.16157 23.1851Z" fill="black"/>
<path fill-rule="evenodd" clip-rule="evenodd" d="M7.33406 24.2649L7.80798 23.6494C7.5307 23.4252 7.26327 23.1873 7.00763 22.9355L6.45898 23.4842C6.73822 23.7595 7.02926 24.0191 7.33406 24.2649Z" fill="black"/>
<path fill-rule="evenodd" clip-rule="evenodd" d="M7.05664 3.91308L7.56005 4.57185C7.88255 4.33587 8.21685 4.11563 8.56098 3.91112L8.14606 3.19336C7.77047 3.41557 7.40667 3.65548 7.05664 3.91308Z" fill="black"/>
<path fill-rule="evenodd" clip-rule="evenodd" d="M4.07812 5.95389L4.73492 6.45927C4.98859 6.1466 5.25603 5.8477 5.53527 5.56257L4.94927 4.97656C4.64447 5.28726 4.35146 5.6137 4.07812 5.95389Z" fill="black"/>
<path fill-rule="evenodd" clip-rule="evenodd" d="M2.58789 7.16184L3.30762 7.57677C3.52393 7.22477 3.75597 6.88261 4.00571 6.55421L3.34891 6.04883C3.07557 6.40672 2.8219 6.77642 2.58789 7.16184Z" fill="black"/>
<path fill-rule="evenodd" clip-rule="evenodd" d="M2.70898 9.30288L3.4759 9.62145C3.64109 9.25373 3.822 8.89386 4.02061 8.54383L3.30286 8.12891C3.08458 8.5104 2.88793 8.90172 2.70898 9.30288Z" fill="black"/>
<path fill-rule="evenodd" clip-rule="evenodd" d="M2.0957 10.9676L2.89605 11.182C3.01404 10.7828 3.15169 10.3934 3.30704 10.0119L2.54012 9.69336C2.37101 10.1063 2.22352 10.533 2.0957 10.9676Z" fill="black"/>
<path fill-rule="evenodd" clip-rule="evenodd" d="M1.71289 12.663L2.53487 12.7732C2.59976 12.372 2.68235 11.9768 2.78264 11.5874L1.98229 11.373C1.87217 11.7939 1.78172 12.2245 1.71289 12.663Z" fill="black"/>
<path fill-rule="evenodd" clip-rule="evenodd" d="M1.42383 14.431H2.25367C2.26547 14.0122 2.29497 13.5973 2.34806 13.1882L1.52608 13.0781C1.46906 13.5245 1.43563 13.9748 1.42383 14.431Z" fill="black"/>
<path fill-rule="evenodd" clip-rule="evenodd" d="M1.62159 16.175L2.44357 16.0668C2.40227 15.6676 2.38064 15.2625 2.37867 14.8535H1.54883C1.55079 15.2999 1.57636 15.7404 1.62159 16.175Z" fill="black"/>
<path fill-rule="evenodd" clip-rule="evenodd" d="M1.92357 17.9277L2.72588 17.7134C2.62953 17.3122 2.55284 16.9013 2.49581 16.4863L1.67383 16.5945C1.73282 17.0448 1.81738 17.4912 1.92357 17.9277Z" fill="black"/>
<path fill-rule="evenodd" clip-rule="evenodd" d="M2.44225 19.5998L3.20917 19.2832C3.06365 18.9057 2.9378 18.5183 2.82965 18.125L2.0293 18.3393C2.14532 18.768 2.28297 19.1889 2.44225 19.5998Z" fill="black"/>
<path fill-rule="evenodd" clip-rule="evenodd" d="M3.19348 21.2175L3.91124 20.8026C3.71262 20.4368 3.52974 20.0593 3.36653 19.6719L2.59961 19.9885C2.77856 20.4093 2.97717 20.8203 3.19348 21.2175Z" fill="black"/>
<path fill-rule="evenodd" clip-rule="evenodd" d="M4.12995 22.6978L4.78871 22.1944C4.5488 21.866 4.32463 21.5239 4.11815 21.1719L3.40039 21.5868C3.62653 21.9703 3.87037 22.34 4.12995 22.6978Z" fill="black"/>
<path fill-rule="evenodd" clip-rule="evenodd" d="M5.27754 24.0671L5.86354 23.4811C5.57447 23.1782 5.30114 22.8597 5.04353 22.5293L4.38477 23.0327C4.66597 23.3945 4.9629 23.7387 5.27754 24.0671Z" fill="black"/>
<path fill-rule="evenodd" clip-rule="evenodd" d="M6.57317 25.2561L7.07855 24.5993C6.75998 24.3417 6.45518 24.0703 6.16218 23.7832L5.57617 24.3692C5.89474 24.6819 6.2251 24.9768 6.57317 25.2561Z" fill="black"/>
<path fill-rule="evenodd" clip-rule="evenodd" d="M8.03894 26.2831L8.45386 25.5653C8.094 25.3471 7.74594 25.1091 7.40968 24.8574L6.9043 25.5142C7.26809 25.7895 7.64762 26.0452 8.03894 26.2831Z" fill="black"/>
<path fill-rule="evenodd" clip-rule="evenodd" d="M4.48633 3.78408C4.85012 3.43405 5.23358 3.10172 5.63277 2.79102L6.17748 3.50287C5.80975 3.78998 5.45776 4.09478 5.11953 4.41728L4.48633 3.78408Z" fill="black"/>
<path fill-rule="evenodd" clip-rule="evenodd" d="M2.88086 4.98212C3.19156 4.59669 3.51996 4.227 3.86606 3.875L4.49926 4.5082C4.18069 4.83267 3.87785 5.17286 3.59075 5.52683L2.88086 4.98212Z" fill="black"/>
<path fill-rule="evenodd" clip-rule="evenodd" d="M0.931641 6.16869C1.19515 5.7341 1.48225 5.31525 1.78902 4.91016L2.49891 5.45683C2.21574 5.82849 1.95223 6.21588 1.70839 6.61704L0.931641 6.16869Z" fill="black"/>
<path fill-rule="evenodd" clip-rule="evenodd" d="M1.31445 8.71602C1.51503 8.26176 1.73921 7.81931 1.98305 7.39062L2.7598 7.83898C2.53562 8.23424 2.32915 8.64326 2.14233 9.06015L1.31445 8.71602Z" fill="black"/>
<path fill-rule="evenodd" clip-rule="evenodd" d="M0.404297 12.4884C0.480989 11.9948 0.583245 11.5071 0.707132 11.0293L1.57237 11.2613C1.45832 11.7018 1.36393 12.1502 1.29314 12.6064L0.404297 12.4884Z" fill="black"/>
<path fill-rule="evenodd" clip-rule="evenodd" d="M0.311107 16.346C0.258012 15.8564 0.230482 15.3589 0.228516 14.8555H1.12522C1.12719 15.3196 1.15275 15.7777 1.19995 16.23L0.311107 16.346Z" fill="black"/>
<path fill-rule="evenodd" clip-rule="evenodd" d="M1.21997 20.103C1.04102 19.6389 0.883706 19.165 0.751953 18.6813L1.6172 18.4492C1.73912 18.8956 1.88463 19.3341 2.04785 19.7608L1.21997 20.103Z" fill="black"/>
<path fill-rule="evenodd" clip-rule="evenodd" d="M2.04752 21.8789C1.80171 21.4305 1.57753 20.9684 1.37695 20.4945L2.2068 20.1523C2.39165 20.5909 2.59812 21.0176 2.82427 21.4305L2.04752 21.8789Z" fill="black"/>
<path fill-rule="evenodd" clip-rule="evenodd" d="M4.34472 25.0018C3.98879 24.6321 3.65252 24.2428 3.33789 23.8357L4.04975 23.291C4.34079 23.6646 4.65149 24.0245 4.97988 24.3667L4.34472 25.0018Z" fill="black"/>
<path fill-rule="evenodd" clip-rule="evenodd" d="M7.37977 27.4267C6.93732 27.1593 6.5106 26.8702 6.09961 26.5595L6.64629 25.8496C7.02581 26.1367 7.4191 26.4042 7.82813 26.65L7.37977 27.4267Z" fill="black"/>
<path fill-rule="evenodd" clip-rule="evenodd" d="M9.09118 28.3126C8.62906 28.11 8.17874 27.8859 7.74219 27.6381L8.19054 26.8613C8.59366 27.0894 9.00859 27.2959 9.43531 27.4847L9.09118 28.3126Z" fill="black"/>
<path fill-rule="evenodd" clip-rule="evenodd" d="M1.44336 3.86561C1.78159 3.44479 2.13949 3.04166 2.51901 2.6582L3.21121 3.3504C2.86314 3.70436 2.53278 4.07602 2.22011 4.46341L1.44336 3.86561Z" fill="black"/>
<path fill-rule="evenodd" clip-rule="evenodd" d="M8.54492 5.85526L9.04047 6.50419C9.27841 6.33114 9.52618 6.16989 9.77986 6.01847L9.37083 5.31055C9.08766 5.47966 8.81236 5.66254 8.54492 5.85526Z" fill="black"/>
<path fill-rule="evenodd" clip-rule="evenodd" d="M24.5888 9.35547L23.8809 9.7645C24.0303 10.03 24.1699 10.3033 24.2958 10.5825L25.0509 10.2718C24.9113 9.95721 24.7559 9.65044 24.5888 9.35547Z" fill="black"/>
<path fill-rule="evenodd" clip-rule="evenodd" d="M22.8692 7.07422L22.291 7.65236C22.5034 7.87063 22.7059 8.09678 22.8987 8.33275L23.5476 7.8372C23.3352 7.57173 23.1071 7.31806 22.8692 7.07422Z" fill="black"/>
<path fill-rule="evenodd" clip-rule="evenodd" d="M21.8178 6.12695L21.3203 6.77392C21.5524 6.9568 21.7765 7.15148 21.9909 7.35402L22.569 6.77589C22.3291 6.54974 22.0794 6.33343 21.8178 6.12695Z" fill="black"/>
<path fill-rule="evenodd" clip-rule="evenodd" d="M20.6336 5.31055L20.2246 6.01847C20.4861 6.17579 20.7398 6.34294 20.9856 6.51992L21.4831 5.87295C21.2118 5.67238 20.9266 5.48556 20.6336 5.31055Z" fill="black"/>
<path fill-rule="evenodd" clip-rule="evenodd" d="M19.3771 4.66797L19.0645 5.42112C19.3358 5.53911 19.6013 5.6689 19.8589 5.80852L20.2679 5.10059C19.9789 4.94524 19.6819 4.79972 19.3771 4.66797Z" fill="black"/>
<path fill-rule="evenodd" clip-rule="evenodd" d="M18.0229 4.18555L17.8125 4.9741C18.1055 5.05865 18.3926 5.15501 18.6738 5.26317L18.9865 4.51001C18.6738 4.38612 18.3513 4.27797 18.0229 4.18555Z" fill="black"/>
<path fill-rule="evenodd" clip-rule="evenodd" d="M16.6453 3.88477L16.5371 4.69298C16.8301 4.73624 17.1192 4.79327 17.4024 4.8621L17.6147 4.07355C17.2962 3.99882 16.9737 3.93393 16.6453 3.88477Z" fill="black"/>
<path fill-rule="evenodd" clip-rule="evenodd" d="M15.2129 3.76562V4.58171C15.5177 4.58761 15.8205 4.60727 16.1175 4.6407L16.2256 3.83052C15.8913 3.79512 15.5531 3.77349 15.2129 3.76562Z" fill="black"/>
<path fill-rule="evenodd" clip-rule="evenodd" d="M13.834 4.01018L13.9402 4.82036C14.2292 4.7889 14.5242 4.7712 14.8192 4.7653V3.94922C14.4888 3.95512 14.1585 3.97478 13.834 4.01018Z" fill="black"/>
<path fill-rule="evenodd" clip-rule="evenodd" d="M12.3887 4.07554L12.5991 4.86409C12.8921 4.7933 13.189 4.73627 13.4899 4.69104L13.3837 3.88086C13.0494 3.93199 12.7171 3.99688 12.3887 4.07554Z" fill="black"/>
<path fill-rule="evenodd" clip-rule="evenodd" d="M11.0449 4.49821L11.3556 5.25333C11.629 5.14911 11.9082 5.05472 12.1933 4.9741L11.981 4.18555C11.6644 4.276 11.3517 4.38023 11.0449 4.49821Z" fill="black"/>
<path fill-rule="evenodd" clip-rule="evenodd" d="M9.73633 5.10262L10.1453 5.81055C10.4108 5.667 10.6842 5.53328 10.9634 5.41332L10.6527 4.6582C10.3381 4.79192 10.0333 4.94137 9.73633 5.10262Z" fill="black"/>
<path fill-rule="evenodd" clip-rule="evenodd" d="M26.083 10.2891L25.3652 10.584C25.497 10.9085 25.613 11.2389 25.7133 11.5771L26.4625 11.3765C26.3544 11.0068 26.2265 10.643 26.083 10.2891Z" fill="black"/>
<path fill-rule="evenodd" clip-rule="evenodd" d="M25.6217 8.75391L24.9512 9.1413C25.1282 9.45397 25.2914 9.77647 25.4389 10.1068L26.1566 9.80989C25.9954 9.45003 25.8164 9.09607 25.6217 8.75391Z" fill="black"/>
<path fill-rule="evenodd" clip-rule="evenodd" d="M24.7581 7.44141L24.1426 7.91336C24.353 8.1926 24.5496 8.48167 24.7345 8.78057L25.407 8.39317C25.2045 8.06478 24.9882 7.74817 24.7581 7.44141Z" fill="black"/>
<path fill-rule="evenodd" clip-rule="evenodd" d="M23.7147 6.22852L23.166 6.77716C23.4177 7.0328 23.6557 7.3022 23.8818 7.58144L24.4973 7.10949C24.2515 6.80272 23.99 6.50972 23.7147 6.22852Z" fill="black"/>
<path fill-rule="evenodd" clip-rule="evenodd" d="M22.5481 5.17969L22.0762 5.79322C22.3495 6.00953 22.615 6.23764 22.8667 6.47755L23.4153 5.92891C23.1381 5.66737 22.849 5.41763 22.5481 5.17969Z" fill="black"/>
<path fill-rule="evenodd" clip-rule="evenodd" d="M21.2292 4.27539L20.8418 4.94792C21.1505 5.13277 21.4494 5.32941 21.7385 5.54179L22.2124 4.92629C21.8958 4.69425 21.5694 4.47794 21.2292 4.27539Z" fill="black"/>
<path fill-rule="evenodd" clip-rule="evenodd" d="M19.838 3.5625L19.541 4.27829C19.8615 4.41791 20.1742 4.56933 20.479 4.73648L20.8664 4.06395C20.5321 3.88303 20.1899 3.71392 19.838 3.5625Z" fill="black"/>
<path fill-rule="evenodd" clip-rule="evenodd" d="M18.3334 3.0293L18.1328 3.77852C18.4789 3.87684 18.8171 3.9909 19.1495 4.12068L19.4464 3.40489C19.0826 3.26134 18.7129 3.13745 18.3334 3.0293Z" fill="black"/>
<path fill-rule="evenodd" clip-rule="evenodd" d="M16.8034 2.69922L16.7012 3.46811C17.0473 3.51923 17.3894 3.58609 17.7237 3.66868L17.9243 2.91946C17.5566 2.829 17.183 2.75625 16.8034 2.69922Z" fill="black"/>
<path fill-rule="evenodd" clip-rule="evenodd" d="M15.2129 2.57031V3.3451C15.5728 3.351 15.9287 3.3746 16.2807 3.41393L16.3829 2.64504C15.9975 2.60178 15.6062 2.57621 15.2129 2.57031Z" fill="black"/>
<path fill-rule="evenodd" clip-rule="evenodd" d="M13.6855 2.92236L13.7858 3.69124C14.128 3.65388 14.4741 3.63225 14.8261 3.62635V2.85156C14.4407 2.85746 14.0592 2.88106 13.6855 2.92236Z" fill="black"/>
<path fill-rule="evenodd" clip-rule="evenodd" d="M12.0801 2.91949L12.2807 3.66871C12.6248 3.58415 12.9768 3.51533 13.3327 3.4642L13.2324 2.69531C12.8411 2.75234 12.4576 2.82707 12.0801 2.91949Z" fill="black"/>
<path fill-rule="evenodd" clip-rule="evenodd" d="M10.5879 3.39309L10.8848 4.11085C11.2073 3.98696 11.5377 3.87487 11.874 3.77852L11.6734 3.0293C11.3037 3.13352 10.9419 3.25544 10.5879 3.39309Z" fill="black"/>
<path fill-rule="evenodd" clip-rule="evenodd" d="M9.14062 4.06599L9.52802 4.73852C9.84068 4.56744 10.1632 4.41012 10.4935 4.26854L10.1966 3.55078C9.83478 3.70613 9.48279 3.87721 9.14062 4.06599Z" fill="black"/>
<path fill-rule="evenodd" clip-rule="evenodd" d="M27.14 9.83984L26.373 10.1564C26.5225 10.5281 26.6562 10.9096 26.7722 11.297L27.5746 11.0826C27.4467 10.6579 27.3032 10.2449 27.14 9.83984Z" fill="black"/>
<path fill-rule="evenodd" clip-rule="evenodd" d="M25.7525 6.68164L25.0938 7.18505C25.3356 7.50559 25.5618 7.83792 25.7722 8.18008L26.4899 7.76516C26.2618 7.3935 26.016 7.0297 25.7525 6.68164Z" fill="black"/>
<path fill-rule="evenodd" clip-rule="evenodd" d="M24.5997 5.34375L24.0137 5.92975C24.3027 6.22276 24.5761 6.53149 24.8337 6.85202L25.4924 6.34861C25.2112 5.99858 24.9143 5.66232 24.5997 5.34375Z" fill="black"/>
<path fill-rule="evenodd" clip-rule="evenodd" d="M23.3101 4.1875L22.8047 4.8443C23.1193 5.09207 23.4222 5.35558 23.7132 5.63088L24.2992 5.04487C23.9826 4.74401 23.6542 4.4569 23.3101 4.1875Z" fill="black"/>
<path fill-rule="evenodd" clip-rule="evenodd" d="M21.8583 3.19141L21.4434 3.90916C21.7973 4.11957 22.1415 4.34768 22.4718 4.58956L22.9772 3.93276C22.6173 3.66926 22.2437 3.42148 21.8583 3.19141Z" fill="black"/>
<path fill-rule="evenodd" clip-rule="evenodd" d="M20.3166 2.4082L19.998 3.17512C20.3658 3.3344 20.7256 3.50942 21.0757 3.70213L21.4906 2.98437C21.1091 2.772 20.7178 2.58125 20.3166 2.4082Z" fill="black"/>
<path fill-rule="evenodd" clip-rule="evenodd" d="M16.9695 1.46094L16.8594 2.28292C17.2566 2.34191 17.6499 2.4186 18.0334 2.51299L18.2477 1.71264C17.8308 1.60842 17.4021 1.52386 16.9695 1.46094Z" fill="black"/>
<path fill-rule="evenodd" clip-rule="evenodd" d="M15.2129 1.32031V2.15016C15.6258 2.15606 16.0349 2.18359 16.438 2.22882L16.5481 1.40684C16.1076 1.35768 15.6632 1.32818 15.2129 1.32031Z" fill="black"/>
<path fill-rule="evenodd" clip-rule="evenodd" d="M11.7559 1.71268L11.9702 2.51303C12.3655 2.41668 12.7686 2.33605 13.1776 2.27706L13.0714 1.45508C12.625 1.51997 12.1865 1.6065 11.7559 1.71268Z" fill="black"/>
<path fill-rule="evenodd" clip-rule="evenodd" d="M10.1094 2.23524L10.426 3.00215C10.7957 2.8586 11.1752 2.73078 11.5626 2.62066L11.3482 1.82031C10.9255 1.9383 10.5125 2.07792 10.1094 2.23524Z" fill="black"/>
<path fill-rule="evenodd" clip-rule="evenodd" d="M8.51367 2.98252L8.92859 3.70027C9.28649 3.50363 9.65618 3.32271 10.0357 3.1595L9.71911 2.39258C9.30615 2.57153 8.90303 2.76817 8.51367 2.98252Z" fill="black"/>
<path fill-rule="evenodd" clip-rule="evenodd" d="M13.3535 0.631486C13.8373 0.576425 14.3289 0.544962 14.8264 0.539062V1.43577C14.3682 1.44364 13.9159 1.47116 13.4695 1.52229L13.3535 0.631486Z" fill="black"/>
<path fill-rule="evenodd" clip-rule="evenodd" d="M9.60742 1.01491C10.0636 0.835958 10.5317 0.678641 11.0075 0.544922L11.2396 1.41213C10.8011 1.53602 10.3704 1.67957 9.94959 1.84475L9.60742 1.01491Z" fill="black"/>
<path fill-rule="evenodd" clip-rule="evenodd" d="M7.85352 1.84046C8.294 1.59662 8.74826 1.37441 9.21431 1.17383L9.55647 2.00367C9.12581 2.18655 8.70696 2.39303 8.30187 2.61721L7.85352 1.84046Z" fill="black"/>
<path fill-rule="evenodd" clip-rule="evenodd" d="M28.2693 9.39062C28.4541 9.84684 28.6173 10.3168 28.7589 10.7947L27.8917 11.0267C27.7619 10.5862 27.6125 10.1536 27.4414 9.73279L28.2693 9.39062Z" fill="black"/>
<path fill-rule="evenodd" clip-rule="evenodd" d="M27.8471 7.4707C28.0968 7.91119 28.3269 8.36544 28.5314 8.83149L27.7015 9.17366C27.5108 8.74301 27.3004 8.32415 27.0703 7.91906L27.8471 7.4707Z" fill="black"/>
<path fill-rule="evenodd" clip-rule="evenodd" d="M26.7997 5.87891C27.0967 6.2722 27.3759 6.68122 27.6335 7.10598L26.8568 7.55433C26.6188 7.16497 26.3632 6.78741 26.0879 6.42362L26.7997 5.87891Z" fill="black"/>
<path fill-rule="evenodd" clip-rule="evenodd" d="M25.5336 4.41016C25.8895 4.77002 26.2258 5.14955 26.5424 5.5448L25.8305 6.08951C25.5375 5.72572 25.2268 5.37569 24.9004 5.04336L25.5336 4.41016Z" fill="black"/>
<path fill-rule="evenodd" clip-rule="evenodd" d="M22.5167 2.04883C22.9533 2.30643 23.3741 2.58764 23.7811 2.88851L23.2345 3.5984C22.8589 3.32113 22.4715 3.06352 22.0684 2.82558L22.5167 2.04883Z" fill="black"/>
<path fill-rule="evenodd" clip-rule="evenodd" d="M20.8226 1.18945C21.2769 1.38413 21.7194 1.60241 22.15 1.84035L21.7017 2.6171C21.3064 2.39882 20.8974 2.19825 20.4785 2.01733L20.8226 1.18945Z" fill="black"/>
<path fill-rule="evenodd" clip-rule="evenodd" d="M18.9977 0.544922C19.4873 0.682574 19.9652 0.843825 20.4332 1.02867L20.0891 1.85852C19.6584 1.6894 19.2179 1.53995 18.7656 1.4141L18.9977 0.544922Z" fill="black"/>
<path fill-rule="evenodd" clip-rule="evenodd" d="M17.1414 0.154297C17.633 0.225089 18.1148 0.321445 18.5887 0.439433L18.3567 1.30664C17.9201 1.19849 17.4757 1.11 17.0234 1.0451L17.1414 0.154297Z" fill="black"/>
<path fill-rule="evenodd" clip-rule="evenodd" d="M15.2129 0C15.7222 0.00786584 16.2256 0.0393292 16.7231 0.098323L16.6051 0.98716C16.147 0.934066 15.6829 0.904571 15.2149 0.896705V0H15.2129Z" fill="black"/>
<path fill-rule="evenodd" clip-rule="evenodd" d="M25.1328 19.0822L24.3796 18.7695C24.2597 19.0488 24.1299 19.3201 23.9863 19.5856L24.6943 19.9946C24.8516 19.6977 24.9991 19.3949 25.1328 19.0822Z" fill="black"/>
<path fill-rule="evenodd" clip-rule="evenodd" d="M25.6147 17.7045L24.8262 17.4941C24.7436 17.795 24.6472 18.09 24.5371 18.379L25.2922 18.6917C25.4141 18.3692 25.5223 18.0408 25.6147 17.7045Z" fill="black"/>
<path fill-rule="evenodd" clip-rule="evenodd" d="M25.9031 16.3035L25.0929 16.1953C25.0516 16.4962 24.9966 16.7912 24.9277 17.0822L25.7163 17.2946C25.7949 16.9701 25.8579 16.6397 25.9031 16.3035Z" fill="black"/>
<path fill-rule="evenodd" clip-rule="evenodd" d="M26.0078 14.8555H25.1917C25.1898 15.1681 25.1721 15.4769 25.1426 15.7817L25.9528 15.8898C25.9862 15.5477 26.0059 15.2035 26.0078 14.8555Z" fill="black"/>
<path fill-rule="evenodd" clip-rule="evenodd" d="M25.9293 13.4336L25.1191 13.5398C25.1545 13.8348 25.1781 14.1337 25.188 14.4345H26.004C25.9942 14.0963 25.9706 13.762 25.9293 13.4336Z" fill="black"/>
<path fill-rule="evenodd" clip-rule="evenodd" d="M25.7749 11.9707L24.9863 12.1811C25.063 12.4761 25.1259 12.7769 25.1751 13.0837L25.9853 12.9775C25.9302 12.6373 25.8594 12.3011 25.7749 11.9707Z" fill="black"/>
<path fill-rule="evenodd" clip-rule="evenodd" d="M26.2365 19.543L25.5207 19.2461C25.3811 19.5745 25.2258 19.895 25.0566 20.2057L25.7292 20.5931C25.916 20.2529 26.0851 19.9029 26.2365 19.543Z" fill="black"/>
<path fill-rule="evenodd" clip-rule="evenodd" d="M26.7691 18.015L26.0199 17.8145C25.9216 18.1684 25.8075 18.5145 25.6797 18.8527L26.3955 19.1497C26.5371 18.78 26.6629 18.4024 26.7691 18.015Z" fill="black"/>
<path fill-rule="evenodd" clip-rule="evenodd" d="M27.0905 16.4636L26.3216 16.3613C26.2725 16.7153 26.2076 17.0634 26.125 17.4055L26.8742 17.6061C26.9647 17.2305 27.0355 16.851 27.0905 16.4636Z" fill="black"/>
<path fill-rule="evenodd" clip-rule="evenodd" d="M27.2029 14.8555H26.4281C26.4262 15.2232 26.4065 15.585 26.3691 15.9429L27.138 16.0452C27.1793 15.6538 27.201 15.2566 27.2029 14.8555Z" fill="black"/>
<path fill-rule="evenodd" clip-rule="evenodd" d="M27.1146 13.2773L26.3457 13.3776C26.387 13.7237 26.4145 14.0757 26.4244 14.4317H27.2011C27.1893 14.0423 27.1598 13.6569 27.1146 13.2773Z" fill="black"/>
<path fill-rule="evenodd" clip-rule="evenodd" d="M27.0363 11.6426L26.2871 11.8432C26.3776 12.1912 26.4503 12.5452 26.5093 12.905L27.2782 12.8048C27.2153 12.4115 27.1347 12.0241 27.0363 11.6426Z" fill="black"/>
<path fill-rule="evenodd" clip-rule="evenodd" d="M27.3936 20.0236L26.6266 19.7051C26.4674 20.0807 26.2884 20.4484 26.0957 20.8043L26.8135 21.2193C27.0258 20.8319 27.2186 20.4327 27.3936 20.0236Z" fill="black"/>
<path fill-rule="evenodd" clip-rule="evenodd" d="M27.9768 18.3374L27.1765 18.123C27.0644 18.5281 26.9346 18.9234 26.7852 19.3128L27.5521 19.6313C27.7133 19.2105 27.8569 18.7779 27.9768 18.3374Z" fill="black"/>
<path fill-rule="evenodd" clip-rule="evenodd" d="M28.3294 16.6257L27.5074 16.5156C27.4523 16.9207 27.3756 17.3199 27.2812 17.7112L28.0836 17.9256C28.1858 17.5028 28.2684 17.0682 28.3294 16.6257Z" fill="black"/>
<path fill-rule="evenodd" clip-rule="evenodd" d="M28.4553 14.8555H27.6255C27.6235 15.2763 27.5999 15.6912 27.5566 16.1022L28.3786 16.2123C28.4278 15.764 28.4533 15.3117 28.4553 14.8555Z" fill="black"/>
<path fill-rule="evenodd" clip-rule="evenodd" d="M28.3552 13.1172L27.5332 13.2253C27.5824 13.6226 27.6119 14.0277 27.6237 14.4347H28.4535C28.4417 13.9883 28.4083 13.5498 28.3552 13.1172Z" fill="black"/>
<path fill-rule="evenodd" clip-rule="evenodd" d="M28.3785 11.291L27.5781 11.5054C27.6823 11.9026 27.7669 12.3096 27.8318 12.7226L28.6538 12.6144C28.583 12.1661 28.4906 11.7236 28.3785 11.291Z" fill="black"/>
<path fill-rule="evenodd" clip-rule="evenodd" d="M29.6347 16.8016C29.5659 17.2991 29.4735 17.7907 29.3555 18.2705L28.4883 18.0385C28.5945 17.5941 28.681 17.1418 28.7439 16.6836L29.6347 16.8016Z" fill="black"/>
<path fill-rule="evenodd" clip-rule="evenodd" d="M29.7742 14.8555C29.7722 15.3726 29.7427 15.882 29.6877 16.3854L28.7988 16.2674C28.848 15.8033 28.8755 15.3333 28.8775 14.8555H29.7742Z" fill="black"/>
<path fill-rule="evenodd" clip-rule="evenodd" d="M29.916 10.9043C30.0439 11.3939 30.1461 11.8915 30.2248 12.3988L29.334 12.5148C29.2612 12.0468 29.1668 11.5867 29.0488 11.1363L29.916 10.9043Z" fill="black"/>
<path fill-rule="evenodd" clip-rule="evenodd" d="M15.0216 8.61133C16.7757 8.61133 18.3646 9.30549 19.515 10.4264L17.2673 12.619C16.6931 12.0585 15.8987 11.7105 15.0216 11.7105C13.2675 11.7105 11.8438 13.0988 11.8438 14.8096C11.8438 16.5224 13.2656 17.9087 15.0216 17.9087C15.8987 17.9087 16.6931 17.5627 17.2673 17.0002L19.515 19.1909C18.3646 20.3137 16.7757 21.0059 15.0216 21.0059C11.5115 21.0059 8.66602 18.2312 8.66602 14.8076C8.66602 11.386 11.5115 8.61133 15.0216 8.61133Z" fill="black"/>
<path d="M70.0451 25.9883V27.8092H72.4069V28.9163H70.0451V30.7746H73.0814V31.9211H68.5723V24.8398H73.0814V25.9863H70.0451V25.9883Z" fill="#F1C304"/>
<path d="M79.7873 31.9211H78.3243C78.226 31.9211 78.1473 31.8975 78.0883 31.8483C78.0274 31.7991 77.9802 31.7421 77.9448 31.6772L76.4129 29.0717C76.3972 29.1071 76.3814 29.1425 76.3657 29.1759C76.3519 29.2093 76.3342 29.2408 76.3146 29.2703L74.8614 31.6772C74.8181 31.7382 74.7689 31.7952 74.7119 31.8463C74.6549 31.8955 74.5821 31.9211 74.4956 31.9211H73.1289L75.4474 28.2752L73.2174 24.8398H74.6824C74.7807 24.8398 74.8515 24.8536 74.8968 24.8792C74.942 24.9047 74.9833 24.948 75.0187 25.007L76.5407 27.5103C76.5564 27.471 76.5741 27.4316 76.5938 27.3903C76.6135 27.349 76.6351 27.3077 76.6626 27.2665L78.0293 25.0306C78.0687 24.9657 78.1119 24.9165 78.1591 24.887C78.2063 24.8575 78.2633 24.8418 78.3322 24.8418H79.7323L77.4826 28.2143L79.7873 31.9211Z" fill="#F1C304"/>
<path d="M84.7933 30.1793C84.8739 30.1793 84.9427 30.2088 84.9978 30.2678L85.5779 30.8872C85.2908 31.251 84.9368 31.5283 84.5121 31.7171C84.0873 31.9058 83.5819 32.0002 82.9959 32.0002C82.465 32.0002 81.9891 31.9098 81.5663 31.7289C81.1435 31.548 80.7837 31.2962 80.4867 30.9757C80.1898 30.6532 79.9636 30.2717 79.8044 29.8293C79.6451 29.3868 79.5645 28.9031 79.5645 28.38C79.5645 28.028 79.6018 27.6937 79.6785 27.3771C79.7552 27.0605 79.8673 26.7675 80.0128 26.5001C80.1583 26.2326 80.3353 25.9927 80.5418 25.7784C80.7483 25.564 80.9823 25.3811 81.2418 25.2297C81.5014 25.0783 81.7866 24.9623 82.0933 24.8836C82.4001 24.805 82.7285 24.7637 83.0766 24.7637C83.3361 24.7637 83.5819 24.7873 83.8159 24.8325C84.048 24.8777 84.2663 24.9406 84.4668 25.0232C84.6674 25.1058 84.8542 25.2022 85.0253 25.3182C85.1964 25.4342 85.3498 25.5601 85.4874 25.6958L84.9938 26.3683C84.9643 26.4116 84.927 26.4489 84.8818 26.4804C84.8365 26.5138 84.7756 26.5295 84.6969 26.5295C84.6183 26.5295 84.5396 26.502 84.459 26.447C84.3803 26.3919 84.282 26.3309 84.166 26.2621C84.05 26.1933 83.9064 26.1323 83.7314 26.0773C83.5564 26.0222 83.3361 25.9947 83.0707 25.9947C82.7737 25.9947 82.5023 26.0478 82.2565 26.1559C82.0088 26.2621 81.7964 26.4175 81.6194 26.622C81.4424 26.8245 81.3048 27.0743 81.2064 27.3712C81.1081 27.6681 81.0609 28.0044 81.0609 28.382C81.0609 28.7615 81.114 29.1017 81.2202 29.3986C81.3264 29.6955 81.47 29.9473 81.6548 30.1518C81.8396 30.3563 82.054 30.5116 82.2998 30.6178C82.5456 30.724 82.8091 30.7771 83.0884 30.7771C83.2535 30.7771 83.405 30.7692 83.5387 30.7535C83.6744 30.7378 83.7982 30.7102 83.9143 30.6709C84.0303 30.6316 84.1384 30.5805 84.2407 30.5195C84.343 30.4566 84.4472 30.3799 84.5514 30.2855C84.5868 30.256 84.6242 30.2324 84.6635 30.2127C84.7067 30.1891 84.748 30.1793 84.7933 30.1793Z" fill="#F1C304"/>
<path d="M92.1837 24.8398V31.9211H90.7108V28.8711H87.592V31.9211H86.1172V24.8398H87.592V27.8466H90.7108V24.8398H92.1837Z" fill="#F1C304"/>
<path d="M99.5789 31.9211H98.4423C98.3164 31.9211 98.2122 31.8916 98.1335 31.8306C98.0529 31.7716 97.9939 31.693 97.9546 31.5986L97.4767 30.2456H94.6568L94.179 31.5986C94.1456 31.6792 94.0905 31.7539 94.0079 31.8208C93.9273 31.8876 93.825 31.9211 93.7011 31.9211H92.5547L95.3215 24.8398H96.8199L99.5789 31.9211ZM97.1188 29.2329L96.3519 27.0659C96.3067 26.9518 96.2575 26.8181 96.2084 26.6647C96.1572 26.5113 96.1101 26.3462 96.0648 26.1672C96.0196 26.3501 95.9704 26.5172 95.9213 26.6726C95.8701 26.8279 95.8229 26.9617 95.7777 27.0757L95.0167 29.2329H97.1188Z" fill="#F1C304"/>
<path d="M106.014 24.8399V31.9211H105.257C105.143 31.9211 105.046 31.9034 104.968 31.8641C104.889 31.8267 104.812 31.7618 104.738 31.6713L101.21 27.1819C101.22 27.296 101.227 27.4081 101.231 27.5182C101.235 27.6283 101.239 27.7325 101.239 27.8249V31.9191H99.9453V24.8379H100.716C100.779 24.8379 100.83 24.8399 100.875 24.8458C100.919 24.8497 100.96 24.8615 100.995 24.8792C101.031 24.8969 101.064 24.9205 101.098 24.95C101.131 24.9795 101.166 25.0188 101.206 25.068L104.759 29.5771C104.745 29.4532 104.736 29.3352 104.73 29.2192C104.724 29.1031 104.72 28.993 104.72 28.8888V24.8379H106.014V24.8399Z" fill="#F1C304"/>
<path d="M110.657 28.3151H113.088V31.2392C112.726 31.5027 112.342 31.6954 111.933 31.8174C111.524 31.9393 111.094 32.0002 110.637 32.0002C110.055 32.0002 109.528 31.9098 109.056 31.7289C108.584 31.548 108.181 31.2962 107.847 30.9757C107.511 30.6532 107.253 30.2717 107.07 29.8293C106.887 29.3868 106.797 28.9031 106.797 28.38C106.797 27.849 106.883 27.3633 107.058 26.9209C107.233 26.4784 107.481 26.0969 107.804 25.7784C108.126 25.4598 108.516 25.212 108.972 25.0311C109.43 24.8522 109.941 24.7637 110.508 24.7637C110.801 24.7637 111.074 24.7873 111.328 24.8345C111.581 24.8817 111.815 24.9465 112.032 25.0291C112.246 25.1117 112.443 25.2101 112.622 25.3241C112.8 25.4382 112.964 25.564 113.109 25.6997L112.684 26.3545C112.62 26.4588 112.535 26.5217 112.431 26.5453C112.327 26.5689 112.212 26.5413 112.089 26.4666C111.971 26.3958 111.857 26.3309 111.744 26.2739C111.632 26.2169 111.512 26.1677 111.387 26.1245C111.259 26.0812 111.121 26.0497 110.972 26.0261C110.822 26.0025 110.649 25.9927 110.454 25.9927C110.126 25.9927 109.827 26.0497 109.562 26.1638C109.294 26.2778 109.068 26.4391 108.881 26.6475C108.695 26.856 108.551 27.1057 108.449 27.3987C108.346 27.6917 108.297 28.0182 108.297 28.38C108.297 28.7693 108.352 29.1194 108.462 29.4261C108.573 29.7329 108.73 29.9925 108.93 30.2049C109.131 30.4172 109.373 30.5765 109.654 30.6886C109.935 30.7987 110.248 30.8538 110.594 30.8538C110.828 30.8538 111.037 30.8302 111.221 30.783C111.406 30.7358 111.585 30.6709 111.76 30.5903V29.4006H110.96C110.865 29.4006 110.791 29.375 110.738 29.3239C110.685 29.2747 110.657 29.2098 110.657 29.1312V28.3151Z" fill="#F1C304"/>
<path d="M115.469 25.9883V27.8092H117.831V28.9163H115.469V30.7746H118.505V31.9211H113.996V24.8398H118.505V25.9863H115.469V25.9883Z" fill="#F1C304"/>
</svg>
