<svg width="24" height="24" viewBox="0 0 24 24" fill="none" xmlns="http://www.w3.org/2000/svg">
<path d="M15 22.75H9C3.57 22.75 1.25 20.43 1.25 15V9C1.25 3.57 3.57 1.25 9 1.25H15C20.43 1.25 22.75 3.57 22.75 9V15C22.75 20.43 20.43 22.75 15 22.75ZM9 2.75C4.39 2.75 2.75 4.39 2.75 9V15C2.75 19.61 4.39 21.25 9 21.25H15C19.61 21.25 21.25 19.61 21.25 15V9C21.25 4.39 19.61 2.75 15 2.75H9Z" fill="black"/>
<path d="M17.5007 10.0703H6.9707C6.5607 10.0703 6.2207 9.73031 6.2207 9.32031C6.2207 8.91031 6.5607 8.57031 6.9707 8.57031H17.5007C17.9107 8.57031 18.2507 8.91031 18.2507 9.32031C18.2507 9.73031 17.9107 10.0703 17.5007 10.0703Z" fill="black"/>
<path d="M17.52 14.0703H14.75C14.34 14.0703 14 13.7303 14 13.3203C14 12.9103 14.34 12.5703 14.75 12.5703H17.52C17.93 12.5703 18.27 12.9103 18.27 13.3203C18.27 13.7303 17.93 14.0703 17.52 14.0703Z" fill="black"/>
<path d="M17.52 17.5H14.75C14.34 17.5 14 17.16 14 16.75C14 16.34 14.34 16 14.75 16H17.52C17.93 16 18.27 16.34 18.27 16.75C18.27 17.16 17.93 17.5 17.52 17.5Z" fill="black"/>
<path d="M9.60737 12.4299L10.7898 13.5804C11.6885 14.4547 11.7082 15.8895 10.8339 16.7882L9.68338 17.9706C9.44753 18.213 9.05093 18.2185 8.80852 17.9826C8.56612 17.7468 8.56068 17.3502 8.79652 17.1078L9.947 15.9253C10.3439 15.5173 10.3349 14.8641 9.92699 14.4672L8.74452 13.3167C8.50211 13.0809 8.49667 12.6843 8.73252 12.4419C8.96836 12.1995 9.36496 12.194 9.60737 12.4299Z" fill="black"/>
</svg>
