<svg width="24" height="24" viewBox="0 0 24 24" fill="none" xmlns="http://www.w3.org/2000/svg">
<path d="M11.8817 14.9891C11.6917 14.9891 11.5017 14.9191 11.3517 14.7691L8.79172 12.2091C8.50172 11.9191 8.50172 11.4391 8.79172 11.1491C9.08172 10.8591 9.56172 10.8591 9.85172 11.1491L11.8817 13.1791L13.9117 11.1491C14.2017 10.8591 14.6817 10.8591 14.9717 11.1491C15.2617 11.4391 15.2617 11.9191 14.9717 12.2091L12.4117 14.7691C12.2617 14.9191 12.0717 14.9891 11.8817 14.9891Z" fill="black"/>
<path d="M11.8809 14.9239C11.4709 14.9239 11.1309 14.5839 11.1309 14.1739V4.00391C11.1309 3.59391 11.4709 3.25391 11.8809 3.25391C12.2909 3.25391 12.6309 3.59391 12.6309 4.00391V14.1739C12.6309 14.5839 12.2909 14.9239 11.8809 14.9239Z" fill="black"/>
<path d="M12 20.9277C6.85 20.9277 3.25 17.3277 3.25 12.1777C3.25 11.7677 3.59 11.4277 4 11.4277C4.41 11.4277 4.75 11.7677 4.75 12.1777C4.75 16.4477 7.73 19.4277 12 19.4277C16.27 19.4277 19.25 16.4477 19.25 12.1777C19.25 11.7677 19.59 11.4277 20 11.4277C20.41 11.4277 20.75 11.7677 20.75 12.1777C20.75 17.3277 17.15 20.9277 12 20.9277Z" fill="black"/>
</svg>
