<svg width="120" height="105" viewBox="0 0 120 105" fill="none" xmlns="http://www.w3.org/2000/svg">
<rect x="0.691615" y="36.0378" width="44.7239" height="63.0135" rx="3.5" transform="rotate(-32.9846 0.691615 36.0378)" fill="white" stroke="#E1E3E5" stroke-dasharray="4 2"/>
<rect x="-0.679043" y="0.197233" width="44.7239" height="63.0135" rx="3.5" transform="matrix(-0.876276 -0.481809 -0.481809 0.876276 118.821 32.4082)" fill="white" stroke="#E1E3E5" stroke-dasharray="4 2"/>
<rect x="37.0078" y="0.5" width="49.3235" height="69.4529" rx="3.5" fill="white" stroke="#E1E3E5" stroke-dasharray="4 2"/>
<ellipse cx="60" cy="102.875" rx="32" ry="2" fill="#F7F7F7"/>
<path d="M52.8398 15.0938L70.4531 32.707" stroke="#E1E3E5" stroke-linecap="round"/>
<path d="M70.4531 15.0938L52.8399 32.707" stroke="#E1E3E5" stroke-linecap="round"/>
<g clip-path="url(#clip0_6965_166364)">
<path d="M89.457 68.9425L90.9101 70.3961L92.6089 72.0861L93.2635 72.7454L96.6531 69.3534L92.8525 65.5469L89.457 68.9425Z" fill="#C1C4C8"/>
<path d="M100.107 69.3359L111.805 81.0325C112.684 81.91 113.231 83.128 113.227 84.4677C113.227 85.8097 112.684 87.0266 111.805 87.9077C110.927 88.784 109.712 89.3247 108.37 89.3247C107.029 89.3247 105.815 88.784 104.935 87.9047L93.2383 76.2069L100.107 69.3359Z" fill="#D4D4D5"/>
<path d="M98.4922 70.9523L99.4427 70L111.141 81.6983C111.88 82.4374 112.286 83.4205 112.285 84.4668C112.285 85.516 111.878 86.5009 111.141 87.2412C111.006 87.3704 110.834 87.4354 110.664 87.4354C110.491 87.4354 110.32 87.3704 110.186 87.2394C109.926 86.9754 109.926 86.5526 110.186 86.2907C110.674 85.8046 110.94 85.1536 110.94 84.4651C110.942 83.7794 110.674 83.1331 110.19 82.6495L98.4922 70.9523Z" fill="#E5E5E5"/>
<path d="M93.2403 76.2123L100.11 69.3407L99.5977 68.8272C99.2885 68.5167 98.8657 68.3281 98.3956 68.3281C97.9226 68.3281 97.4986 68.5159 97.1923 68.8248L92.725 73.2945C92.4182 73.599 92.2266 74.023 92.2266 74.4966C92.2266 74.9632 92.4178 75.3924 92.725 75.6951L93.2403 76.2123Z" fill="#BEBEC0"/>
<path d="M54.0977 52.1565C54.0977 40.0295 63.9307 30.1953 76.0601 30.1953C88.1907 30.1953 98.0232 40.0301 98.0232 52.1565C98.0232 64.2871 88.1895 74.1195 76.0601 74.1224C63.9307 74.1195 54.0977 64.2867 54.0977 52.1565Z" fill="#F7F7F7"/>
<path d="M76.062 71.7477C86.8758 71.7477 95.6468 62.9799 95.6468 52.1612C95.6468 41.3487 86.876 32.5781 76.062 32.5781C65.2465 32.5784 56.4766 41.3483 56.4766 52.1614C56.4766 62.9799 65.2465 71.7477 76.062 71.7477Z" fill="#EBEBEB"/>
<path d="M76.0608 70.1757C86.0098 70.1757 94.0777 62.1109 94.0777 52.157C94.0777 42.2104 86.0094 34.1406 76.0608 34.1406C66.1122 34.1406 58.043 42.2104 58.043 52.157C58.043 62.1103 66.1101 70.1757 76.0608 70.1757Z" fill="#F7F7F7"/>
<path d="M76.5336 37.1005C76.2268 36.6452 75.6993 36.3602 75.1189 36.3932C72.6318 36.5443 70.2814 37.2447 68.1336 38.4918C67.3774 38.9341 67.118 39.9088 67.5586 40.6686C67.999 41.4189 68.975 41.6859 69.7289 41.2395C71.4422 40.2511 73.3175 39.6896 75.3055 39.5685C76.1789 39.523 76.8506 38.7696 76.7965 37.8969C76.7864 37.5944 76.685 37.3224 76.5336 37.1005Z" fill="white"/>
<path d="M66.3328 42.3272C66.2483 42.2004 66.138 42.0827 66.0171 41.9825C65.335 41.4245 64.3349 41.5331 63.7834 42.2146C62.1604 44.2072 61.0434 46.598 60.5502 49.1423C59.9669 52.1642 60.272 55.2581 61.4307 58.0931C61.7684 58.9103 62.6978 59.2941 63.5086 58.96C64.3216 58.6306 64.709 57.7046 64.376 56.8874C63.4521 54.6266 63.2123 52.1576 63.6816 49.7457C64.0653 47.7146 64.9576 45.8077 66.2522 44.2174C66.7024 43.6638 66.7143 42.8869 66.3328 42.3272Z" fill="white"/>
</g>
<defs>
<clipPath id="clip0_6965_166364">
<rect width="59.1302" height="59.1301" fill="white" transform="translate(54.0977 30.1953)"/>
</clipPath>
</defs>
</svg>
