<svg width="24" height="24" viewBox="0 0 24 24" fill="none" xmlns="http://www.w3.org/2000/svg">
<path d="M9.46992 15.2799C9.27992 15.2799 9.08992 15.2099 8.93992 15.0599C8.11992 14.2399 7.66992 13.1499 7.66992 11.9999C7.66992 9.60992 9.60992 7.66992 11.9999 7.66992C13.1499 7.66992 14.2399 8.11992 15.0599 8.93992C15.1999 9.07992 15.2799 9.26992 15.2799 9.46992C15.2799 9.66992 15.1999 9.85992 15.0599 9.99992L9.99992 15.0599C9.84992 15.2099 9.65992 15.2799 9.46992 15.2799ZM11.9999 9.16992C10.4399 9.16992 9.16992 10.4399 9.16992 11.9999C9.16992 12.4999 9.29992 12.9799 9.53992 13.3999L13.3999 9.53992C12.9799 9.29992 12.4999 9.16992 11.9999 9.16992Z" fill="black"/>
<path d="M5.59984 18.5105C5.42984 18.5105 5.24984 18.4505 5.10984 18.3305C4.03984 17.4205 3.07984 16.3005 2.25984 15.0005C1.19984 13.3505 1.19984 10.6605 2.25984 9.00047C4.69984 5.18047 8.24984 2.98047 11.9998 2.98047C14.1998 2.98047 16.3698 3.74047 18.2698 5.17047C18.5998 5.42047 18.6698 5.89047 18.4198 6.22047C18.1698 6.55047 17.6998 6.62047 17.3698 6.37047C15.7298 5.13047 13.8698 4.48047 11.9998 4.48047C8.76984 4.48047 5.67984 6.42047 3.51984 9.81047C2.76984 10.9805 2.76984 13.0205 3.51984 14.1905C4.26984 15.3605 5.12984 16.3705 6.07984 17.1905C6.38984 17.4605 6.42984 17.9305 6.15984 18.2505C6.01984 18.4205 5.80984 18.5105 5.59984 18.5105Z" fill="black"/>
<path d="M12.0006 21.0195C10.6706 21.0195 9.37055 20.7495 8.12055 20.2195C7.74055 20.0595 7.56055 19.6195 7.72055 19.2395C7.88055 18.8595 8.32055 18.6795 8.70055 18.8395C9.76055 19.2895 10.8706 19.5195 11.9906 19.5195C15.2206 19.5195 18.3106 17.5795 20.4706 14.1895C21.2206 13.0195 21.2206 10.9795 20.4706 9.80951C20.1606 9.31951 19.8205 8.84951 19.4606 8.40951C19.2006 8.08951 19.2506 7.61951 19.5706 7.34951C19.8906 7.08951 20.3605 7.12951 20.6306 7.45951C21.0206 7.93951 21.4006 8.45951 21.7406 8.99951C22.8006 10.6495 22.8006 13.3395 21.7406 14.9995C19.3006 18.8195 15.7506 21.0195 12.0006 21.0195Z" fill="black"/>
<path d="M12.6896 16.2703C12.3396 16.2703 12.0196 16.0203 11.9496 15.6603C11.8696 15.2503 12.1396 14.8603 12.5496 14.7903C13.6496 14.5903 14.5696 13.6703 14.7696 12.5703C14.8496 12.1603 15.2396 11.9003 15.6496 11.9703C16.0596 12.0503 16.3296 12.4403 16.2496 12.8503C15.9296 14.5803 14.5496 15.9503 12.8296 16.2703C12.7796 16.2603 12.7396 16.2703 12.6896 16.2703Z" fill="black"/>
<path d="M1.99945 22.7507C1.80945 22.7507 1.61945 22.6807 1.46945 22.5307C1.17945 22.2407 1.17945 21.7607 1.46945 21.4707L8.93945 14.0007C9.22945 13.7107 9.70945 13.7107 9.99945 14.0007C10.2895 14.2907 10.2895 14.7707 9.99945 15.0607L2.52945 22.5307C2.37945 22.6807 2.18945 22.7507 1.99945 22.7507Z" fill="black"/>
<path d="M14.5307 10.2195C14.3407 10.2195 14.1507 10.1495 14.0007 9.99945C13.7107 9.70945 13.7107 9.22945 14.0007 8.93945L21.4707 1.46945C21.7607 1.17945 22.2407 1.17945 22.5307 1.46945C22.8207 1.75945 22.8207 2.23945 22.5307 2.52945L15.0607 9.99945C14.9107 10.1495 14.7207 10.2195 14.5307 10.2195Z" fill="black"/>
</svg>
