<svg xmlns="http://www.w3.org/2000/svg" width="20" height="20" viewBox="0 0 20 20" fill="none">
  <path d="M15.0833 14.791H4.91666C2.98333 14.791 1.875 13.6827 1.875 11.7494V1.66602C1.875 1.32435 2.15833 1.04102 2.5 1.04102H17.5C17.8417 1.04102 18.125 1.32435 18.125 1.66602V11.7494C18.125 13.6827 17.0167 14.791 15.0833 14.791ZM3.125 2.29102V11.7494C3.125 12.991 3.67499 13.541 4.91666 13.541H15.075C16.3167 13.541 16.8667 12.991 16.8667 11.7494V2.29102H3.125Z" fill="black"/>
  <path d="M18.3346 2.29102H1.66797C1.3263 2.29102 1.04297 2.00768 1.04297 1.66602C1.04297 1.32435 1.3263 1.04102 1.66797 1.04102H18.3346C18.6763 1.04102 18.9596 1.32435 18.9596 1.66602C18.9596 2.00768 18.6763 2.29102 18.3346 2.29102Z" fill="black"/>
  <path d="M6.66591 18.9577C6.43258 18.9577 6.2159 18.8327 6.10757 18.616C5.94923 18.3077 6.07426 17.9327 6.39092 17.7743L9.37424 16.2827V14.166C9.37424 13.8243 9.65758 13.541 9.99924 13.541C10.3409 13.541 10.6242 13.8243 10.6242 14.166V16.666C10.6242 16.8993 10.4909 17.116 10.2742 17.2244L6.9409 18.891C6.85757 18.9327 6.75758 18.9577 6.66591 18.9577Z" fill="black"/>
  <path d="M13.3339 18.9588C13.2423 18.9588 13.1423 18.9338 13.059 18.8921L9.72562 17.2255C9.41729 17.0671 9.29226 16.6921 9.44226 16.3838C9.6006 16.0755 9.97561 15.9505 10.2839 16.1005L13.6173 17.7671C13.9256 17.9255 14.0506 18.3005 13.9006 18.6088C13.7839 18.8338 13.5589 18.9588 13.3339 18.9588Z" fill="black"/>
  <path d="M6.2501 9.79157C6.0751 9.79157 5.89178 9.71658 5.76678 9.56658C5.54178 9.29991 5.58343 8.90824 5.85009 8.68324L8.47511 6.49157C8.71678 6.29157 9.02509 6.20824 9.31676 6.25824C9.61676 6.30824 9.87511 6.49155 10.0334 6.75822L10.9084 8.21655L13.3501 6.18324C13.6168 5.96658 14.0084 5.99989 14.2334 6.26656C14.4584 6.53322 14.4168 6.92489 14.1501 7.14989L11.5251 9.34156C11.2834 9.54156 10.9751 9.62489 10.6834 9.57489C10.3834 9.52489 10.1251 9.34158 9.96676 9.07491L9.09177 7.61658L6.65011 9.64989C6.53344 9.74155 6.39177 9.79157 6.2501 9.79157Z" fill="black"/>
</svg>