<svg width="24" height="24" viewBox="0 0 24 24" fill="none" xmlns="http://www.w3.org/2000/svg">
<path d="M7.25 12.8008C6.84 12.8008 6.5 12.4608 6.5 12.0508V7.05078C6.5 6.64078 6.84 6.30078 7.25 6.30078C7.66 6.30078 8 6.64078 8 7.05078V12.0508C8 12.4608 7.66 12.8008 7.25 12.8008Z" fill="black"/>
<path d="M11.25 7.80078H7.25C6.84 7.80078 6.5 7.46078 6.5 7.05078C6.5 6.64078 6.84 6.30078 7.25 6.30078H11.25C11.66 6.30078 12 6.64078 12 7.05078C12 7.46078 11.66 7.80078 11.25 7.80078Z" fill="black"/>
<path d="M11.25 10.8008H7.25C6.84 10.8008 6.5 10.4608 6.5 10.0508C6.5 9.64078 6.84 9.30078 7.25 9.30078H11.25C11.66 9.30078 12 9.64078 12 10.0508C12 10.4608 11.66 10.8008 11.25 10.8008Z" fill="black"/>
<path d="M15.9592 12.3213L13.156 7.44462C12.9333 7.10042 13.034 6.63025 13.3782 6.40749C13.7224 6.18473 14.1925 6.28544 14.4153 6.62965L17.2185 11.5063C17.4413 11.8505 17.3406 12.3207 16.9964 12.5435C16.6522 12.7662 16.182 12.6655 15.9592 12.3213Z" fill="black"/>
<path d="M14.4158 12.3213L17.219 7.44462C17.4417 7.10042 17.341 6.63025 16.9968 6.40749C16.6526 6.18473 16.1825 6.28544 15.9597 6.62965L13.1565 11.5063C12.9337 11.8505 13.0344 12.3207 13.3786 12.5435C13.7228 12.7662 14.193 12.6655 14.4158 12.3213Z" fill="black"/>
<path d="M17.56 17.97H6.44C2.46 17.97 1.25 16.76 1.25 12.78V6.44C1.25 2.46 2.46 1.25 6.44 1.25H17.55C21.53 1.25 22.74 2.46 22.74 6.44V12.77C22.75 16.76 21.54 17.97 17.56 17.97ZM6.44 2.75C3.3 2.75 2.75 3.3 2.75 6.44V12.77C2.75 15.91 3.3 16.46 6.44 16.46H17.55C20.69 16.46 21.24 15.91 21.24 12.77V6.44C21.24 3.3 20.69 2.75 17.55 2.75H6.44Z" fill="black"/>
<path d="M12 22.7497C11.59 22.7497 11.25 22.4097 11.25 21.9997V17.2197C11.25 16.8097 11.59 16.4697 12 16.4697C12.41 16.4697 12.75 16.8097 12.75 17.2197V21.9997C12.75 22.4097 12.41 22.7497 12 22.7497Z" fill="black"/>
<path d="M16.5 22.75H7.5C7.09 22.75 6.75 22.41 6.75 22C6.75 21.59 7.09 21.25 7.5 21.25H16.5C16.91 21.25 17.25 21.59 17.25 22C17.25 22.41 16.91 22.75 16.5 22.75Z" fill="black"/>
</svg>
