<svg width="24" height="24" viewBox="0 0 24 24" fill="none" xmlns="http://www.w3.org/2000/svg">
<path d="M9.5 1.5C7.71403 1.5 6.25 2.96403 6.25 4.75C6.25 5.39344 6.44288 5.99354 6.76953 6.5H4.25C3.56 6.5 3 7.06 3 7.75V10.75C3 11.44 3.56 12 4.25 12H11.25V6.5H9.5C8.52497 6.5 7.75 5.72503 7.75 4.75C7.75 3.77497 8.52497 3 9.5 3C10.475 3 11.25 3.77497 11.25 4.75V6.5H12.75V4.75C12.75 3.77497 13.525 3 14.5 3C15.475 3 16.25 3.77497 16.25 4.75C16.25 5.72503 15.475 6.5 14.5 6.5H12.75V12H19.75C20.44 12 21 11.44 21 10.75V7.75C21 7.06 20.44 6.5 19.75 6.5H17.2305C17.5571 5.99354 17.75 5.39344 17.75 4.75C17.75 2.96403 16.286 1.5 14.5 1.5C13.4758 1.5 12.5971 2.01124 12 2.75879C11.4029 2.01124 10.5242 1.5 9.5 1.5ZM4 13.5V18.75C4 20.54 5.46 22 7.25 22H11.25V13.5H4ZM12.75 13.5V22H16.75C18.54 22 20 20.54 20 18.75V13.5H12.75Z" fill="black"/>
</svg>
