<svg width="24" height="24" viewBox="0 0 24 24" fill="none" xmlns="http://www.w3.org/2000/svg">
<g clip-path="url(#clip0_191_936)">
<path d="M5.238 0.383825C4.29906 -0.135145 3.19662 -0.123146 2.26367 0.391325L13.1981 10.4783L16.8713 6.80496L5.238 0.383825Z" fill="black"/>
<path d="M1.16998 1.42188C0.902991 1.85835 0.75 2.35782 0.75 2.88729V21.1053C0.75 21.6182 0.889492 22.1072 1.14148 22.5347L12.1374 11.5388L1.16998 1.42188Z" fill="black"/>
<path d="M21.7419 9.49394L18.2381 7.56055L14.3008 11.4963L19.126 15.9466L21.7434 14.5022C22.6853 13.9802 23.2493 13.0442 23.2493 11.9973C23.2478 10.9504 22.6853 10.0144 21.7419 9.49394Z" fill="black"/>
<path d="M13.2407 12.5586L2.21484 23.5845C2.69332 23.8575 3.21829 24.0014 3.74626 24.0014C4.25623 24.0014 4.7692 23.8725 5.23867 23.613L17.7435 16.7119L13.2407 12.5586Z" fill="black"/>
</g>
<defs>
<clipPath id="clip0_191_936">
<rect width="24" height="24" fill="white"/>
</clipPath>
</defs>
</svg>
