<svg width="24" height="24" viewBox="0 0 24 24" fill="none" xmlns="http://www.w3.org/2000/svg">
<path d="M14.2216 3.27728C13.7193 3.30053 13.2188 3.42957 12.7519 3.66302C12.7383 3.66977 12.725 3.67694 12.7119 3.6845L11.2939 4.50384C11.2789 4.50307 11.2639 4.50274 11.249 4.50286H1.74896C1.64958 4.50146 1.55091 4.51982 1.45868 4.55688C1.36645 4.59394 1.28251 4.64896 1.21174 4.71874C1.14096 4.78853 1.08476 4.87168 1.0464 4.96337C1.00804 5.05507 0.988281 5.15347 0.988281 5.25286C0.988281 5.35226 1.00804 5.45066 1.0464 5.54235C1.08476 5.63405 1.14096 5.7172 1.21174 5.78698C1.28251 5.85677 1.36645 5.91179 1.45868 5.94885C1.55091 5.98591 1.64958 6.00427 1.74896 6.00286H8.1308L7.80463 6.13861C7.78843 6.14521 7.77247 6.15237 7.75678 6.16009C6.9256 6.57568 6.54215 7.46099 6.62494 8.25775C6.70773 9.0545 7.27813 9.84882 8.19232 10.0771C8.54868 10.1659 8.94452 10.2177 9.37592 10.2177C11.5627 10.2177 13.7056 9.5363 14.3398 9.32611C14.7568 9.79172 16.8135 12.0902 17.5009 12.7939C17.9987 13.3032 18.0491 13.8005 17.9208 14.1542C17.7926 14.508 17.5014 14.7812 16.8671 14.7831C16.6949 14.7836 16.528 14.8434 16.3947 14.9524C16.2613 15.0615 16.1695 15.2131 16.1347 15.3818C15.9477 16.2862 15.6177 16.4145 15.2812 16.5029C14.9447 16.5912 14.6201 16.5146 14.6201 16.5146C14.5107 16.4847 14.396 16.48 14.2845 16.5009C14.1731 16.5218 14.0678 16.5676 13.9766 16.635C13.8855 16.7024 13.8108 16.7896 13.7581 16.89C13.7055 16.9904 13.6763 17.1015 13.6728 17.2148C13.6728 17.2148 13.6479 17.602 13.457 17.9335C13.266 18.265 13.0672 18.5445 12.1767 18.4472C11.9877 18.4264 11.7979 18.4782 11.6456 18.592C11.4933 18.7059 11.3899 18.8733 11.3564 19.0605C11.2543 19.6313 10.9439 19.8791 10.4785 19.9648C10.013 20.0505 9.38091 19.8981 8.82806 19.3515C8.1202 18.6519 5.53919 16.0197 4.37103 14.8271C3.85382 14.2989 3.14549 14.0029 2.40814 14.0029H1.74896C1.64958 14.0015 1.55091 14.0198 1.45868 14.0569C1.36645 14.0939 1.28251 14.149 1.21174 14.2187C1.14096 14.2885 1.08476 14.3717 1.0464 14.4634C1.00804 14.5551 0.988281 14.6535 0.988281 14.7529C0.988281 14.8523 1.00804 14.9507 1.0464 15.0424C1.08476 15.134 1.14096 15.2172 1.21174 15.287C1.28251 15.3568 1.36645 15.4118 1.45868 15.4488C1.55091 15.4859 1.64958 15.5043 1.74896 15.5029H2.40814C2.74679 15.5029 3.06396 15.6361 3.29974 15.8769C4.46859 17.0702 7.02524 19.6785 7.77338 20.4179C8.63603 21.2708 9.7484 21.6248 10.7499 21.4404C11.562 21.2908 12.2733 20.7244 12.6288 19.9169C13.4841 19.8456 14.1413 19.4528 14.538 18.9843C14.5481 18.9848 14.5582 18.9852 14.5683 18.9853C14.5683 18.9853 16.8253 19.0246 18.081 18.9853C18.9546 18.9582 19.8352 18.6617 20.6122 17.9804C20.9628 17.6733 21.3845 17.5019 21.8134 17.5019H22.249C22.3483 17.5033 22.447 17.4849 22.5392 17.4479C22.6315 17.4108 22.7154 17.3558 22.7862 17.286C22.857 17.2162 22.9132 17.1331 22.9515 17.0414C22.9899 16.9497 23.0096 16.8513 23.0096 16.7519C23.0096 16.6525 22.9899 16.5541 22.9515 16.4624C22.9132 16.3707 22.857 16.2875 22.7862 16.2178C22.7154 16.148 22.6315 16.093 22.5392 16.0559C22.447 16.0188 22.3483 16.0005 22.249 16.0019H21.8134C20.9864 16.0019 20.2184 16.3316 19.624 16.8525C19.078 17.3312 18.6445 17.4674 18.0351 17.4863C18.0348 17.4863 18.0344 17.4863 18.0341 17.4863C17.6246 17.4991 17.0543 17.4965 16.5175 17.496C16.9001 17.1806 17.2433 16.7222 17.455 16.1093C18.3215 15.9112 19.0559 15.4246 19.331 14.6659C19.6705 13.7296 19.4064 12.5977 18.5732 11.7451C17.9418 11.0987 15.1386 7.97552 15.1386 7.97552C15.0403 7.86578 14.9118 7.78745 14.7692 7.75028C14.6266 7.71311 14.4762 7.71877 14.3369 7.76654C14.3369 7.76654 11.4805 8.71771 9.37592 8.71771C9.06431 8.71771 8.79324 8.68121 8.5556 8.622C8.2563 8.54727 8.14321 8.35347 8.11713 8.10247C8.09119 7.85291 8.17332 7.63258 8.42474 7.50482L10.7724 6.53021C10.8026 6.5175 10.832 6.50282 10.8603 6.48626L13.4267 5.00286C13.9938 4.72058 14.5963 4.69933 15.1425 4.9179L18.5224 6.26946C18.9065 6.42377 19.3166 6.50176 19.7294 6.50189L22.249 6.50286C22.3483 6.50427 22.447 6.48591 22.5392 6.44885C22.6315 6.41179 22.7154 6.35677 22.7862 6.28698C22.857 6.2172 22.9132 6.13405 22.9515 6.04235C22.9899 5.95066 23.0096 5.85226 23.0096 5.75286C23.0096 5.65347 22.9899 5.55507 22.9515 5.46337C22.9132 5.37168 22.857 5.28853 22.7862 5.21874C22.7154 5.14896 22.6315 5.09394 22.5392 5.05688C22.447 5.01982 22.3483 5.00146 22.249 5.00286L19.7304 5.00189C19.5075 5.00189 19.2875 4.96044 19.082 4.87786C19.0813 4.87754 19.0807 4.87721 19.08 4.87689L15.7001 3.52532C15.2279 3.33636 14.724 3.25402 14.2216 3.27728Z" fill="black"/>
</svg>
