<svg width="24" height="24" viewBox="0 0 24 24" fill="none" xmlns="http://www.w3.org/2000/svg">
	<path d="M22.5 9.00015C22.5 7.38882 21.8203 5.87125 20.5898 4.73453C18.2578 2.57828 14.5664 2.46695 12.0059 4.38882C9.49219 2.46695 5.75977 2.56656 3.4043 4.73453C2.17969 5.87125 1.5 7.38882 1.5 9.00015C1.5 10.5177 2.11523 11.9298 3.21094 13.0431L3.19336 13.0548L7.81055 17.8068L8.00977 18.0119L9.96094 20.0216L9.9668 20.0158L10.3477 20.4025C10.7871 20.8478 11.373 21.0939 12 21.0939C12.627 21.0939 13.2129 20.8478 13.6582 20.4084C14.0801 19.9865 14.3145 19.424 14.332 18.8322C14.9063 18.8146 15.4688 18.5919 15.9082 18.1584C16.3418 17.7189 16.5645 17.1564 16.582 16.5822C17.1563 16.5646 17.7188 16.3419 18.1582 15.9084C18.5918 15.4689 18.8145 14.9064 18.832 14.3322C19.4062 14.3146 19.9688 14.0919 20.4082 13.6584C20.625 13.4357 20.7891 13.1837 20.9004 12.9142C21.9199 11.8244 22.5 10.4591 22.5 9.00015ZM19.5762 5.84195C20.4902 6.6857 21 7.8107 21 9.00015C21 9.57437 20.877 10.131 20.6543 10.6466C20.5781 10.5412 20.4961 10.4416 20.4082 10.3419L17.7832 7.71695L17.7773 7.72281L17.7129 7.65836C15.4219 5.85367 13.418 8.04507 12.3398 9.21695C12.1172 9.46304 11.9238 9.67984 11.7539 9.82632C10.8984 10.5705 9.62109 10.6935 8.625 10.2013L12.1641 6.2814L12.5449 5.83609C14.4844 4.04898 17.6367 4.04898 19.5762 5.84195ZM18.75 12.7502H17.25V14.2502C17.25 14.6662 16.916 15.0002 16.5 15.0002H15V16.5002C15 16.9162 14.666 17.2502 14.25 17.2502H12.75V18.7502C12.75 19.1662 12.416 19.5002 12 19.5002C11.8008 19.5002 11.5312 19.4591 11.4082 19.3537L9.39258 17.2853L4.41797 12.1701L4.42383 12.1642C3.50391 11.3146 3 10.1896 3 9.00015C3 7.8107 3.50391 6.6857 4.42383 5.84195C6.19336 4.20718 8.95898 4.08414 10.9043 5.42593L6.44531 10.3771L6.99023 10.881C8.58398 12.3459 11.1094 12.381 12.7441 10.9513C12.9434 10.7755 13.1836 10.5177 13.4473 10.2306C14.8652 8.67789 15.7793 8.04507 16.7227 8.7775L19.3477 11.4025C19.4473 11.5255 19.5 11.7775 19.5 12.0002C19.5 12.4162 19.166 12.7502 18.75 12.7502Z" fill="black" />
</svg>
