<svg width="24" height="24" viewBox="0 0 24 24" fill="none" xmlns="http://www.w3.org/2000/svg">
<path d="M12.4102 1.50961C7.54323 1.28051 3.5 5.17827 3.5 9.99984V12.2498V15.7498C3.5 17.1861 4.63291 18.345 6.04199 18.4579C6.1566 20.4191 7.76138 21.9998 9.75 21.9998H10.2568C10.4853 22.3014 10.8435 22.4998 11.25 22.4998H12.75C13.439 22.4998 14 21.9393 14 21.2498C14 20.5603 13.439 19.9998 12.75 19.9998H11.25C10.8435 19.9998 10.4853 20.1983 10.2568 20.4998H9.75C8.58716 20.4998 7.67804 19.6257 7.5498 18.4998H8.75C8.94891 18.4998 9.13966 18.4208 9.28031 18.2802C9.42096 18.1395 9.49998 17.9488 9.5 17.7498V12.2498C9.49998 12.0509 9.42096 11.8602 9.28031 11.7195C9.13966 11.5789 8.94891 11.4999 8.75 11.4998H5V9.99984C5 6.01242 8.30479 2.81776 12.3389 3.00766C16.0961 3.18432 19 6.42985 19 10.2186V11.4998H15.25C15.0511 11.4999 14.8603 11.5789 14.7197 11.7195C14.579 11.8602 14.5 12.0509 14.5 12.2498V17.7498C14.5 17.9488 14.579 18.1395 14.7197 18.2802C14.8603 18.4208 15.0511 18.4998 15.25 18.4998H17.75C19.2599 18.4998 20.5 17.2597 20.5 15.7498V12.2498V10.2186C20.5 5.66134 16.9899 1.72495 12.4102 1.50961ZM5 12.9998H8V16.9998H6.25C5.55089 16.9998 5 16.449 5 15.7498V12.9998ZM16 12.9998H19V15.7498C19 16.449 18.4491 16.9998 17.75 16.9998H16V12.9998Z" fill="black"/>
</svg>
