<svg width="24" height="24" viewBox="0 0 24 24" fill="none" xmlns="http://www.w3.org/2000/svg">
<path d="M12 2.00098C6.477 2.00098 2 6.47798 2 12.001C2 17.524 6.477 22.001 12 22.001C17.523 22.001 22 17.524 22 12.001C22 6.47798 17.523 2.00098 12 2.00098ZM12 17.001C11.448 17.001 11 16.553 11 16.001V12.001C11 11.449 11.448 11.001 12 11.001C12.552 11.001 13 11.449 13 12.001V16.001C13 16.553 12.552 17.001 12 17.001ZM12.5 9.00098H11.5C11.224 9.00098 11 8.77698 11 8.50098V7.50098C11 7.22498 11.224 7.00098 11.5 7.00098H12.5C12.776 7.00098 13 7.22498 13 7.50098V8.50098C13 8.77698 12.776 9.00098 12.5 9.00098Z" fill="black"/>
</svg>
