<svg width="24" height="24" viewBox="0 0 24 24" fill="none" xmlns="http://www.w3.org/2000/svg">
<path d="M12.0103 17.0013C11.1603 17.0013 10.3003 16.7813 9.63031 16.3513L3.61031 12.4213C2.49031 11.6913 1.82031 10.4613 1.82031 9.12126C1.82031 7.78126 2.49031 6.55126 3.61031 5.82126L9.64031 1.90126C10.9803 1.03126 13.0703 1.03126 14.4003 1.91126L20.3903 5.84126C21.5003 6.57126 22.1703 7.80126 22.1703 9.13126C22.1703 10.4613 21.5003 11.6913 20.3903 12.4213L14.4003 16.3513C13.7303 16.7913 12.8703 17.0013 12.0103 17.0013ZM12.0103 2.75126C11.4403 2.75126 10.8703 2.88126 10.4603 3.16126L4.44031 7.08126C3.74031 7.54126 3.33031 8.28126 3.33031 9.12126C3.33031 9.96126 3.73031 10.7013 4.44031 11.1613L10.4603 15.0913C11.2903 15.6313 12.7503 15.6313 13.5803 15.0913L19.5703 11.1613C20.2703 10.7013 20.6703 9.96126 20.6703 9.12126C20.6703 8.28126 20.2703 7.54126 19.5703 7.08126L13.5803 3.15126C13.1603 2.89126 12.5903 2.75126 12.0103 2.75126Z" fill="black"/>
<path d="M11.9992 22.7481C11.5592 22.7481 11.1092 22.6881 10.7492 22.5681L7.5592 21.5081C6.0492 21.0081 4.8592 19.3581 4.8692 17.7681L4.8792 13.0781C4.8792 12.6681 5.2192 12.3281 5.6292 12.3281C6.0392 12.3281 6.3792 12.6681 6.3792 13.0781L6.3692 17.7681C6.3692 18.7081 7.1492 19.7881 8.0392 20.0881L11.2292 21.1481C11.6292 21.2781 12.3692 21.2781 12.7692 21.1481L15.9592 20.0881C16.8492 19.7881 17.6292 18.7081 17.6292 17.7781V13.1381C17.6292 12.7281 17.9692 12.3881 18.3792 12.3881C18.7892 12.3881 19.1292 12.7281 19.1292 13.1381V17.7781C19.1292 19.3681 17.9492 21.0081 16.4392 21.5181L13.2492 22.5781C12.8892 22.6881 12.4392 22.7481 11.9992 22.7481Z" fill="black"/>
<path d="M21.4004 15.75C20.9904 15.75 20.6504 15.41 20.6504 15V9C20.6504 8.59 20.9904 8.25 21.4004 8.25C21.8104 8.25 22.1504 8.59 22.1504 9V15C22.1504 15.41 21.8104 15.75 21.4004 15.75Z" fill="black"/>
</svg>
