<svg width="24" height="24" viewBox="0 0 24 24" fill="none" xmlns="http://www.w3.org/2000/svg">
<path d="M19.6416 4.01386C19.4653 4.02165 19.2872 4.05088 19.1094 4.1037L3.6084 8.71112C2.65793 8.99432 2 9.87566 2 10.8683V13.1301C2 14.1228 2.65793 15.0041 3.6084 15.2873L6.10645 16.0295C5.88531 17.9241 6.97798 19.7768 8.86621 20.3351C10.7503 20.8917 12.6701 19.936 13.5176 18.2326L19.1084 19.8947C20.5314 20.318 22 19.2233 22 17.7385V6.25995C22 5.14653 21.1743 4.25221 20.1611 4.05292C19.9923 4.0197 19.8179 4.00606 19.6416 4.01386ZM19.7207 5.508C20.1445 5.48184 20.5 5.80369 20.5 6.25995V17.7385C20.5 18.2606 20.0361 18.6059 19.5361 18.4572L4.03613 13.8488C3.71537 13.7526 3.5 13.4649 3.5 13.1301V10.8683C3.5 10.5335 3.71537 10.2458 4.03613 10.1496L19.5361 5.5412C19.5986 5.52264 19.6602 5.51173 19.7207 5.508ZM7.54199 16.4562L12.082 17.8058C11.502 18.7353 10.3981 19.2237 9.29102 18.8967C8.18155 18.5686 7.52028 17.5545 7.54199 16.4562Z" fill="black"/>
</svg>
