<svg version="1.1" id="Layer_1" xmlns="http://www.w3.org/2000/svg" x="0" y="0" viewBox="0 0 246 246" xml:space="preserve" fill='currentColor'><style>.st1{fill:none}.st3{fill-rule:evenodd;clip-rule:evenodd}</style><path d="M0 0h100v100H0z" transform="matrix(.06 0 0 .06 66 12)"/><path d="M0 0h100v100H0z" transform="matrix(.06 0 0 .06 72 12)"/><path d="M0 0h100v100H0z" transform="matrix(.06 0 0 .06 84 12)"/><path d="M0 0h100v100H0z" transform="matrix(.06 0 0 .06 90 12)"/><path d="M0 0h100v100H0z" transform="matrix(.06 0 0 .06 102 12)"/><path d="M0 0h100v100H0z" transform="matrix(.06 0 0 .06 114 12)"/><path d="M0 0h100v100H0z" transform="matrix(.06 0 0 .06 120 12)"/><path d="M0 0h100v100H0z" transform="matrix(.06 0 0 .06 144 12)"/><path d="M0 0h100v100H0z" transform="matrix(.06 0 0 .06 150 12)"/><path d="M0 0h100v100H0z" transform="matrix(.06 0 0 .06 174 12)"/><path d="M0 0h100v100H0z" transform="matrix(.06 0 0 .06 180 12)"/><path d="M0 0h100v100H0z" transform="matrix(.06 0 0 .06 60 18)"/><path d="M0 0h100v100H0z" transform="matrix(.06 0 0 .06 66 18)"/><path d="M0 0h100v100H0z" transform="matrix(.06 0 0 .06 72 18)"/><path d="M0 0h100v100H0z" transform="matrix(.06 0 0 .06 102 18)"/><path d="M0 0h100v100H0z" transform="matrix(.06 0 0 .06 114 18)"/><path d="M0 0h100v100H0z" transform="matrix(.06 0 0 .06 132 18)"/><path d="M0 0h100v100H0z" transform="matrix(.06 0 0 .06 138 18)"/><path d="M0 0h100v100H0z" transform="matrix(.06 0 0 .06 144 18)"/><path d="M0 0h100v100H0z" transform="matrix(.06 0 0 .06 66 24)"/><path d="M0 0h100v100H0z" transform="matrix(.06 0 0 .06 72 24)"/><path d="M0 0h100v100H0z" transform="matrix(.06 0 0 .06 84 24)"/><path d="M0 0h100v100H0z" transform="matrix(.06 0 0 .06 102 24)"/><path d="M0 0h100v100H0z" transform="matrix(.06 0 0 .06 126 24)"/><path d="M0 0h100v100H0z" transform="matrix(.06 0 0 .06 132 24)"/><path d="M0 0h100v100H0z" transform="matrix(.06 0 0 .06 138 24)"/><path d="M0 0h100v100H0z" transform="matrix(.06 0 0 .06 144 24)"/><path d="M0 0h100v100H0z" transform="matrix(.06 0 0 .06 156 24)"/><path d="M0 0h100v100H0z" transform="matrix(.06 0 0 .06 168 24)"/><path d="M0 0h100v100H0z" transform="matrix(.06 0 0 .06 174 24)"/><path d="M0 0h100v100H0z" transform="matrix(.06 0 0 .06 78 30)"/><path d="M0 0h100v100H0z" transform="matrix(.06 0 0 .06 102 30)"/><path d="M0 0h100v100H0z" transform="matrix(.06 0 0 .06 108 30)"/><path d="M0 0h100v100H0z" transform="matrix(.06 0 0 .06 114 30)"/><path d="M0 0h100v100H0z" transform="matrix(.06 0 0 .06 120 30)"/><path d="M0 0h100v100H0z" transform="matrix(.06 0 0 .06 126 30)"/><path d="M0 0h100v100H0z" transform="matrix(.06 0 0 .06 138 30)"/><path d="M0 0h100v100H0z" transform="matrix(.06 0 0 .06 150 30)"/><path d="M0 0h100v100H0z" transform="matrix(.06 0 0 .06 156 30)"/><path d="M0 0h100v100H0z" transform="matrix(.06 0 0 .06 162 30)"/><path d="M0 0h100v100H0z" transform="matrix(.06 0 0 .06 168 30)"/><path d="M0 0h100v100H0z" transform="matrix(.06 0 0 .06 180 30)"/><path d="M0 0h100v100H0z" transform="matrix(.06 0 0 .06 66 36)"/><path d="M0 0h100v100H0z" transform="matrix(.06 0 0 .06 72 36)"/><path d="M0 0h100v100H0z" transform="matrix(.06 0 0 .06 84 36)"/><path d="M0 0h100v100H0z" transform="matrix(.06 0 0 .06 102 36)"/><path d="M0 0h100v100H0z" transform="matrix(.06 0 0 .06 108 36)"/><path d="M0 0h100v100H0z" transform="matrix(.06 0 0 .06 114 36)"/><path d="M0 0h100v100H0z" transform="matrix(.06 0 0 .06 126 36)"/><path d="M0 0h100v100H0z" transform="matrix(.06 0 0 .06 138 36)"/><path d="M0 0h100v100H0z" transform="matrix(.06 0 0 .06 162 36)"/><path d="M0 0h100v100H0z" transform="matrix(.06 0 0 .06 174 36)"/><path d="M0 0h100v100H0z" transform="matrix(.06 0 0 .06 60 42)"/><path d="M0 0h100v100H0z" transform="matrix(.06 0 0 .06 78 42)"/><path d="M0 0h100v100H0z" transform="matrix(.06 0 0 .06 90 42)"/><path d="M0 0h100v100H0z" transform="matrix(.06 0 0 .06 96 42)"/><path d="M0 0h100v100H0z" transform="matrix(.06 0 0 .06 102 42)"/><path d="M0 0h100v100H0z" transform="matrix(.06 0 0 .06 108 42)"/><path d="M0 0h100v100H0z" transform="matrix(.06 0 0 .06 114 42)"/><path d="M0 0h100v100H0z" transform="matrix(.06 0 0 .06 120 42)"/><path d="M0 0h100v100H0z" transform="matrix(.06 0 0 .06 126 42)"/><path d="M0 0h100v100H0z" transform="matrix(.06 0 0 .06 132 42)"/><path d="M0 0h100v100H0z" transform="matrix(.06 0 0 .06 138 42)"/><path d="M0 0h100v100H0z" transform="matrix(.06 0 0 .06 144 42)"/><path d="M0 0h100v100H0z" transform="matrix(.06 0 0 .06 162 42)"/><path d="M0 0h100v100H0z" transform="matrix(.06 0 0 .06 168 42)"/><path d="M0 0h100v100H0z" transform="matrix(.06 0 0 .06 180 42)"/><path d="M0 0h100v100H0z" transform="matrix(.06 0 0 .06 60 48)"/><path d="M0 0h100v100H0z" transform="matrix(.06 0 0 .06 72 48)"/><path d="M0 0h100v100H0z" transform="matrix(.06 0 0 .06 84 48)"/><path d="M0 0h100v100H0z" transform="matrix(.06 0 0 .06 96 48)"/><path d="M0 0h100v100H0z" transform="matrix(.06 0 0 .06 108 48)"/><path d="M0 0h100v100H0z" transform="matrix(.06 0 0 .06 120 48)"/><path d="M0 0h100v100H0z" transform="matrix(.06 0 0 .06 132 48)"/><path d="M0 0h100v100H0z" transform="matrix(.06 0 0 .06 144 48)"/><path d="M0 0h100v100H0z" transform="matrix(.06 0 0 .06 156 48)"/><path d="M0 0h100v100H0z" transform="matrix(.06 0 0 .06 168 48)"/><path d="M0 0h100v100H0z" transform="matrix(.06 0 0 .06 180 48)"/><path d="M0 0h100v100H0z" transform="matrix(.06 0 0 .06 60 54)"/><path d="M0 0h100v100H0z" transform="matrix(.06 0 0 .06 66 54)"/><path d="M0 0h100v100H0z" transform="matrix(.06 0 0 .06 114 54)"/><path d="M0 0h100v100H0z" transform="matrix(.06 0 0 .06 120 54)"/><path d="M0 0h100v100H0z" transform="matrix(.06 0 0 .06 126 54)"/><path d="M0 0h100v100H0z" transform="matrix(.06 0 0 .06 144 54)"/><path d="M0 0h100v100H0z" transform="matrix(.06 0 0 .06 156 54)"/><path d="M0 0h100v100H0z" transform="matrix(.06 0 0 .06 168 54)"/><path d="M0 0h100v100H0z" transform="matrix(.06 0 0 .06 36 60)"/><path d="M0 0h100v100H0z" transform="matrix(.06 0 0 .06 42 60)"/><path d="M0 0h100v100H0z" transform="matrix(.06 0 0 .06 48 60)"/><path d="M0 0h100v100H0z" transform="matrix(.06 0 0 .06 54 60)"/><path d="M0 0h100v100H0z" transform="matrix(.06 0 0 .06 72 60)"/><path d="M0 0h100v100H0z" transform="matrix(.06 0 0 .06 78 60)"/><path d="M0 0h100v100H0z" transform="matrix(.06 0 0 .06 90 60)"/><path d="M0 0h100v100H0z" transform="matrix(.06 0 0 .06 96 60)"/><path d="M0 0h100v100H0z" transform="matrix(.06 0 0 .06 114 60)"/><path d="M0 0h100v100H0z" transform="matrix(.06 0 0 .06 120 60)"/><path d="M0 0h100v100H0z" transform="matrix(.06 0 0 .06 132 60)"/><path d="M0 0h100v100H0z" transform="matrix(.06 0 0 .06 144 60)"/><path d="M0 0h100v100H0z" transform="matrix(.06 0 0 .06 150 60)"/><path d="M0 0h100v100H0z" transform="matrix(.06 0 0 .06 162 60)"/><path d="M0 0h100v100H0z" transform="matrix(.06 0 0 .06 168 60)"/><path d="M0 0h100v100H0z" transform="matrix(.06 0 0 .06 174 60)"/><path d="M0 0h100v100H0z" transform="matrix(.06 0 0 .06 192 60)"/><path d="M0 0h100v100H0z" transform="matrix(.06 0 0 .06 198 60)"/><path d="M0 0h100v100H0z" transform="matrix(.06 0 0 .06 222 60)"/><path d="M0 0h100v100H0z" transform="matrix(.06 0 0 .06 18 66)"/><path d="M0 0h100v100H0z" transform="matrix(.06 0 0 .06 24 66)"/><path d="M0 0h100v100H0z" transform="matrix(.06 0 0 .06 30 66)"/><path d="M0 0h100v100H0z" transform="matrix(.06 0 0 .06 36 66)"/><path d="M0 0h100v100H0z" transform="matrix(.06 0 0 .06 42 66)"/><path d="M0 0h100v100H0z" transform="matrix(.06 0 0 .06 60 66)"/><path d="M0 0h100v100H0z" transform="matrix(.06 0 0 .06 66 66)"/><path d="M0 0h100v100H0z" transform="matrix(.06 0 0 .06 78 66)"/><path d="M0 0h100v100H0z" transform="matrix(.06 0 0 .06 90 66)"/><path d="M0 0h100v100H0z" transform="matrix(.06 0 0 .06 120 66)"/><path d="M0 0h100v100H0z" transform="matrix(.06 0 0 .06 132 66)"/><path d="M0 0h100v100H0z" transform="matrix(.06 0 0 .06 156 66)"/><path d="M0 0h100v100H0z" transform="matrix(.06 0 0 .06 180 66)"/><path d="M0 0h100v100H0z" transform="matrix(.06 0 0 .06 186 66)"/><path d="M0 0h100v100H0z" transform="matrix(.06 0 0 .06 192 66)"/><path d="M0 0h100v100H0z" transform="matrix(.06 0 0 .06 198 66)"/><path d="M0 0h100v100H0z" transform="matrix(.06 0 0 .06 204 66)"/><path d="M0 0h100v100H0z" transform="matrix(.06 0 0 .06 18 72)"/><path d="M0 0h100v100H0z" transform="matrix(.06 0 0 .06 24 72)"/><path d="M0 0h100v100H0z" transform="matrix(.06 0 0 .06 42 72)"/><path d="M0 0h100v100H0z" transform="matrix(.06 0 0 .06 48 72)"/><path d="M0 0h100v100H0z" transform="matrix(.06 0 0 .06 66 72)"/><path d="M0 0h100v100H0z" transform="matrix(.06 0 0 .06 90 72)"/><path d="M0 0h100v100H0z" transform="matrix(.06 0 0 .06 108 72)"/><path d="M0 0h100v100H0z" transform="matrix(.06 0 0 .06 120 72)"/><path d="M0 0h100v100H0z" transform="matrix(.06 0 0 .06 132 72)"/><path d="M0 0h100v100H0z" transform="matrix(.06 0 0 .06 144 72)"/><path d="M0 0h100v100H0z" transform="matrix(.06 0 0 .06 162 72)"/><path d="M0 0h100v100H0z" transform="matrix(.06 0 0 .06 168 72)"/><path d="M0 0h100v100H0z" transform="matrix(.06 0 0 .06 180 72)"/><path d="M0 0h100v100H0z" transform="matrix(.06 0 0 .06 186 72)"/><path d="M0 0h100v100H0z" transform="matrix(.06 0 0 .06 198 72)"/><path d="M0 0h100v100H0z" transform="matrix(.06 0 0 .06 216 72)"/><path d="M0 0h100v100H0z" transform="matrix(.06 0 0 .06 30 78)"/><path d="M0 0h100v100H0z" transform="matrix(.06 0 0 .06 42 78)"/><path d="M0 0h100v100H0z" transform="matrix(.06 0 0 .06 90 78)"/><path d="M0 0h100v100H0z" transform="matrix(.06 0 0 .06 126 78)"/><path d="M0 0h100v100H0z" transform="matrix(.06 0 0 .06 138 78)"/><path d="M0 0h100v100H0z" transform="matrix(.06 0 0 .06 144 78)"/><path d="M0 0h100v100H0z" transform="matrix(.06 0 0 .06 168 78)"/><path d="M0 0h100v100H0z" transform="matrix(.06 0 0 .06 186 78)"/><path d="M0 0h100v100H0z" transform="matrix(.06 0 0 .06 216 78)"/><path d="M0 0h100v100H0z" transform="matrix(.06 0 0 .06 228 78)"/><path d="M0 0h100v100H0z" transform="matrix(.06 0 0 .06 24 84)"/><path d="M0 0h100v100H0z" transform="matrix(.06 0 0 .06 48 84)"/><path d="M0 0h100v100H0z" transform="matrix(.06 0 0 .06 54 84)"/><path d="M0 0h100v100H0z" transform="matrix(.06 0 0 .06 72 84)"/><path d="M0 0h100v100H0z" transform="matrix(.06 0 0 .06 84 84)"/><path d="M0 0h100v100H0z" transform="matrix(.06 0 0 .06 90 84)"/><path d="M0 0h100v100H0z" transform="matrix(.06 0 0 .06 120 84)"/><path d="M0 0h100v100H0z" transform="matrix(.06 0 0 .06 126 84)"/><path d="M0 0h100v100H0z" transform="matrix(.06 0 0 .06 150 84)"/><path d="M0 0h100v100H0z" transform="matrix(.06 0 0 .06 156 84)"/><path d="M0 0h100v100H0z" transform="matrix(.06 0 0 .06 174 84)"/><path d="M0 0h100v100H0z" transform="matrix(.06 0 0 .06 186 84)"/><path d="M0 0h100v100H0z" transform="matrix(.06 0 0 .06 192 84)"/><path d="M0 0h100v100H0z" transform="matrix(.06 0 0 .06 198 84)"/><path d="M0 0h100v100H0z" transform="matrix(.06 0 0 .06 216 84)"/><path d="M0 0h100v100H0z" transform="matrix(.06 0 0 .06 222 84)"/><path d="M0 0h100v100H0z" transform="matrix(.06 0 0 .06 12 90)"/><path d="M0 0h100v100H0z" transform="matrix(.06 0 0 .06 18 90)"/><path d="M0 0h100v100H0z" transform="matrix(.06 0 0 .06 30 90)"/><path d="M0 0h100v100H0z" transform="matrix(.06 0 0 .06 36 90)"/><path d="M0 0h100v100H0z" transform="matrix(.06 0 0 .06 54 90)"/><path d="M0 0h100v100H0z" transform="matrix(.06 0 0 .06 60 90)"/><path d="M0 0h100v100H0z" transform="matrix(.06 0 0 .06 66 90)"/><path d="M0 0h100v100H0z" transform="matrix(.06 0 0 .06 168 90)"/><path d="M0 0h100v100H0z" transform="matrix(.06 0 0 .06 174 90)"/><path d="M0 0h100v100H0z" transform="matrix(.06 0 0 .06 180 90)"/><path d="M0 0h100v100H0z" transform="matrix(.06 0 0 .06 186 90)"/><path d="M0 0h100v100H0z" transform="matrix(.06 0 0 .06 204 90)"/><path d="M0 0h100v100H0z" transform="matrix(.06 0 0 .06 216 90)"/><path d="M0 0h100v100H0z" transform="matrix(.06 0 0 .06 18 96)"/><path d="M0 0h100v100H0z" transform="matrix(.06 0 0 .06 30 96)"/><path d="M0 0h100v100H0z" transform="matrix(.06 0 0 .06 36 96)"/><path d="M0 0h100v100H0z" transform="matrix(.06 0 0 .06 48 96)"/><path d="M0 0h100v100H0z" transform="matrix(.06 0 0 .06 60 96)"/><path d="M0 0h100v100H0z" transform="matrix(.06 0 0 .06 66 96)"/><path d="M0 0h100v100H0z" transform="matrix(.06 0 0 .06 72 96)"/><path d="M0 0h100v100H0z" transform="matrix(.06 0 0 .06 78 96)"/><path d="M0 0h100v100H0z" transform="matrix(.06 0 0 .06 156 96)"/><path d="M0 0h100v100H0z" transform="matrix(.06 0 0 .06 174 96)"/><path d="M0 0h100v100H0z" transform="matrix(.06 0 0 .06 180 96)"/><path d="M0 0h100v100H0z" transform="matrix(.06 0 0 .06 186 96)"/><path d="M0 0h100v100H0z" transform="matrix(.06 0 0 .06 198 96)"/><path d="M0 0h100v100H0z" transform="matrix(.06 0 0 .06 210 96)"/><path d="M0 0h100v100H0z" transform="matrix(.06 0 0 .06 216 96)"/><path d="M0 0h100v100H0z" transform="matrix(.06 0 0 .06 18 102)"/><path d="M0 0h100v100H0z" transform="matrix(.06 0 0 .06 42 102)"/><path d="M0 0h100v100H0z" transform="matrix(.06 0 0 .06 54 102)"/><path d="M0 0h100v100H0z" transform="matrix(.06 0 0 .06 60 102)"/><path d="M0 0h100v100H0z" transform="matrix(.06 0 0 .06 66 102)"/><path d="M0 0h100v100H0z" transform="matrix(.06 0 0 .06 78 102)"/><path d="M0 0h100v100H0z" transform="matrix(.06 0 0 .06 168 102)"/><path d="M0 0h100v100H0z" transform="matrix(.06 0 0 .06 174 102)"/><path d="M0 0h100v100H0z" transform="matrix(.06 0 0 .06 192 102)"/><path d="M0 0h100v100H0z" transform="matrix(.06 0 0 .06 198 102)"/><path d="M0 0h100v100H0z" transform="matrix(.06 0 0 .06 216 102)"/><path d="M0 0h100v100H0z" transform="matrix(.06 0 0 .06 24 108)"/><path d="M0 0h100v100H0z" transform="matrix(.06 0 0 .06 36 108)"/><path d="M0 0h100v100H0z" transform="matrix(.06 0 0 .06 48 108)"/><path d="M0 0h100v100H0z" transform="matrix(.06 0 0 .06 72 108)"/><path d="M0 0h100v100H0z" transform="matrix(.06 0 0 .06 78 108)"/><path d="M0 0h100v100H0z" transform="matrix(.06 0 0 .06 168 108)"/><path d="M0 0h100v100H0z" transform="matrix(.06 0 0 .06 186 108)"/><path d="M0 0h100v100H0z" transform="matrix(.06 0 0 .06 192 108)"/><path d="M0 0h100v100H0z" transform="matrix(.06 0 0 .06 198 108)"/><path d="M0 0h100v100H0z" transform="matrix(.06 0 0 .06 210 108)"/><path d="M0 0h100v100H0z" transform="matrix(.06 0 0 .06 216 108)"/><path d="M0 0h100v100H0z" transform="matrix(.06 0 0 .06 12 114)"/><path d="M0 0h100v100H0z" transform="matrix(.06 0 0 .06 18 114)"/><path d="M0 0h100v100H0z" transform="matrix(.06 0 0 .06 24 114)"/><path d="M0 0h100v100H0z" transform="matrix(.06 0 0 .06 36 114)"/><path d="M0 0h100v100H0z" transform="matrix(.06 0 0 .06 72 114)"/><path d="M0 0h100v100H0z" transform="matrix(.06 0 0 .06 78 114)"/><path d="M0 0h100v100H0z" transform="matrix(.06 0 0 .06 84 114)"/><path d="M0 0h100v100H0z" transform="matrix(.06 0 0 .06 156 114)"/><path d="M0 0h100v100H0z" transform="matrix(.06 0 0 .06 162 114)"/><path d="M0 0h100v100H0z" transform="matrix(.06 0 0 .06 168 114)"/><path d="M0 0h100v100H0z" transform="matrix(.06 0 0 .06 174 114)"/><path d="M0 0h100v100H0z" transform="matrix(.06 0 0 .06 180 114)"/><path d="M0 0h100v100H0z" transform="matrix(.06 0 0 .06 204 114)"/><path d="M0 0h100v100H0z" transform="matrix(.06 0 0 .06 210 114)"/><path d="M0 0h100v100H0z" transform="matrix(.06 0 0 .06 216 114)"/><path d="M0 0h100v100H0z" transform="matrix(.06 0 0 .06 12 120)"/><path d="M0 0h100v100H0z" transform="matrix(.06 0 0 .06 36 120)"/><path d="M0 0h100v100H0z" transform="matrix(.06 0 0 .06 48 120)"/><path d="M0 0h100v100H0z" transform="matrix(.06 0 0 .06 54 120)"/><path d="M0 0h100v100H0z" transform="matrix(.06 0 0 .06 72 120)"/><path d="M0 0h100v100H0z" transform="matrix(.06 0 0 .06 84 120)"/><path d="M0 0h100v100H0z" transform="matrix(.06 0 0 .06 162 120)"/><path d="M0 0h100v100H0z" transform="matrix(.06 0 0 .06 168 120)"/><path d="M0 0h100v100H0z" transform="matrix(.06 0 0 .06 174 120)"/><path d="M0 0h100v100H0z" transform="matrix(.06 0 0 .06 180 120)"/><path d="M0 0h100v100H0z" transform="matrix(.06 0 0 .06 192 120)"/><path d="M0 0h100v100H0z" transform="matrix(.06 0 0 .06 198 120)"/><path d="M0 0h100v100H0z" transform="matrix(.06 0 0 .06 204 120)"/><path d="M0 0h100v100H0z" transform="matrix(.06 0 0 .06 210 120)"/><path d="M0 0h100v100H0z" transform="matrix(.06 0 0 .06 12 126)"/><path d="M0 0h100v100H0z" transform="matrix(.06 0 0 .06 42 126)"/><path d="M0 0h100v100H0z" transform="matrix(.06 0 0 .06 168 126)"/><path d="M0 0h100v100H0z" transform="matrix(.06 0 0 .06 174 126)"/><path d="M0 0h100v100H0z" transform="matrix(.06 0 0 .06 186 126)"/><path d="M0 0h100v100H0z" transform="matrix(.06 0 0 .06 192 126)"/><path d="M0 0h100v100H0z" transform="matrix(.06 0 0 .06 198 126)"/><path d="M0 0h100v100H0z" transform="matrix(.06 0 0 .06 204 126)"/><path d="M0 0h100v100H0z" transform="matrix(.06 0 0 .06 216 126)"/><path d="M0 0h100v100H0z" transform="matrix(.06 0 0 .06 228 126)"/><path d="M0 0h100v100H0z" transform="matrix(.06 0 0 .06 24 132)"/><path d="M0 0h100v100H0z" transform="matrix(.06 0 0 .06 36 132)"/><path d="M0 0h100v100H0z" transform="matrix(.06 0 0 .06 48 132)"/><path d="M0 0h100v100H0z" transform="matrix(.06 0 0 .06 54 132)"/><path d="M0 0h100v100H0z" transform="matrix(.06 0 0 .06 60 132)"/><path d="M0 0h100v100H0z" transform="matrix(.06 0 0 .06 66 132)"/><path d="M0 0h100v100H0z" transform="matrix(.06 0 0 .06 156 132)"/><path d="M0 0h100v100H0z" transform="matrix(.06 0 0 .06 174 132)"/><path d="M0 0h100v100H0z" transform="matrix(.06 0 0 .06 192 132)"/><path d="M0 0h100v100H0z" transform="matrix(.06 0 0 .06 216 132)"/><path d="M0 0h100v100H0z" transform="matrix(.06 0 0 .06 228 132)"/><path d="M0 0h100v100H0z" transform="matrix(.06 0 0 .06 12 138)"/><path d="M0 0h100v100H0z" transform="matrix(.06 0 0 .06 30 138)"/><path d="M0 0h100v100H0z" transform="matrix(.06 0 0 .06 42 138)"/><path d="M0 0h100v100H0z" transform="matrix(.06 0 0 .06 54 138)"/><path d="M0 0h100v100H0z" transform="matrix(.06 0 0 .06 72 138)"/><path d="M0 0h100v100H0z" transform="matrix(.06 0 0 .06 156 138)"/><path d="M0 0h100v100H0z" transform="matrix(.06 0 0 .06 168 138)"/><path d="M0 0h100v100H0z" transform="matrix(.06 0 0 .06 174 138)"/><path d="M0 0h100v100H0z" transform="matrix(.06 0 0 .06 204 138)"/><path d="M0 0h100v100H0z" transform="matrix(.06 0 0 .06 210 138)"/><path d="M0 0h100v100H0z" transform="matrix(.06 0 0 .06 216 138)"/><path d="M0 0h100v100H0z" transform="matrix(.06 0 0 .06 18 144)"/><path d="M0 0h100v100H0z" transform="matrix(.06 0 0 .06 24 144)"/><path d="M0 0h100v100H0z" transform="matrix(.06 0 0 .06 30 144)"/><path d="M0 0h100v100H0z" transform="matrix(.06 0 0 .06 36 144)"/><path d="M0 0h100v100H0z" transform="matrix(.06 0 0 .06 48 144)"/><path d="M0 0h100v100H0z" transform="matrix(.06 0 0 .06 54 144)"/><path d="M0 0h100v100H0z" transform="matrix(.06 0 0 .06 60 144)"/><path d="M0 0h100v100H0z" transform="matrix(.06 0 0 .06 66 144)"/><path d="M0 0h100v100H0z" transform="matrix(.06 0 0 .06 78 144)"/><path d="M0 0h100v100H0z" transform="matrix(.06 0 0 .06 84 144)"/><path d="M0 0h100v100H0z" transform="matrix(.06 0 0 .06 156 144)"/><path d="M0 0h100v100H0z" transform="matrix(.06 0 0 .06 162 144)"/><path d="M0 0h100v100H0z" transform="matrix(.06 0 0 .06 168 144)"/><path d="M0 0h100v100H0z" transform="matrix(.06 0 0 .06 174 144)"/><path d="M0 0h100v100H0z" transform="matrix(.06 0 0 .06 180 144)"/><path d="M0 0h100v100H0z" transform="matrix(.06 0 0 .06 192 144)"/><path d="M0 0h100v100H0z" transform="matrix(.06 0 0 .06 216 144)"/><path d="M0 0h100v100H0z" transform="matrix(.06 0 0 .06 12 150)"/><path d="M0 0h100v100H0z" transform="matrix(.06 0 0 .06 18 150)"/><path d="M0 0h100v100H0z" transform="matrix(.06 0 0 .06 24 150)"/><path d="M0 0h100v100H0z" transform="matrix(.06 0 0 .06 36 150)"/><path d="M0 0h100v100H0z" transform="matrix(.06 0 0 .06 60 150)"/><path d="M0 0h100v100H0z" transform="matrix(.06 0 0 .06 78 150)"/><path d="M0 0h100v100H0z" transform="matrix(.06 0 0 .06 84 150)"/><path d="M0 0h100v100H0z" transform="matrix(.06 0 0 .06 162 150)"/><path d="M0 0h100v100H0z" transform="matrix(.06 0 0 .06 180 150)"/><path d="M0 0h100v100H0z" transform="matrix(.06 0 0 .06 186 150)"/><path d="M0 0h100v100H0z" transform="matrix(.06 0 0 .06 192 150)"/><path d="M0 0h100v100H0z" transform="matrix(.06 0 0 .06 198 150)"/><path d="M0 0h100v100H0z" transform="matrix(.06 0 0 .06 210 150)"/><path d="M0 0h100v100H0z" transform="matrix(.06 0 0 .06 216 150)"/><path d="M0 0h100v100H0z" transform="matrix(.06 0 0 .06 228 150)"/><path d="M0 0h100v100H0z" transform="matrix(.06 0 0 .06 12 156)"/><path d="M0 0h100v100H0z" transform="matrix(.06 0 0 .06 24 156)"/><path d="M0 0h100v100H0z" transform="matrix(.06 0 0 .06 48 156)"/><path d="M0 0h100v100H0z" transform="matrix(.06 0 0 .06 66 156)"/><path d="M0 0h100v100H0z" transform="matrix(.06 0 0 .06 78 156)"/><path d="M0 0h100v100H0z" transform="matrix(.06 0 0 .06 84 156)"/><path d="M0 0h100v100H0z" transform="matrix(.06 0 0 .06 90 156)"/><path d="M0 0h100v100H0z" transform="matrix(.06 0 0 .06 96 156)"/><path d="M0 0h100v100H0z" transform="matrix(.06 0 0 .06 108 156)"/><path d="M0 0h100v100H0z" transform="matrix(.06 0 0 .06 126 156)"/><path d="M0 0h100v100H0z" transform="matrix(.06 0 0 .06 138 156)"/><path d="M0 0h100v100H0z" transform="matrix(.06 0 0 .06 144 156)"/><path d="M0 0h100v100H0z" transform="matrix(.06 0 0 .06 150 156)"/><path d="M0 0h100v100H0z" transform="matrix(.06 0 0 .06 156 156)"/><path d="M0 0h100v100H0z" transform="matrix(.06 0 0 .06 162 156)"/><path d="M0 0h100v100H0z" transform="matrix(.06 0 0 .06 174 156)"/><path d="M0 0h100v100H0z" transform="matrix(.06 0 0 .06 180 156)"/><path d="M0 0h100v100H0z" transform="matrix(.06 0 0 .06 186 156)"/><path d="M0 0h100v100H0z" transform="matrix(.06 0 0 .06 198 156)"/><path d="M0 0h100v100H0z" transform="matrix(.06 0 0 .06 204 156)"/><path d="M0 0h100v100H0z" transform="matrix(.06 0 0 .06 216 156)"/><path d="M0 0h100v100H0z" transform="matrix(.06 0 0 .06 222 156)"/><path d="M0 0h100v100H0z" transform="matrix(.06 0 0 .06 12 162)"/><path d="M0 0h100v100H0z" transform="matrix(.06 0 0 .06 18 162)"/><path d="M0 0h100v100H0z" transform="matrix(.06 0 0 .06 24 162)"/><path d="M0 0h100v100H0z" transform="matrix(.06 0 0 .06 36 162)"/><path d="M0 0h100v100H0z" transform="matrix(.06 0 0 .06 42 162)"/><path d="M0 0h100v100H0z" transform="matrix(.06 0 0 .06 54 162)"/><path d="M0 0h100v100H0z" transform="matrix(.06 0 0 .06 60 162)"/><path d="M0 0h100v100H0z" transform="matrix(.06 0 0 .06 66 162)"/><path d="M0 0h100v100H0z" transform="matrix(.06 0 0 .06 72 162)"/><path d="M0 0h100v100H0z" transform="matrix(.06 0 0 .06 84 162)"/><path d="M0 0h100v100H0z" transform="matrix(.06 0 0 .06 90 162)"/><path d="M0 0h100v100H0z" transform="matrix(.06 0 0 .06 96 162)"/><path d="M0 0h100v100H0z" transform="matrix(.06 0 0 .06 102 162)"/><path d="M0 0h100v100H0z" transform="matrix(.06 0 0 .06 126 162)"/><path d="M0 0h100v100H0z" transform="matrix(.06 0 0 .06 138 162)"/><path d="M0 0h100v100H0z" transform="matrix(.06 0 0 .06 162 162)"/><path d="M0 0h100v100H0z" transform="matrix(.06 0 0 .06 168 162)"/><path d="M0 0h100v100H0z" transform="matrix(.06 0 0 .06 192 162)"/><path d="M0 0h100v100H0z" transform="matrix(.06 0 0 .06 210 162)"/><path d="M0 0h100v100H0z" transform="matrix(.06 0 0 .06 24 168)"/><path d="M0 0h100v100H0z" transform="matrix(.06 0 0 .06 30 168)"/><path d="M0 0h100v100H0z" transform="matrix(.06 0 0 .06 36 168)"/><path d="M0 0h100v100H0z" transform="matrix(.06 0 0 .06 48 168)"/><path d="M0 0h100v100H0z" transform="matrix(.06 0 0 .06 72 168)"/><path d="M0 0h100v100H0z" transform="matrix(.06 0 0 .06 84 168)"/><path d="M0 0h100v100H0z" transform="matrix(.06 0 0 .06 96 168)"/><path d="M0 0h100v100H0z" transform="matrix(.06 0 0 .06 114 168)"/><path d="M0 0h100v100H0z" transform="matrix(.06 0 0 .06 162 168)"/><path d="M0 0h100v100H0z" transform="matrix(.06 0 0 .06 174 168)"/><path d="M0 0h100v100H0z" transform="matrix(.06 0 0 .06 186 168)"/><path d="M0 0h100v100H0z" transform="matrix(.06 0 0 .06 204 168)"/><path d="M0 0h100v100H0z" transform="matrix(.06 0 0 .06 210 168)"/><path d="M0 0h100v100H0z" transform="matrix(.06 0 0 .06 216 168)"/><path d="M0 0h100v100H0z" transform="matrix(.06 0 0 .06 42 174)"/><path d="M0 0h100v100H0z" transform="matrix(.06 0 0 .06 54 174)"/><path d="M0 0h100v100H0z" transform="matrix(.06 0 0 .06 102 174)"/><path d="M0 0h100v100H0z" transform="matrix(.06 0 0 .06 132 174)"/><path d="M0 0h100v100H0z" transform="matrix(.06 0 0 .06 156 174)"/><path d="M0 0h100v100H0z" transform="matrix(.06 0 0 .06 168 174)"/><path d="M0 0h100v100H0z" transform="matrix(.06 0 0 .06 174 174)"/><path d="M0 0h100v100H0z" transform="matrix(.06 0 0 .06 180 174)"/><path d="M0 0h100v100H0z" transform="matrix(.06 0 0 .06 192 174)"/><path d="M0 0h100v100H0z" transform="matrix(.06 0 0 .06 198 174)"/><path d="M0 0h100v100H0z" transform="matrix(.06 0 0 .06 204 174)"/><path d="M0 0h100v100H0z" transform="matrix(.06 0 0 .06 210 174)"/><path d="M0 0h100v100H0z" transform="matrix(.06 0 0 .06 216 174)"/><path d="M0 0h100v100H0z" transform="matrix(.06 0 0 .06 228 174)"/><path d="M0 0h100v100H0z" transform="matrix(.06 0 0 .06 12 180)"/><path d="M0 0h100v100H0z" transform="matrix(.06 0 0 .06 18 180)"/><path d="M0 0h100v100H0z" transform="matrix(.06 0 0 .06 24 180)"/><path d="M0 0h100v100H0z" transform="matrix(.06 0 0 .06 36 180)"/><path d="M0 0h100v100H0z" transform="matrix(.06 0 0 .06 42 180)"/><path d="M0 0h100v100H0z" transform="matrix(.06 0 0 .06 48 180)"/><path d="M0 0h100v100H0z" transform="matrix(.06 0 0 .06 54 180)"/><path d="M0 0h100v100H0z" transform="matrix(.06 0 0 .06 66 180)"/><path d="M0 0h100v100H0z" transform="matrix(.06 0 0 .06 90 180)"/><path d="M0 0h100v100H0z" transform="matrix(.06 0 0 .06 108 180)"/><path d="M0 0h100v100H0z" transform="matrix(.06 0 0 .06 114 180)"/><path d="M0 0h100v100H0z" transform="matrix(.06 0 0 .06 120 180)"/><path d="M0 0h100v100H0z" transform="matrix(.06 0 0 .06 132 180)"/><path d="M0 0h100v100H0z" transform="matrix(.06 0 0 .06 138 180)"/><path d="M0 0h100v100H0z" transform="matrix(.06 0 0 .06 150 180)"/><path d="M0 0h100v100H0z" transform="matrix(.06 0 0 .06 156 180)"/><path d="M0 0h100v100H0z" transform="matrix(.06 0 0 .06 180 180)"/><path d="M0 0h100v100H0z" transform="matrix(.06 0 0 .06 186 180)"/><path d="M0 0h100v100H0z" transform="matrix(.06 0 0 .06 192 180)"/><path d="M0 0h100v100H0z" transform="matrix(.06 0 0 .06 198 180)"/><path d="M0 0h100v100H0z" transform="matrix(.06 0 0 .06 204 180)"/><path d="M0 0h100v100H0z" transform="matrix(.06 0 0 .06 228 180)"/><path d="M0 0h100v100H0z" transform="matrix(.06 0 0 .06 60 186)"/><path d="M0 0h100v100H0z" transform="matrix(.06 0 0 .06 66 186)"/><path d="M0 0h100v100H0z" transform="matrix(.06 0 0 .06 72 186)"/><path d="M0 0h100v100H0z" transform="matrix(.06 0 0 .06 84 186)"/><path d="M0 0h100v100H0z" transform="matrix(.06 0 0 .06 96 186)"/><path d="M0 0h100v100H0z" transform="matrix(.06 0 0 .06 114 186)"/><path d="M0 0h100v100H0z" transform="matrix(.06 0 0 .06 132 186)"/><path d="M0 0h100v100H0z" transform="matrix(.06 0 0 .06 138 186)"/><path d="M0 0h100v100H0z" transform="matrix(.06 0 0 .06 144 186)"/><path d="M0 0h100v100H0z" transform="matrix(.06 0 0 .06 150 186)"/><path d="M0 0h100v100H0z" transform="matrix(.06 0 0 .06 168 186)"/><path d="M0 0h100v100H0z" transform="matrix(.06 0 0 .06 180 186)"/><path d="M0 0h100v100H0z" transform="matrix(.06 0 0 .06 204 186)"/><path d="M0 0h100v100H0z" transform="matrix(.06 0 0 .06 210 186)"/><path d="M0 0h100v100H0z" transform="matrix(.06 0 0 .06 60 192)"/><path d="M0 0h100v100H0z" transform="matrix(.06 0 0 .06 72 192)"/><path d="M0 0h100v100H0z" transform="matrix(.06 0 0 .06 78 192)"/><path d="M0 0h100v100H0z" transform="matrix(.06 0 0 .06 90 192)"/><path d="M0 0h100v100H0z" transform="matrix(.06 0 0 .06 96 192)"/><path d="M0 0h100v100H0z" transform="matrix(.06 0 0 .06 102 192)"/><path d="M0 0h100v100H0z" transform="matrix(.06 0 0 .06 126 192)"/><path d="M0 0h100v100H0z" transform="matrix(.06 0 0 .06 138 192)"/><path d="M0 0h100v100H0z" transform="matrix(.06 0 0 .06 150 192)"/><path d="M0 0h100v100H0z" transform="matrix(.06 0 0 .06 162 192)"/><path d="M0 0h100v100H0z" transform="matrix(.06 0 0 .06 168 192)"/><path d="M0 0h100v100H0z" transform="matrix(.06 0 0 .06 180 192)"/><path d="M0 0h100v100H0z" transform="matrix(.06 0 0 .06 192 192)"/><path d="M0 0h100v100H0z" transform="matrix(.06 0 0 .06 204 192)"/><path d="M0 0h100v100H0z" transform="matrix(.06 0 0 .06 210 192)"/><path d="M0 0h100v100H0z" transform="matrix(.06 0 0 .06 216 192)"/><path d="M0 0h100v100H0z" transform="matrix(.06 0 0 .06 60 198)"/><path d="M0 0h100v100H0z" transform="matrix(.06 0 0 .06 78 198)"/><path d="M0 0h100v100H0z" transform="matrix(.06 0 0 .06 84 198)"/><path d="M0 0h100v100H0z" transform="matrix(.06 0 0 .06 120 198)"/><path d="M0 0h100v100H0z" transform="matrix(.06 0 0 .06 126 198)"/><path d="M0 0h100v100H0z" transform="matrix(.06 0 0 .06 132 198)"/><path d="M0 0h100v100H0z" transform="matrix(.06 0 0 .06 144 198)"/><path d="M0 0h100v100H0z" transform="matrix(.06 0 0 .06 150 198)"/><path d="M0 0h100v100H0z" transform="matrix(.06 0 0 .06 156 198)"/><path d="M0 0h100v100H0z" transform="matrix(.06 0 0 .06 180 198)"/><path d="M0 0h100v100H0z" transform="matrix(.06 0 0 .06 204 198)"/><path d="M0 0h100v100H0z" transform="matrix(.06 0 0 .06 216 198)"/><path d="M0 0h100v100H0z" transform="matrix(.06 0 0 .06 228 198)"/><path d="M0 0h100v100H0z" transform="matrix(.06 0 0 .06 60 204)"/><path d="M0 0h100v100H0z" transform="matrix(.06 0 0 .06 66 204)"/><path d="M0 0h100v100H0z" transform="matrix(.06 0 0 .06 102 204)"/><path d="M0 0h100v100H0z" transform="matrix(.06 0 0 .06 132 204)"/><path d="M0 0h100v100H0z" transform="matrix(.06 0 0 .06 150 204)"/><path d="M0 0h100v100H0z" transform="matrix(.06 0 0 .06 180 204)"/><path d="M0 0h100v100H0z" transform="matrix(.06 0 0 .06 186 204)"/><path d="M0 0h100v100H0z" transform="matrix(.06 0 0 .06 192 204)"/><path d="M0 0h100v100H0z" transform="matrix(.06 0 0 .06 198 204)"/><path d="M0 0h100v100H0z" transform="matrix(.06 0 0 .06 204 204)"/><path d="M0 0h100v100H0z" transform="matrix(.06 0 0 .06 210 204)"/><path d="M0 0h100v100H0z" transform="matrix(.06 0 0 .06 216 204)"/><path d="M0 0h100v100H0z" transform="matrix(.06 0 0 .06 222 204)"/><path d="M0 0h100v100H0z" transform="matrix(.06 0 0 .06 66 210)"/><path d="M0 0h100v100H0z" transform="matrix(.06 0 0 .06 84 210)"/><path d="M0 0h100v100H0z" transform="matrix(.06 0 0 .06 90 210)"/><path d="M0 0h100v100H0z" transform="matrix(.06 0 0 .06 132 210)"/><path d="M0 0h100v100H0z" transform="matrix(.06 0 0 .06 138 210)"/><path d="M0 0h100v100H0z" transform="matrix(.06 0 0 .06 156 210)"/><path d="M0 0h100v100H0z" transform="matrix(.06 0 0 .06 168 210)"/><path d="M0 0h100v100H0z" transform="matrix(.06 0 0 .06 174 210)"/><path d="M0 0h100v100H0z" transform="matrix(.06 0 0 .06 180 210)"/><path d="M0 0h100v100H0z" transform="matrix(.06 0 0 .06 192 210)"/><path d="M0 0h100v100H0z" transform="matrix(.06 0 0 .06 198 210)"/><path d="M0 0h100v100H0z" transform="matrix(.06 0 0 .06 210 210)"/><path d="M0 0h100v100H0z" transform="matrix(.06 0 0 .06 216 210)"/><path d="M0 0h100v100H0z" transform="matrix(.06 0 0 .06 66 216)"/><path d="M0 0h100v100H0z" transform="matrix(.06 0 0 .06 72 216)"/><path d="M0 0h100v100H0z" transform="matrix(.06 0 0 .06 84 216)"/><path d="M0 0h100v100H0z" transform="matrix(.06 0 0 .06 90 216)"/><path d="M0 0h100v100H0z" transform="matrix(.06 0 0 .06 96 216)"/><path d="M0 0h100v100H0z" transform="matrix(.06 0 0 .06 102 216)"/><path d="M0 0h100v100H0z" transform="matrix(.06 0 0 .06 114 216)"/><path d="M0 0h100v100H0z" transform="matrix(.06 0 0 .06 120 216)"/><path d="M0 0h100v100H0z" transform="matrix(.06 0 0 .06 126 216)"/><path d="M0 0h100v100H0z" transform="matrix(.06 0 0 .06 132 216)"/><path d="M0 0h100v100H0z" transform="matrix(.06 0 0 .06 138 216)"/><path d="M0 0h100v100H0z" transform="matrix(.06 0 0 .06 144 216)"/><path d="M0 0h100v100H0z" transform="matrix(.06 0 0 .06 150 216)"/><path d="M0 0h100v100H0z" transform="matrix(.06 0 0 .06 156 216)"/><path d="M0 0h100v100H0z" transform="matrix(.06 0 0 .06 162 216)"/><path d="M0 0h100v100H0z" transform="matrix(.06 0 0 .06 168 216)"/><path d="M0 0h100v100H0z" transform="matrix(.06 0 0 .06 192 216)"/><path d="M0 0h100v100H0z" transform="matrix(.06 0 0 .06 198 216)"/><path d="M0 0h100v100H0z" transform="matrix(.06 0 0 .06 210 216)"/><path d="M0 0h100v100H0z" transform="matrix(.06 0 0 .06 216 216)"/><path d="M0 0h100v100H0z" transform="matrix(.06 0 0 .06 222 216)"/><path d="M0 0h100v100H0z" transform="matrix(.06 0 0 .06 66 222)"/><path d="M0 0h100v100H0z" transform="matrix(.06 0 0 .06 78 222)"/><path d="M0 0h100v100H0z" transform="matrix(.06 0 0 .06 90 222)"/><path d="M0 0h100v100H0z" transform="matrix(.06 0 0 .06 114 222)"/><path d="M0 0h100v100H0z" transform="matrix(.06 0 0 .06 138 222)"/><path d="M0 0h100v100H0z" transform="matrix(.06 0 0 .06 150 222)"/><path d="M0 0h100v100H0z" transform="matrix(.06 0 0 .06 174 222)"/><path d="M0 0h100v100H0z" transform="matrix(.06 0 0 .06 186 222)"/><path d="M0 0h100v100H0z" transform="matrix(.06 0 0 .06 198 222)"/><path d="M0 0h100v100H0z" transform="matrix(.06 0 0 .06 204 222)"/><path d="M0 0h100v100H0z" transform="matrix(.06 0 0 .06 216 222)"/><path d="M0 0h100v100H0z" transform="matrix(.06 0 0 .06 222 222)"/><path d="M0 0h100v100H0z" transform="matrix(.06 0 0 .06 66 228)"/><path d="M0 0h100v100H0z" transform="matrix(.06 0 0 .06 72 228)"/><path d="M0 0h100v100H0z" transform="matrix(.06 0 0 .06 78 228)"/><path d="M0 0h100v100H0z" transform="matrix(.06 0 0 .06 84 228)"/><path d="M0 0h100v100H0z" transform="matrix(.06 0 0 .06 102 228)"/><path d="M0 0h100v100H0z" transform="matrix(.06 0 0 .06 126 228)"/><path d="M0 0h100v100H0z" transform="matrix(.06 0 0 .06 132 228)"/><path d="M0 0h100v100H0z" transform="matrix(.06 0 0 .06 138 228)"/><path d="M0 0h100v100H0z" transform="matrix(.06 0 0 .06 144 228)"/><path d="M0 0h100v100H0z" transform="matrix(.06 0 0 .06 156 228)"/><path d="M0 0h100v100H0z" transform="matrix(.06 0 0 .06 174 228)"/><path d="M0 0h100v100H0z" transform="matrix(.06 0 0 .06 186 228)"/><path d="M0 0h100v100H0z" transform="matrix(.06 0 0 .06 192 228)"/><path d="M0 0h100v100H0z" transform="matrix(.06 0 0 .06 216 228)"/><path d="M0 0h100v100H0z" transform="matrix(.06 0 0 .06 222 228)"/><path d="M0 0h100v100H0z" transform="matrix(.06 0 0 .06 228 228)"/><path class="st1" d="M15 15h70v70H15z" transform="matrix(.42 0 0 .42 12 12)"/><path d="M85 0H0v100h100V0H85zm0 85H15V15h70v70z" transform="matrix(.42 0 0 .42 12 12)"/><path class="st1" d="M15 15h70v70H15z" transform="matrix(.42 0 0 .42 192 12)"/><path d="M85 0H0v100h100V0H85zm0 85H15V15h70v70z" transform="matrix(.42 0 0 .42 192 12)"/><path class="st1" d="M15 15h70v70H15z" transform="matrix(.42 0 0 .42 12 192)"/><path d="M85 0H0v100h100V0H85zm0 85H15V15h70v70z" transform="matrix(.42 0 0 .42 12 192)"/><path d="M0 0h100v100H0z" transform="matrix(.18 0 0 .18 24 24)"/><path d="M0 0h100v100H0z" transform="matrix(.18 0 0 .18 204 24)"/><path d="M0 0h100v100H0z" transform="matrix(.18 0 0 .18 24 204)"/><path d="M124.1 108.1c7.9 0 14.2 6.4 14.2 14.2s-6.4 14.2-14.2 14.2-14.2-6.4-14.2-14.2c0-7.8 6.4-14.2 14.2-14.2m16.5 13.6c0-.3 0-.7-.1-1-.8-8.4-7.8-14.9-16.4-14.9-8.5 0-15.5 6.5-16.4 14.9 0 .3-.1.7-.1 1v.8c0 .4 0 .9.1 1.3 0 .3.1.5.1.8.1.5.1.9.2 1.3.1.3.1.5.2.8.1.4.3.9.4 1.3.1.3.2.5.3.8l.6 1.2c.1.2.3.5.4.7.2.4.5.8.7 1.1.2.2.3.4.5.7.3.4.6.7.9 1l.6.6c.3.3.7.6 1 .9.2.2.4.3.6.5.4.3.8.5 1.1.8.2.1.5.3.7.4l1.2.6c.2.1.5.2.8.3.2.1.5.2.7.3l.2.1h.1c1.5.4 3.1.7 4.7.7s3.2-.2 4.7-.7l.2-.1h.2c.2-.1.4-.2.7-.2.3-.1.5-.2.8-.3l1.2-.6c.2-.1.5-.3.7-.4.4-.2.8-.5 1.1-.8.2-.2.4-.3.6-.5.4-.3.7-.6 1-.9l.6-.6c.3-.3.6-.7.9-1 .2-.2.3-.4.5-.6.3-.4.5-.8.8-1.2.1-.2.3-.5.4-.7l.6-1.2c.1-.2.2-.5.3-.8.2-.4.3-.9.4-1.3.1-.3.1-.5.2-.8.1-.4.2-.9.2-1.3 0-.3.1-.5.1-.8 0-.4.1-.9.1-1.4v-.2c.6-.2.6-.4.6-.6z" style="fill-rule:evenodd;clip-rule:evenodd;fill:#fbbb20"/><path class="st3" d="M97 121.5c0-.9.1-1.9.2-2.8l1.6.2c-.1.8-.2 1.7-.2 2.6H97zM113.7 139.2l.7-1.3c-.5-.3-1-.6-1.4-1l-.9 1.2c.6.4 1.1.8 1.6 1.1M116.1 140.4l.6-1.4c-.5-.2-1-.5-1.5-.7l-.7 1.3c.4.3 1 .6 1.6.8M118.6 141.3l.4-1.4c-.5-.2-1.1-.3-1.6-.6l-.6 1.4c.6.3 1.1.5 1.8.6M121.1 141.9l.2-1.5c-.5-.1-1.1-.2-1.6-.3l-.4 1.4c.6.2 1.2.3 1.8.4M123.7 142.8v-1.7c-.6 0-1.1-.1-1.7-.1l-.2 1.7c.7 0 1.3 0 1.9.1M126.4 141.6l-.2-1.5c-.5.1-1.1.1-1.7.1v1.5c.6 0 1.2 0 1.9-.1M129 141.5l-.4-1.4c-.5.1-1.1.2-1.7.3l.2 1.5c.7-.1 1.3-.2 1.9-.4M131.5 140.7l-.6-1.4c-.5.2-1 .4-1.6.5l.4 1.4c.6 0 1.2-.2 1.8-.5M133.9 139.6l-.7-1.3c-.5.3-1 .5-1.5.8l.6 1.4c.5-.3 1-.6 1.6-.9M136.1 138.2l-.9-1.2c-.4.3-.9.6-1.4.9l.7 1.3c.6-.3 1.1-.7 1.6-1M138.1 136.5l-1-1c-.4.4-.8.8-1.3 1.1l.9 1.2c.5-.5.9-.9 1.4-1.3M139.8 134.5l-1.2-.9c-.3.4-.7.8-1.1 1.2l1 1c.6-.3 1-.8 1.3-1.3M115.2 142.4l.5-1.3c-.6-.3-1.2-.6-1.7-.9l-.7 1.2c.6.4 1.3.7 1.9 1M118 143.4l.4-1.4c-.6-.2-1.3-.4-1.9-.7l-.5 1.3c.6.4 1.3.6 2 .8M120.8 144.1l.2-1.4c-.6-.1-1.3-.2-1.9-.4l-.4 1.4c.7.1 1.4.3 2.1.4M123.7 145.3v-1.6c-.7 0-1.3-.1-2-.2l-.2 1.6c.7.1 1.5.2 2.2.2M126.6 143.4l-.2-1.4c-.6.1-1.3.1-1.9.1v1.4c.7 0 1.4 0 2.1-.1M129.6 143.6l-.4-1.4c-.6.2-1.3.3-2 .4l.2 1.4c.7 0 1.5-.2 2.2-.4M132.3 142.7l-.5-1.3-1.8.6.4 1.4c.6-.2 1.3-.4 1.9-.7M135 141.5l-.7-1.2-1.8.9.5 1.3c.7-.3 1.3-.7 2-1M137.4 139.9l-.9-1.1c-.5.4-1.1.8-1.6 1.1l.7 1.2 1.8-1.2M139.6 138l-1-1c-.5.5-1 .9-1.5 1.3l.9 1.1c.6-.4 1.1-.9 1.6-1.4M141.6 135.8l-1.1-.9c-.4.5-.8 1-1.3 1.5l1 1c.5-.5.9-1 1.4-1.6M143.2 133.4l-1.2-.7c-.3.6-.7 1.1-1.1 1.7l1.1.9c.4-.7.8-1.3 1.2-1.9M114.4 144.5l.6-1.4c-.7-.3-1.3-.6-2-1l-.8 1.3c.7.4 1.4.8 2.2 1.1M117.4 145.6l.4-1.4c-.7-.2-1.5-.5-2.2-.7l-.6 1.4c.8.2 1.6.5 2.4.7M120.5 146.3l.2-1.5c-.7-.1-1.5-.3-2.2-.4l-.4 1.4c.8.2 1.6.4 2.4.5M123.7 147.9v-1.7c-.8 0-1.5-.1-2.3-.2l-.2 1.7c.8.1 1.6.2 2.5.2M126.9 145.4l-.2-1.5c-.7.1-1.5.1-2.2.1v1.5c.8.1 1.6 0 2.4-.1M130.1 145.8l-.4-1.4c-.7.2-1.5.3-2.2.4l.2 1.5c.8-.1 1.6-.3 2.4-.5M133.2 144.8l-.6-1.4c-.7.3-1.4.5-2.1.7l.4 1.5c.8-.2 1.5-.5 2.3-.8M136.1 143.4l-.8-1.3c-.7.4-1.3.7-2 1l.6 1.4c.7-.3 1.5-.7 2.2-1.1M141.2 139.6l-1.1-1.1c-.5.5-1.1 1-1.7 1.5l.9 1.2c.7-.5 1.3-1 1.9-1.6M143.3 137.2l-1.2-.9c-.5.6-.9 1.1-1.5 1.7l1.1 1.1c.6-.6 1.1-1.3 1.6-1.9M145.2 134.5l-1.3-.8c-.4.7-.8 1.3-1.3 1.9l1.2.9c.5-.6 1-1.2 1.4-2M120.2 148.7c-.9-.1-1.8-.3-2.7-.5l.4-1.6c.8.2 1.6.4 2.5.5l-.2 1.6zM123.7 150.7c-.9 0-1.9-.1-2.8-.2l.2-1.9c.8.1 1.7.2 2.6.2v1.9zM127.2 147.6c-.9.1-1.8.2-2.7.2v-1.6c.9 0 1.7-.1 2.5-.2l.2 1.6zM130.8 148.1c-.9.2-1.8.4-2.7.5l-.2-1.6c.9-.1 1.7-.3 2.5-.5l.4 1.6zM134.1 147.1c-.8.3-1.7.6-2.6.9l-.4-1.6c.8-.2 1.6-.5 2.4-.8l.6 1.5zM137.3 145.5c-.8.5-1.6.9-2.5 1.2l-.6-1.5c.8-.3 1.6-.7 2.3-1.2l.8 1.5zM140.2 143.6c-.7.5-1.5 1.1-2.3 1.5l-.8-1.4c.7-.4 1.4-.9 2.1-1.4l1 1.3zM145.2 138.7l-1.8 2.1-1.1-1.1c.6-.6 1.1-1.2 1.6-1.9l1.3.9zM147.2 135.7c-.5.8-1 1.6-1.5 2.3l-1.3-1c.5-.7 1-1.4 1.4-2.2l1.4.9zM148.8 132.6c-.4.8-.8 1.7-1.2 2.4l-1.4-.8c.4-.7.8-1.5 1.1-2.3l1.5.7zM149.7 137.2c-.5.9-1.1 1.8-1.8 2.7l-1.5-1.1c.6-.8 1.1-1.6 1.6-2.5l1.7.9zM110.2 107.5l1 1c.4-.4.8-.7 1.3-1.1l-.9-1.2c-.4.5-.9.9-1.4 1.3M108.4 109.4l1.2.9c.3-.4.7-.8 1.1-1.2l-1-1c-.5.3-.9.8-1.3 1.3M106.7 111.4l1.3.7c.3-.5.6-.9.9-1.4l-1.2-.9c-.4.5-.7 1-1 1.6M106 114l1.4.6c.2-.5.5-1 .7-1.4l-1.3-.7c-.3.4-.6.9-.8 1.5M105 116.5l1.4.4c.2-.5.3-1.1.6-1.6l-1.4-.6-.6 1.8M104.5 119l1.5.2c.1-.5.2-1.1.3-1.6l-1.4-.4c-.2.6-.3 1.2-.4 1.8M104.3 124.2l1.5-.2c0-.5-.1-1.1-.1-1.6h-1.5c0 .6 0 1.2.1 1.8M104.7 126.8l1.4-.4c-.1-.5-.2-1.1-.3-1.7l-1.5.2c.2.7.3 1.3.4 1.9M105.5 129.3l1.4-.6c-.2-.5-.4-1-.5-1.6l-1.4.4c.1.6.3 1.2.5 1.8M106.6 131.7l1.3-.7c-.3-.5-.5-1-.7-1.5l-1.4.6.8 1.6M108 133.9l1.2-.9c-.3-.4-.6-.9-.9-1.4l-1.3.7c.3.6.6 1.1 1 1.6M109.7 135.9l1-1c-.4-.4-.8-.8-1.1-1.3l-1.2.9c.4.5.8.9 1.3 1.4M111.6 137.7l.9-1.2c-.4-.3-.8-.7-1.2-1.1l-1 1c.3.5.8.9 1.3 1.3M111.1 104.3l.9 1.1c.5-.4 1-.7 1.6-1l-.7-1.2c-.6.3-1.2.7-1.8 1.1M108.3 105.6l1 1c.5-.4 1-.9 1.5-1.3l-.9-1.1c-.5.4-1.1.9-1.6 1.4M106.6 107.9l1.1.9c.4-.5.8-1 1.3-1.4l-1-1c-.5.5-1 1-1.4 1.5M104.3 110l1.2.7c.3-.6.7-1.1 1.1-1.6l-1.1-.9-1.2 1.8M104 113.2l1.3.5c.3-.6.5-1.1.9-1.7l-1.2-.7c-.4.6-.7 1.2-1 1.9M103 115.9l1.4.4c.2-.6.4-1.2.7-1.8l-1.3-.5c-.4.5-.6 1.2-.8 1.9M102.3 118.7l1.4.2c.1-.6.2-1.3.4-1.9l-1.4-.4c-.1.7-.3 1.4-.4 2.1M102 121.6h1.4c0-.7.1-1.3.1-2l-1.4-.2c0 .7 0 1.5-.1 2.2M102.2 124.4l1.4-.2c-.1-.6-.1-1.3-.1-1.9H102c0 .8.1 1.5.2 2.1M102.6 127.3l1.4-.4c-.1-.6-.3-1.3-.4-1.9l-1.4.2c.1.7.3 1.4.4 2.1M103.5 130.1l1.3-.5-.6-1.8-1.4.4c.2.6.4 1.2.7 1.9M104.7 132.7l1.2-.7-.9-1.8-1.3.5 1 2M106.2 135.2l1.1-.9c-.4-.5-.7-1.1-1.1-1.6l-1.2.7c.5.6.8 1.2 1.2 1.8M108.1 137.4l1-1c-.5-.5-.9-1-1.3-1.5l-1.1.9c.5.6.9 1.1 1.4 1.6M110.3 139.4l.9-1.1c-.5-.4-1-.8-1.4-1.3l-1 1c.4.5.9.9 1.5 1.4M109.8 102.5l.9 1.2 1.8-1.2-.8-1.3c-.7.4-1.3.9-1.9 1.3M104.4 106.2l1.2.9c.5-.6.9-1.1 1.4-1.6l-1.1-1.1-1.5 1.8M101.7 108.4l1.3.8c.4-.6.8-1.3 1.3-1.9l-1.2-.9c-.6.6-1 1.3-1.4 2M101.9 112.3l1.4.6c.3-.7.6-1.3 1-2l-1.3-.8c-.4.8-.8 1.5-1.1 2.2M100.8 115.3l1.4.4c.2-.7.5-1.4.7-2.1l-1.4-.6c-.2.7-.5 1.5-.7 2.3M100.1 118.4l1.5.2c.1-.7.3-1.4.4-2.1l-1.4-.4c-.2.7-.4 1.5-.5 2.3M99.6 121.6h1.5c0-.8.1-1.5.2-2.3l-1.5-.2c-.2.8-.2 1.7-.2 2.5M99.9 124.7l1.5-.2c-.1-.7-.1-1.5-.1-2.2h-1.5c0 .9 0 1.7.1 2.4M100.5 127.9l1.5-.4c-.2-.7-.3-1.5-.4-2.2l-1.5.2c0 .8.2 1.6.4 2.4M101.4 130.9l1.4-.6c-.3-.7-.5-1.4-.7-2.1l-1.4.4c.2.8.4 1.6.7 2.3M102.8 133.9l1.3-.8c-.4-.7-.7-1.3-1-2l-1.4.6c.3.7.7 1.5 1.1 2.2M104.5 136.6l1.2-.9c-.4-.6-.8-1.2-1.2-1.9l-1.3.8c.3.6.8 1.3 1.3 2M106.5 139l1.1-1.1c-.5-.5-1-1.1-1.5-1.7l-1.2.9c.5.7 1.1 1.3 1.6 1.9M108.9 141.2l.9-1.2c-.6-.5-1.1-1-1.7-1.5l-1.1 1.1c.6.6 1.2 1.1 1.9 1.6M111.5 143.1l.8-1.3c-.7-.4-1.3-.8-1.9-1.3l-.9 1.2c.6.5 1.3.9 2 1.4M105.1 102.3l2.1-1.8 1 1.3c-.7.5-1.3 1.1-1.9 1.7l-1.2-1.2zM102.2 104.5c.6-.7 1.2-1.4 1.8-2l1.1 1.1c-.6.6-1.1 1.2-1.6 1.8l-1.3-.9zM98.7 106.6c.5-.8 1-1.5 1.6-2.3l1.3 1c-.5.7-1 1.4-1.4 2.1l-1.5-.8zM99.3 111.2l1.2-2.4 1.4.8c-.4.7-.8 1.5-1.1 2.2l-1.5-.6zM97.7 118.1c.1-.9.3-1.8.5-2.6l1.6.4c-.2.8-.4 1.6-.5 2.4l-1.6-.2zM97.5 125c-.1-.9-.1-1.8-.1-2.7H99c0 .8 0 1.7.1 2.5l-1.6.2zM99.2 131.9c-.3-.8-.6-1.7-.8-2.6l1.6-.4c.2.8.5 1.6.8 2.4l-1.6.6zM100.7 135.1c-.4-.8-.9-1.6-1.2-2.5l1.5-.6c.3.8.7 1.6 1.1 2.3l-1.4.8zM104.8 140.7c-.6-.7-1.3-1.4-1.8-2.1l1.3-1c.5.7 1.1 1.3 1.7 1.9l-1.2 1.2zM110.3 145.1c-.8-.5-1.6-1-2.3-1.6l1-1.3c.7.5 1.4 1 2.1 1.4l-.8 1.5zM113.4 146.7c-.8-.4-1.7-.8-2.4-1.2l.8-1.4c.7.4 1.5.8 2.3 1.1l-.7 1.5zM99.6 102.4c.6-.8 1.3-1.5 1.9-2.2l1.3 1.3c-.6.6-1.2 1.3-1.8 2l-1.4-1.1zM112.4 106l.9 1.2c.4-.3.9-.6 1.3-.9l-.7-1.3c-.5.4-1 .7-1.5 1M141.5 112.4l-1.3.7c.3.5.5 1 .8 1.5l1.4-.6c-.3-.5-.6-1.1-.9-1.6M138.4 108.3l-1 1c.4.4.8.8 1.1 1.2l1.2-.9c-.5-.4-.9-.9-1.3-1.3M136.5 106.5l-.9 1.2c.4.3.8.7 1.2 1.1l1-1c-.4-.5-.8-.9-1.3-1.3M134.3 105.1l-.7 1.3c.5.3.9.6 1.4.9l.9-1.2c-.5-.4-1-.7-1.6-1M132.1 103.9l-.6 1.4c.5.2 1 .4 1.4.7l.7-1.3c-.4-.3-1-.6-1.5-.8M129.6 103l-.4 1.4c.5.2 1.1.3 1.6.5l.6-1.4c-.6-.1-1.2-.3-1.8-.5M127.1 102.5l-.2 1.5c.5.1 1.1.2 1.6.3l.4-1.4c-.6-.2-1.2-.3-1.8-.4M124.5 102.3v1.5c.6 0 1.1 0 1.6.1l.2-1.5c-.5-.1-1.2-.1-1.8-.1M122 102.7l.2 1.5c.5-.1 1.1-.1 1.6-.1v-1.5c-.6 0-1.2 0-1.8.1M119.4 102.8l.4 1.4c.5-.1 1.1-.2 1.6-.3l-.2-1.5c-.6.2-1.2.3-1.8.4M117 103.6l.6 1.4c.5-.2 1-.4 1.5-.5l-.4-1.4c-.6.1-1.2.3-1.7.5M114.6 104.7l.7 1.3c.5-.3 1-.5 1.5-.7l-.6-1.4c-.5.2-1.1.5-1.6.8M144.2 114.1l-1.3.5.6 1.8 1.4-.4c-.2-.6-.4-1.3-.7-1.9M143.4 111.3l-1.2.7c.3.6.6 1.2.9 1.7l1.3-.5c-.3-.6-.7-1.3-1-1.9M141.8 108.9l-1.1.9c.4.5.7 1 1.1 1.6l1.2-.7c-.4-.7-.8-1.2-1.2-1.8M139.9 106.7l-1 1c.5.5.9 1 1.3 1.5l1.1-.9c-.4-.5-.9-1.1-1.4-1.6M137.8 104.8l-.9 1.1c.5.4 1 .8 1.4 1.2l1-1c-.4-.4-.9-.8-1.5-1.3M135.4 103.2l-.7 1.2c.6.3 1.1.7 1.6 1.1l.9-1.1c-.6-.5-1.2-.9-1.8-1.2M132.9 101.9l-.5 1.3c.6.3 1.1.5 1.7.8l.7-1.2c-.6-.3-1.3-.6-1.9-.9M130.2 100.9l-.4 1.4 1.8.6.5-1.3c-.6-.3-1.2-.5-1.9-.7M127.4 100.3l-.2 1.4c.6.1 1.2.2 1.9.4l.4-1.4c-.7-.1-1.4-.3-2.1-.4M124.5 100.1v1.4c.7 0 1.3.1 1.9.1l.2-1.4c-.6-.1-1.4-.1-2.1-.1M121.8 100.7l.2 1.4c.6-.1 1.2-.1 1.9-.1v-1.4c-.8 0-1.5.1-2.1.1M118.9 100.7l.4 1.4c.6-.2 1.3-.3 1.9-.4l-.2-1.4c-.8.1-1.5.3-2.1.4M116.2 101.6l.5 1.3 1.8-.6-.4-1.4c-.7.2-1.3.4-1.9.7M113.5 102.8l.7 1.2c.6-.3 1.2-.6 1.7-.9l-.5-1.3c-.6.4-1.3.7-1.9 1M146.1 113.3l-1.4.6c.3.7.5 1.4.7 2.1l1.5-.4c-.2-.9-.5-1.6-.8-2.3M143.6 107.5l-1.2.9 1.2 1.8 1.3-.8c-.4-.6-.8-1.2-1.3-1.9M141.5 105.1l-1.1 1.1c.5.5 1 1.1 1.5 1.7l1.2-.9c-.5-.7-1-1.3-1.6-1.9M139.2 103l-.9 1.2c.6.4 1.1.9 1.6 1.4l1.1-1.1-1.8-1.5M136.6 101.2l-.8 1.3c.6.4 1.3.8 1.9 1.2l.9-1.2c-.7-.4-1.3-.9-2-1.3M133.8 99.8l-.6 1.4c.7.3 1.3.6 2 1l.8-1.3c-.8-.4-1.5-.8-2.2-1.1M127.7 98.1l-.2 1.5c.7.1 1.4.2 2.1.4l.4-1.4c-.7-.3-1.5-.4-2.3-.5M124.5 97.8v1.5c.7 0 1.5.1 2.2.1l.3-1.4c-.8-.1-1.7-.2-2.5-.2M118.3 98.5l.4 1.4c.7-.2 1.4-.3 2.2-.4l-.2-1.5c-.9.2-1.7.3-2.4.5M115.3 99.5l.6 1.4c.7-.3 1.4-.5 2.1-.7l-.4-1.4c-.8.1-1.6.4-2.3.7M112.4 100.8l.8 1.3c.6-.4 1.3-.7 2-1l-.6-1.4c-.8.4-1.5.8-2.2 1.1M121.2 96.6c.9-.1 1.8-.2 2.7-.2V98c-.8 0-1.6.1-2.5.2l-.2-1.6zM114.4 97.3c.8-.3 1.7-.6 2.5-.9l.4 1.6c-.8.2-1.6.5-2.3.8l-.6-1.5zM111.2 98.8c.8-.4 1.6-.8 2.5-1.2l.6 1.5c-.8.3-1.5.7-2.3 1.1l-.8-1.4zM148.2 112.4c.3.8.6 1.7.9 2.5l-1.6.4c-.2-.8-.5-1.6-.8-2.3l1.5-.6zM147.4 109c.5.8.9 1.6 1.2 2.5l-1.5.6c-.3-.8-.7-1.5-1.1-2.3l1.4-.8zM145.5 106.1c.5.7 1 1.5 1.5 2.2l-1.4.8c-.4-.7-.9-1.4-1.4-2l1.3-1zM143.2 103.4c.6.7 1.3 1.3 1.8 2.1l-1.3 1c-.5-.7-1.1-1.3-1.7-1.9l1.2-1.2zM137.8 99.1c.8.5 1.6 1 2.3 1.5l-1 1.3c-.7-.5-1.4-1-2.1-1.4l.8-1.4zM134.7 97.6c.8.4 1.6.7 2.4 1.2l-.8 1.4c-.7-.4-1.5-.8-2.2-1.1l.6-1.5zM131.4 96.4c.9.2 1.8.5 2.6.9l-.6 1.5c-.8-.3-1.6-.6-2.4-.8l.4-1.6zM128 95.7c.9.1 1.8.3 2.6.5l-.4 1.6c-.8-.2-1.6-.4-2.4-.5l.2-1.6zM124.5 95.4c.9 0 1.8.1 2.7.2l-.2 1.6c-.8-.1-1.7-.1-2.5-.2v-1.6zM142.5 130l-1.4-.6c-.2.5-.5 1-.7 1.5l1.3.7c.3-.5.6-1 .8-1.6M143.4 127.5l-1.4-.4c-.1.5-.3 1.1-.5 1.6l1.4.6c.1-.6.3-1.2.5-1.8M143.9 125l-1.5-.2c-.1.5-.2 1.1-.3 1.6l1.4.4c.2-.6.3-1.2.4-1.8M144.1 122.3h-1.5c0 .6 0 1.1-.1 1.7l1.5.2c0-.6.1-1.2.1-1.9M143.9 119.8l-1.5.2c.1.5.1 1.1.1 1.6h1.5c.1-.6 0-1.2-.1-1.8M143.7 117.1l-1.4.4c.1.5.3 1.1.3 1.6l1.5-.2c-.2-.6-.3-1.2-.4-1.8M144.5 130.8l-1.3-.5c-.3.6-.5 1.2-.8 1.7l1.2.7c.3-.6.6-1.2.9-1.9M145.5 128.1l-1.4-.4c-.2.6-.4 1.3-.6 1.9l1.3.5c.2-.6.5-1.3.7-2M146 125.3l-1.4-.2c-.1.6-.2 1.3-.4 1.9l1.4.4c.2-.7.3-1.4.4-2.1M146.3 122.3h-1.4c0 .7 0 1.3-.1 2l1.4.2c0-.7.1-1.4.1-2.2M146.1 119.5l-1.4.2c.1.6.1 1.3.1 1.9h1.4c0-.7 0-1.4-.1-2.1M146 116.5l-1.4.4c.2.6.3 1.3.4 1.9l1.4-.2c-.1-.7-.3-1.4-.4-2.1M146.6 131.7l-1.4-.6c-.3.7-.6 1.3-1 2l1.3.8c.4-.7.8-1.4 1.1-2.2M147.7 128.7l-1.4-.4c-.2.7-.4 1.4-.7 2.2l1.4.6c.2-.9.4-1.6.7-2.4M148.3 125.6l-1.5-.2c-.1.7-.2 1.5-.4 2.2l1.5.4c.1-.9.3-1.6.4-2.4M148.5 122.3H147c0 .8 0 1.5-.1 2.3l1.5.2c.1-.8.1-1.6.1-2.5M148.3 119.2l-1.5.2c.1.7.1 1.5.2 2.2h1.5c0-.8-.1-1.6-.2-2.4M148.4 115.9l-1.4.4c.2.7.3 1.5.5 2.2l1.5-.2-.6-2.4M150.7 125.9c-.1.9-.3 1.8-.5 2.7l-1.6-.4c.2-.8.3-1.6.5-2.5l1.6.2zM150.9 122.3c0 .9-.1 1.9-.2 2.8l-1.6-.2c.1-.8.1-1.7.1-2.6h1.7zM151.2 115.2l.6 2.7-1.6.2c-.1-.8-.3-1.7-.5-2.5l1.5-.4zM124.2 111c3.2 0 6.1 1.3 8.1 3.3l-4.1 4c-1-1-2.5-1.6-4.1-1.6-3.2 0-5.8 2.5-5.8 5.6 0 3.1 2.6 5.6 5.8 5.6 1.6 0 3-.6 4.1-1.6l4.1 4c-2.1 2-5 3.3-8.1 3.3-6.4 0-11.5-5-11.5-11.2 0-6.3 5.1-11.4 11.5-11.4"/></svg>