<svg width="24" height="24" viewBox="0 0 24 24" fill="none" xmlns="http://www.w3.org/2000/svg">
<path d="M14.999 22.7471H8.99902C3.56902 22.7471 1.24902 20.4271 1.24902 14.9971V8.99707C1.24902 3.56707 3.56902 1.24707 8.99902 1.24707H14.999C20.429 1.24707 22.749 3.56707 22.749 8.99707V14.9971C22.749 20.4271 20.429 22.7471 14.999 22.7471ZM8.99902 2.74707C4.38902 2.74707 2.74902 4.38707 2.74902 8.99707V14.9971C2.74902 19.6071 4.38902 21.2471 8.99902 21.2471H14.999C19.609 21.2471 21.249 19.6071 21.249 14.9971V8.99707C21.249 4.38707 19.609 2.74707 14.999 2.74707H8.99902Z" fill="black"/>
<path d="M12.4109 13.9971C12.0009 13.9971 11.6609 13.6571 11.6609 13.2471V13.0371C11.6609 11.8771 12.5109 11.3071 12.8309 11.0871C13.2009 10.8371 13.3209 10.6671 13.3209 10.4071C13.3209 9.9071 12.9109 9.49707 12.4109 9.49707C11.9109 9.49707 11.501 9.9071 11.501 10.4071C11.501 10.8171 11.161 11.1571 10.751 11.1571C10.341 11.1571 10.001 10.8171 10.001 10.4071C10.001 9.0771 11.0809 7.99707 12.4109 7.99707C13.7409 7.99707 14.8209 9.0771 14.8209 10.4071C14.8209 11.5471 13.981 12.1171 13.671 12.3271C13.281 12.5871 13.1609 12.7571 13.1609 13.0371V13.2471C13.1609 13.6671 12.8209 13.9971 12.4109 13.9971Z" fill="black"/>
<path d="M12.4102 16.4902C11.9902 16.4902 11.6602 16.1502 11.6602 15.7402C11.6602 15.3302 12.0002 14.9902 12.4102 14.9902C12.8202 14.9902 13.1602 15.3302 13.1602 15.7402C13.1602 16.1502 12.8302 16.4902 12.4102 16.4902Z" fill="black"/>
</svg>
