<svg width="24" height="24" viewBox="0 0 24 24" fill="none" xmlns="http://www.w3.org/2000/svg">
<path fill-rule="evenodd" clip-rule="evenodd" d="M12 5.88965C11.0978 5.88965 10.2804 6.02755 9.54554 6.24799C9.14876 6.36703 8.73068 6.14191 8.61164 5.74516C8.4926 5.34841 8.71778 4.9303 9.1145 4.81128C9.9797 4.55173 10.9422 4.38965 12 4.38965C16.828 4.38965 20.75 8.26933 20.75 13.0696C20.75 17.87 16.828 21.7497 12 21.7497C7.17194 21.7497 3.25 17.87 3.25 13.0696C3.25 11.2843 3.79797 9.61915 4.72822 8.24023C4.95987 7.89685 5.42603 7.80625 5.76941 8.03791C6.11276 8.26957 6.20336 8.73571 5.97173 9.07909C5.20197 10.2201 4.75 11.595 4.75 13.0696C4.75 17.0293 7.98806 20.2497 12 20.2497C16.0119 20.2497 19.25 17.0293 19.25 13.0696C19.25 9.10999 16.0119 5.88965 12 5.88965Z" fill="black"/>
<path fill-rule="evenodd" clip-rule="evenodd" d="M11.1585 2.37087C11.5059 2.59628 11.6049 3.06072 11.3795 3.40823L10.1091 5.3668L12.0862 6.63945C12.4345 6.86361 12.5351 7.32771 12.3109 7.67601C12.0867 8.02431 11.6226 8.12493 11.2744 7.90071L8.66439 6.22071C8.49675 6.11283 8.37897 5.94261 8.33709 5.7477C8.29515 5.55278 8.33259 5.34921 8.44107 5.18194L10.1211 2.59195C10.3465 2.24443 10.8109 2.14546 11.1585 2.37087Z" fill="black"/>
</svg>
