<svg xmlns="http://www.w3.org/2000/svg" width="20" height="20" viewBox="0 0 20 20" fill="none">
  <path d="M5.97548 18.9577C3.99215 18.9577 2.36719 17.516 2.36719 15.741V14.041C2.36719 13.6993 2.65052 13.416 2.99219 13.416C3.33385 13.416 3.61719 13.6993 3.61719 14.041C3.61719 15.0827 4.62548 15.866 5.97548 15.866C7.32548 15.866 8.33383 15.0827 8.33383 14.041C8.33383 13.6993 8.61717 13.416 8.95883 13.416C9.3005 13.416 9.58383 13.6993 9.58383 14.041V15.741C9.58383 17.516 7.96715 18.9577 5.97548 18.9577ZM3.83381 16.5577C4.20048 17.241 5.02548 17.7077 5.97548 17.7077C6.92548 17.7077 7.75049 17.2327 8.11716 16.5577C7.52549 16.916 6.79215 17.1244 5.97548 17.1244C5.15882 17.1244 4.42548 16.916 3.83381 16.5577Z" fill="black"/>
  <path d="M5.97548 14.8338C4.60882 14.8338 3.38385 14.2088 2.77551 13.2172C2.50885 12.7838 2.36719 12.2755 2.36719 11.7588C2.36719 10.8838 2.75051 10.0672 3.45051 9.45884C4.80051 8.2755 7.12549 8.27554 8.48383 9.45054C9.18383 10.0672 9.57549 10.8838 9.57549 11.7588C9.57549 12.2755 9.43383 12.7838 9.16717 13.2172C8.56717 14.2088 7.34215 14.8338 5.97548 14.8338ZM5.97548 9.79219C5.32548 9.79219 4.7255 10.0088 4.2755 10.4005C3.8505 10.7672 3.61719 11.2505 3.61719 11.7588C3.61719 12.0505 3.69215 12.3172 3.84215 12.5672C4.22549 13.2005 5.04215 13.5922 5.97548 13.5922C6.90882 13.5922 7.72547 13.2005 8.10047 12.5755C8.25047 12.3339 8.32549 12.0589 8.32549 11.7672C8.32549 11.2589 8.09218 10.7755 7.66718 10.4005C7.22551 10.0088 6.62548 9.79219 5.97548 9.79219Z" fill="black"/>
  <path d="M5.97548 17.1243C3.91715 17.1243 2.36719 15.7993 2.36719 14.0493V11.7577C2.36719 9.98267 3.98382 8.54102 5.97548 8.54102C6.91715 8.54102 7.81717 8.86604 8.49217 9.44937C9.19217 10.066 9.58383 10.8827 9.58383 11.7577V14.0493C9.58383 15.7993 8.03382 17.1243 5.97548 17.1243ZM5.97548 9.79102C4.67548 9.79102 3.61719 10.6743 3.61719 11.7577V14.0493C3.61719 15.091 4.62548 15.8743 5.97548 15.8743C7.32548 15.8743 8.33383 15.091 8.33383 14.0493V11.7577C8.33383 11.2493 8.10052 10.766 7.67552 10.391C7.22552 10.0077 6.62548 9.79102 5.97548 9.79102Z" fill="black"/>
  <path d="M15.8653 12.3327C14.6069 12.3327 13.5403 11.3993 13.4403 10.1993C13.3736 9.50766 13.6236 8.83268 14.1236 8.34101C14.5403 7.90768 15.1319 7.66602 15.7569 7.66602H17.4986C18.3236 7.69102 18.957 8.34098 18.957 9.14098V10.8577C18.957 11.6577 18.3236 12.3077 17.5236 12.3327H15.8653ZM17.4736 8.91602H15.7653C15.4736 8.91602 15.207 9.02434 15.0153 9.22434C14.7736 9.45768 14.657 9.77433 14.6903 10.091C14.732 10.641 15.2653 11.0827 15.8653 11.0827H17.4986C17.607 11.0827 17.707 10.9827 17.707 10.8577V9.14098C17.707 9.01598 17.6069 8.92435 17.4736 8.91602Z" fill="black"/>
  <path d="M13.3352 17.7077H11.2518C10.9102 17.7077 10.6268 17.4243 10.6268 17.0827C10.6268 16.741 10.9102 16.4577 11.2518 16.4577H13.3352C15.4852 16.4577 16.8768 15.066 16.8768 12.916V12.3327H15.8685C14.6101 12.3327 13.5435 11.3993 13.4435 10.1993C13.3768 9.50767 13.6268 8.83269 14.1268 8.34102C14.5435 7.90769 15.1351 7.66603 15.7601 7.66603H16.8685V7.08268C16.8685 5.13268 15.7269 3.791 13.8769 3.57433C13.6769 3.541 13.5018 3.54102 13.3268 3.54102H5.82682C5.62682 3.54102 5.43515 3.55767 5.24348 3.58267C3.41015 3.81601 2.28516 5.14935 2.28516 7.08268V8.74935C2.28516 9.09102 2.00182 9.37435 1.66016 9.37435C1.31849 9.37435 1.03516 9.09102 1.03516 8.74935V7.08268C1.03516 4.51602 2.61852 2.65769 5.07685 2.34936C5.30185 2.31602 5.56016 2.29102 5.82682 2.29102H13.3268C13.5268 2.29102 13.7852 2.29935 14.0518 2.34101C16.5102 2.62435 18.1185 4.49102 18.1185 7.08268V8.29103C18.1185 8.63269 17.8352 8.91603 17.4935 8.91603H15.7601C15.4685 8.91603 15.2018 9.02436 15.0102 9.22436C14.7685 9.45769 14.6518 9.77434 14.6852 10.091C14.7268 10.641 15.2602 11.0827 15.8602 11.0827H17.5018C17.8435 11.0827 18.1268 11.366 18.1268 11.7077V12.916C18.1268 15.7827 16.2018 17.7077 13.3352 17.7077Z" fill="black"/>
</svg>