<svg width="12" height="12" viewBox="0 0 12 12" fill="none" xmlns="http://www.w3.org/2000/svg">
<path d="M5.75 10.875C2.925 10.875 0.625 8.575 0.625 5.75C0.625 2.925 2.925 0.625 5.75 0.625C8.575 0.625 10.875 2.925 10.875 5.75C10.875 8.575 8.575 10.875 5.75 10.875ZM5.75 1.375C3.335 1.375 1.375 3.34 1.375 5.75C1.375 8.16 3.335 10.125 5.75 10.125C8.165 10.125 10.125 8.16 10.125 5.75C10.125 3.34 8.165 1.375 5.75 1.375Z" fill="#BEBEC0"/>
<path d="M11.0007 11.3757C10.9057 11.3757 10.8107 11.3407 10.7357 11.2657L9.7357 10.2657C9.5907 10.1207 9.5907 9.8807 9.7357 9.7357C9.8807 9.5907 10.1207 9.5907 10.2657 9.7357L11.2657 10.7357C11.4107 10.8807 11.4107 11.1207 11.2657 11.2657C11.1907 11.3407 11.0957 11.3757 11.0007 11.3757Z" fill="#BEBEC0"/>
</svg>
