<svg width="24" height="24" viewBox="0 0 24 24" fill="none" xmlns="http://www.w3.org/2000/svg">
<path d="M12.0004 22.7595C10.9104 22.7595 9.83039 22.4395 8.98039 21.8095L4.68039 18.5995C3.54039 17.7495 2.65039 15.9795 2.65039 14.5595V7.11945C2.65039 5.57945 3.78039 3.93945 5.23039 3.39945L10.2204 1.52945C11.2104 1.15945 12.7704 1.15945 13.7604 1.52945L18.7604 3.39945C20.2104 3.93945 21.3404 5.57945 21.3404 7.11945V14.5495C21.3404 15.9695 20.4504 17.7395 19.3104 18.5895L15.0104 21.7995C14.1704 22.4395 13.0904 22.7595 12.0004 22.7595ZM10.7504 2.93945L5.76039 4.80945C4.90039 5.12945 4.15039 6.20945 4.15039 7.12945V14.5595C4.15039 15.5095 4.82039 16.8395 5.57039 17.3995L9.87039 20.6095C11.0204 21.4695 12.9704 21.4695 14.1204 20.6095L18.4204 17.3995C19.1804 16.8295 19.8404 15.4995 19.8404 14.5595V7.11945C19.8404 6.20945 19.0904 5.12945 18.2304 4.79945L13.2404 2.92945C12.5804 2.68945 11.4204 2.68945 10.7504 2.93945Z" fill="black"/>
<path d="M12 13.25C10.48 13.25 9.25 12.02 9.25 10.5C9.25 8.98 10.48 7.75 12 7.75C13.52 7.75 14.75 8.98 14.75 10.5C14.75 12.02 13.52 13.25 12 13.25ZM12 9.25C11.31 9.25 10.75 9.81 10.75 10.5C10.75 11.19 11.31 11.75 12 11.75C12.69 11.75 13.25 11.19 13.25 10.5C13.25 9.81 12.69 9.25 12 9.25Z" fill="black"/>
<path d="M12 16.25C11.59 16.25 11.25 15.91 11.25 15.5V12.5C11.25 12.09 11.59 11.75 12 11.75C12.41 11.75 12.75 12.09 12.75 12.5V15.5C12.75 15.91 12.41 16.25 12 16.25Z" fill="black"/>
</svg>
