<svg width="24" height="24" viewBox="0 0 24 24" fill="none" xmlns="http://www.w3.org/2000/svg">
<path d="M13.9238 3.01649C13.8078 3.00146 13.688 3.0023 13.5693 3.01942C13.3321 3.05367 13.0993 3.15438 12.9092 3.32704C12.9062 3.32962 12.9033 3.33223 12.9004 3.33485L8.66992 7.29774C8.53059 7.42831 8.34794 7.50087 8.15723 7.50087H4.25C3.01625 7.50087 2 8.51712 2 9.75087V14.2509C2 15.4846 3.01625 16.5009 4.25 16.5009H8.15723C8.34794 16.5009 8.53059 16.5734 8.66992 16.704L12.9004 20.6669C12.9033 20.6695 12.9062 20.6721 12.9092 20.6747C13.2894 21.02 13.8413 21.0769 14.2559 20.8934C14.6704 20.71 15 20.2636 15 19.7499V4.25185C15 3.73819 14.6705 3.29174 14.2559 3.10829C14.1522 3.06243 14.0399 3.03153 13.9238 3.01649ZM13.5 4.82802V19.1737L9.69531 15.6093C9.27865 15.2188 8.72852 15.0009 8.15723 15.0009H4.25C3.82675 15.0009 3.5 14.6741 3.5 14.2509V9.75087C3.5 9.32762 3.82675 9.00087 4.25 9.00087H8.15723C8.72852 9.00087 9.27865 8.78291 9.69531 8.39247L13.5 4.82802ZM19.624 5.787C19.4876 5.78614 19.3535 5.82252 19.2362 5.89221C19.1188 5.96191 19.0228 6.06229 18.9583 6.18254C18.8938 6.30279 18.8633 6.43835 18.8701 6.57464C18.877 6.71092 18.9209 6.84275 18.9971 6.95595C19.9457 8.40868 20.5 10.136 20.5 12.0009C20.5 13.8658 19.9457 15.5931 18.9971 17.0458C18.9398 17.1282 18.8996 17.2213 18.8789 17.3195C18.8583 17.4177 18.8575 17.519 18.8767 17.6175C18.8959 17.7161 18.9347 17.8097 18.9908 17.8929C19.0468 17.9762 19.119 18.0473 19.2031 18.1022C19.2871 18.157 19.3813 18.1944 19.4801 18.2122C19.5789 18.23 19.6802 18.2277 19.7781 18.2056C19.876 18.1835 19.9685 18.142 20.05 18.0835C20.1316 18.025 20.2006 17.9508 20.2529 17.8651C21.3533 16.1799 22 14.1639 22 12.0009C22 9.83779 21.3533 7.82188 20.2529 6.13661C20.1858 6.0303 20.093 5.94256 19.9831 5.88147C19.8732 5.82038 19.7498 5.7879 19.624 5.787ZM17.5059 8.12978C17.3758 8.12801 17.2475 8.16008 17.1336 8.22287C17.0197 8.28565 16.9241 8.37697 16.8561 8.48787C16.7881 8.59878 16.7502 8.72544 16.746 8.85544C16.7417 8.98544 16.7714 9.11431 16.832 9.22938C17.2573 10.0647 17.5 11.0021 17.5 12.0009C17.5 12.9997 17.2573 13.937 16.832 14.7724C16.7835 14.8604 16.7531 14.9574 16.7428 15.0574C16.7324 15.1574 16.7423 15.2585 16.7718 15.3547C16.8013 15.4508 16.8498 15.54 16.9145 15.617C16.9792 15.694 17.0587 15.7573 17.1483 15.8029C17.2379 15.8486 17.3358 15.8757 17.4361 15.8828C17.5365 15.8899 17.6372 15.8767 17.7323 15.844C17.8274 15.8114 17.915 15.76 17.9899 15.6928C18.0647 15.6256 18.1253 15.5441 18.168 15.453C18.6947 14.4183 19 13.2441 19 12.0009C19 10.7577 18.6947 9.58339 18.168 8.54872C18.1069 8.42465 18.0128 8.31986 17.896 8.24592C17.7791 8.17199 17.6441 8.1318 17.5059 8.12978Z" fill="black"/>
</svg>
