<svg width="24" height="24" viewBox="0 0 24 24" fill="none" xmlns="http://www.w3.org/2000/svg">
<path d="M10.25 2C9.1017 2 8.15285 2.88331 8.02539 4H6.25C5.01625 4 4 5.01625 4 6.25V19.75C4 20.9838 5.01625 22 6.25 22H17.75C18.9838 22 20 20.9838 20 19.75V6.25C20 5.01625 18.9838 4 17.75 4H15.9746C15.8471 2.88331 14.8983 2 13.75 2H10.25ZM10.25 3.5H13.75C14.1732 3.5 14.5 3.82675 14.5 4.25C14.5 4.67325 14.1732 5 13.75 5H10.25C9.82675 5 9.5 4.67325 9.5 4.25C9.5 3.82675 9.82675 3.5 10.25 3.5ZM6.25 5.5H8.38477C8.79062 6.10095 9.47736 6.5 10.25 6.5H13.75C14.5226 6.5 15.2094 6.10095 15.6152 5.5H17.75C18.1732 5.5 18.5 5.82675 18.5 6.25V19.75C18.5 20.1732 18.1732 20.5 17.75 20.5H6.25C5.82675 20.5 5.5 20.1732 5.5 19.75V6.25C5.5 5.82675 5.82675 5.5 6.25 5.5ZM16 7.5C15.7348 7.5 15.4804 7.60536 15.2929 7.79289C15.1054 7.98043 15 8.23478 15 8.5C15 8.76522 15.1054 9.01957 15.2929 9.20711C15.4804 9.39464 15.7348 9.5 16 9.5C16.2652 9.5 16.5196 9.39464 16.7071 9.20711C16.8946 9.01957 17 8.76522 17 8.5C17 8.23478 16.8946 7.98043 16.7071 7.79289C16.5196 7.60536 16.2652 7.5 16 7.5ZM7.43945 8.43945C7.31158 8.43945 7.18369 8.48819 7.08594 8.58594C6.89044 8.78144 6.89044 9.09747 7.08594 9.29297L7.79297 10L7.08594 10.707C6.89044 10.9025 6.89044 11.2186 7.08594 11.4141C7.18344 11.5116 7.31145 11.5605 7.43945 11.5605C7.56745 11.5605 7.69547 11.5116 7.79297 11.4141L8.5 10.707L9.20703 11.4141C9.30453 11.5116 9.43255 11.5605 9.56055 11.5605C9.68855 11.5605 9.81656 11.5116 9.91406 11.4141C10.1096 11.2186 10.1096 10.9025 9.91406 10.707L9.20703 10L9.91406 9.29297C10.1096 9.09747 10.1096 8.78144 9.91406 8.58594C9.71856 8.39044 9.40253 8.39044 9.20703 8.58594L8.5 9.29297L7.79297 8.58594C7.69522 8.48819 7.56733 8.43945 7.43945 8.43945ZM14.5615 9.6084C14.434 9.61815 14.3095 9.676 14.2197 9.78125L13.8945 10.1611C13.715 10.3706 13.7397 10.6867 13.9492 10.8662C14.0437 10.9467 14.1594 10.9863 14.2744 10.9863C14.4154 10.9863 14.5553 10.9265 14.6543 10.8115L14.9795 10.4316C15.159 10.2221 15.1343 9.90606 14.9248 9.72656C14.8198 9.63681 14.6891 9.59865 14.5615 9.6084ZM12.9355 11.5068C12.8079 11.5166 12.6838 11.5752 12.5938 11.6797L12.2676 12.0586C12.0876 12.2686 12.1128 12.5842 12.3223 12.7637C12.4163 12.8447 12.5325 12.8848 12.6475 12.8848C12.7885 12.8848 12.9283 12.8254 13.0273 12.7109L13.3525 12.3311C13.5325 12.1211 13.5083 11.8055 13.2988 11.626C13.1943 11.536 13.0632 11.4971 12.9355 11.5068ZM11.3076 13.4043C11.1801 13.4142 11.0565 13.4721 10.9668 13.5771L10.6406 13.957C10.4611 14.1665 10.4858 14.4826 10.6953 14.6621C10.7898 14.7426 10.9055 14.7822 11.0205 14.7822C11.161 14.7822 11.3014 14.7239 11.4004 14.6084L11.7256 14.2275C11.9051 14.018 11.8814 13.7029 11.6719 13.5234C11.5669 13.4334 11.4352 13.3944 11.3076 13.4043ZM9.68164 15.3027C9.55402 15.3125 9.42984 15.3711 9.33984 15.4756L9.01465 15.8555C8.83465 16.0655 8.85886 16.3801 9.06836 16.5596C9.16236 16.6406 9.27855 16.6807 9.39355 16.6807C9.53405 16.6807 9.67394 16.6218 9.77344 16.5068L10.0986 16.127C10.2786 15.917 10.2544 15.6014 10.0449 15.4219C9.94042 15.3319 9.80927 15.293 9.68164 15.3027ZM14.4395 15.9395C14.3116 15.9395 14.1837 15.9882 14.0859 16.0859C13.8904 16.2814 13.8904 16.5975 14.0859 16.793L14.793 17.5L14.0859 18.207C13.8904 18.4025 13.8904 18.7186 14.0859 18.9141C14.1834 19.0116 14.3115 19.0605 14.4395 19.0605C14.5675 19.0605 14.6955 19.0116 14.793 18.9141L15.5 18.207L16.207 18.9141C16.3045 19.0116 16.4325 19.0605 16.5605 19.0605C16.6885 19.0605 16.8166 19.0116 16.9141 18.9141C17.1096 18.7186 17.1096 18.4025 16.9141 18.207L16.207 17.5L16.9141 16.793C17.1096 16.5975 17.1096 16.2814 16.9141 16.0859C16.7186 15.8904 16.4025 15.8904 16.207 16.0859L15.5 16.793L14.793 16.0859C14.6952 15.9882 14.5673 15.9395 14.4395 15.9395ZM8 17C7.73478 17 7.48043 17.1054 7.29289 17.2929C7.10536 17.4804 7 17.7348 7 18C7 18.2652 7.10536 18.5196 7.29289 18.7071C7.48043 18.8946 7.73478 19 8 19C8.26522 19 8.51957 18.8946 8.70711 18.7071C8.89464 18.5196 9 18.2652 9 18C9 17.7348 8.89464 17.4804 8.70711 17.2929C8.51957 17.1054 8.26522 17 8 17Z" fill="black"/>
</svg>
