<svg width="24" height="24" viewBox="0 0 24 24" fill="none" xmlns="http://www.w3.org/2000/svg">
<path d="M19.5526 2.99772C19.3006 3.00944 19.0633 3.08269 18.8524 3.16472H18.8494C18.6356 3.24968 17.619 3.67741 16.075 4.32487C14.5311 4.97526 12.5272 5.81901 10.5379 6.6569C6.56526 8.32976 2.65999 9.97624 2.65999 9.97624L2.70686 9.95866C2.70686 9.95866 2.43733 10.0466 2.15608 10.2399C2.01252 10.3337 1.85432 10.4626 1.71663 10.6647C1.57893 10.8669 1.4676 11.1774 1.50862 11.4967C1.576 12.0387 1.92756 12.3639 2.17952 12.5426C2.4344 12.7243 2.67756 12.8092 2.67756 12.8092H2.68342L6.34553 14.0426C6.5096 14.57 7.46174 17.6989 7.69026 18.4196C7.82502 18.8503 7.95686 19.1198 8.12092 19.3249C8.20002 19.4303 8.29377 19.5182 8.4051 19.5885C8.44905 19.6149 8.49592 19.6354 8.5428 19.653C8.55745 19.6618 8.57209 19.6647 8.58967 19.6676L8.55159 19.6589C8.56331 19.6618 8.5721 19.6706 8.58088 19.6735C8.61018 19.6823 8.63069 19.6852 8.66877 19.6911C9.24885 19.8669 9.71467 19.5065 9.71467 19.5065L9.74104 19.486L11.9031 17.5173L15.5272 20.2975L15.6092 20.3327C16.3651 20.6637 17.1297 20.4792 17.534 20.154C17.9412 19.8258 18.0994 19.4069 18.0994 19.4069L18.1258 19.3395L20.9266 4.99284C21.0057 4.63835 21.0262 4.3073 20.9383 3.98503C20.8504 3.66276 20.6248 3.36101 20.3524 3.19987C20.077 3.03581 19.8045 2.98601 19.5526 2.99772ZM19.4764 4.53581C19.4735 4.58269 19.4823 4.57683 19.4617 4.66765V4.67644L16.6873 18.8737C16.6756 18.8942 16.6551 18.9382 16.5994 18.9821C16.5408 19.029 16.494 19.0583 16.2508 18.9616L11.8182 15.5632L9.14045 18.0036L9.70295 14.4118C9.70295 14.4118 16.6463 7.94011 16.9451 7.66179C17.244 7.38347 17.1444 7.32487 17.1444 7.32487C17.1649 6.98503 16.6932 7.22526 16.6932 7.22526L7.56135 12.8825L7.55842 12.8678L3.18147 11.3942V11.3913C3.17854 11.3913 3.17268 11.3883 3.16975 11.3883C3.17268 11.3883 3.19319 11.3796 3.19319 11.3796L3.21663 11.3678L3.24006 11.3591C3.24006 11.3591 7.14827 9.71257 11.1209 8.03972C13.1102 7.20183 15.1141 6.35808 16.6551 5.70769C18.1961 5.06023 19.3358 4.58562 19.4002 4.55925C19.4617 4.53581 19.4324 4.53581 19.4764 4.53581Z" fill="black"/>
</svg>
