<svg width="24" height="24" viewBox="0 0 24 24" fill="none" xmlns="http://www.w3.org/2000/svg">
<path d="M2.91512 11.8078C9.19912 9.04334 17.3311 5.67284 18.4536 5.20634C21.3981 3.98534 22.3016 4.21934 21.8511 6.92334C21.5276 8.86684 20.5941 15.3013 19.8501 19.3063C19.4086 21.6813 18.4181 21.9628 16.8606 20.9353C16.1116 20.4408 12.3311 17.9408 11.5106 17.3538C10.7616 16.8188 9.72862 16.1753 11.0241 14.9078C11.4851 14.4563 14.5071 11.5708 16.8616 9.32484C17.1701 9.02984 16.7826 8.54534 16.4266 8.78184C13.2531 10.8863 8.85312 13.8073 8.29312 14.1878C7.44712 14.7623 6.63462 15.0258 5.17612 14.6068C4.07412 14.2903 2.99762 13.9128 2.57862 13.7688C0.965116 13.2148 1.34812 12.4973 2.91512 11.8078Z" fill="black"/>
</svg>
