<svg width="24" height="24" viewBox="0 0 24 24" fill="none" xmlns="http://www.w3.org/2000/svg">
<path d="M4.72582 3.0004C4.53542 3.00674 4.35456 3.0853 4.21996 3.22013L3.21996 4.22013C3.09914 4.34082 3.02313 4.49913 3.00448 4.66889C2.98584 4.83864 3.02568 5.00968 3.11742 5.15372L5.04418 8.17814C5.58597 9.04485 6.75951 9.20627 7.5559 8.61661L11.4631 12.5238C10.7949 13.6748 10.8974 15.1609 11.8743 16.1488H11.8733L15.8303 20.1596C15.831 20.1599 15.8316 20.1602 15.8323 20.1606C17.0023 21.3392 18.9281 21.3461 20.1067 20.1762C21.2844 19.007 21.293 17.0809 20.1243 15.9027L20.1223 15.9008L16.1731 11.8979C16.1728 11.8979 16.1724 11.8979 16.1721 11.8979C15.1871 10.9021 13.686 10.7906 12.5246 11.4643L8.61645 7.55607C9.20523 6.76017 9.04486 5.58773 8.17992 5.04532L5.15356 3.11759C5.02605 3.0363 4.87695 2.99546 4.72582 3.0004ZM15.7073 3.0004C12.8983 3.0004 10.604 5.21952 10.47 7.99552L12.0696 9.59415C12.1096 9.46365 12.1158 9.32342 12.0803 9.18692C11.9983 8.86842 11.9573 8.5534 11.9573 8.2504C11.9573 6.1824 13.6393 4.5004 15.7073 4.5004C15.8988 4.5004 16.0886 4.51535 16.2756 4.54435L14.6594 6.15958C14.2339 6.58458 14.0002 7.1494 14.0002 7.7504C14.0002 8.3514 14.2344 8.91622 14.6594 9.34122C15.0844 9.76622 15.6492 10.0004 16.2502 10.0004C16.8512 10.0004 17.4161 9.76622 17.8411 9.34122L19.425 7.75821C19.447 7.92071 19.4573 8.0849 19.4573 8.2504C19.4573 9.7399 18.5835 11.0361 17.3215 11.6391L18.4143 12.7455C19.9368 11.8255 20.9573 10.1544 20.9573 8.24942C20.9573 7.47792 20.7893 6.72984 20.4573 6.02384C20.3533 5.80284 20.1485 5.64494 19.9075 5.60294C19.668 5.56094 19.4208 5.63942 19.2483 5.81192L16.7805 8.2797C16.4975 8.5627 16.003 8.5632 15.72 8.2797C15.5785 8.1387 15.5002 7.9504 15.5002 7.7504C15.5002 7.5504 15.5785 7.36213 15.72 7.22013L18.2024 4.73673C18.3739 4.56523 18.4523 4.32193 18.4123 4.08243C18.3723 3.84343 18.2187 3.63815 18.0012 3.53165C17.2762 3.17915 16.5048 3.0004 15.7073 3.0004ZM4.85473 4.70646L7.37719 6.3129C7.37914 6.31389 7.38109 6.31486 7.38305 6.31583C7.53298 6.4095 7.55225 6.57925 7.42699 6.7045L6.70434 7.42716C6.57867 7.55297 6.41023 7.53449 6.31567 7.38321C6.3147 7.38126 6.31372 7.3793 6.31274 7.37735L4.70629 4.85489L4.85473 4.70646ZM8.60668 11.0815L3.87817 15.8471C3.30917 16.4201 2.99724 17.1812 3.00024 17.9887C3.00324 18.7962 3.32081 19.554 3.89281 20.1225C4.46331 20.689 5.2187 21.0004 6.0227 21.0004H6.03344C6.84094 20.9974 7.5992 20.6803 8.1682 20.1068L11.2766 16.9731L11.1018 16.7973C10.7953 16.4873 10.5549 16.1342 10.3694 15.7582L7.10375 19.0502C6.81725 19.3387 6.43506 19.4989 6.02856 19.5004C5.60256 19.4934 5.23893 19.345 4.95043 19.058C4.66143 18.7715 4.50174 18.3898 4.50024 17.9828C4.49874 17.5763 4.65612 17.1932 4.94262 16.9047L9.66723 12.142L8.60668 11.0815ZM14.0295 12.4955C14.4181 12.4973 14.8064 12.65 15.1057 12.9525L19.0559 16.9565C19.0565 16.9571 19.0572 16.9578 19.0579 16.9584C19.6561 17.5604 19.6526 18.5135 19.05 19.1117C18.4466 19.7108 17.4957 19.7073 16.8967 19.1039L12.9407 15.0951C12.9407 15.0948 12.9407 15.0945 12.9407 15.0942C12.3438 14.4905 12.3484 13.5404 12.9504 12.9428C13.2525 12.6429 13.641 12.4938 14.0295 12.4955Z" fill="black"/>
</svg>
