<svg xmlns="http://www.w3.org/2000/svg" width="13" height="12" viewBox="0 0 13 12" fill="none">
  <path d="M6.63281 9.675C6.42781 9.675 6.25781 9.505 6.25781 9.3V8.25C6.25781 8.045 6.42781 7.875 6.63281 7.875C6.83781 7.875 7.00781 8.045 7.00781 8.25V9.3C7.00781 9.505 6.83781 9.675 6.63281 9.675Z" fill="#FCD535"/>
  <path d="M9.50977 11.375H3.75977V10.5C3.75977 9.74 4.37477 9.125 5.13477 9.125H8.13477C8.89477 9.125 9.50977 9.74 9.50977 10.5V11.375ZM4.50977 10.625H8.75977V10.5C8.75977 10.155 8.47977 9.875 8.13477 9.875H5.13477C4.78977 9.875 4.50977 10.155 4.50977 10.5V10.625Z" fill="#FCD535"/>
  <path d="M9.63281 11.375H3.63281C3.42781 11.375 3.25781 11.205 3.25781 11C3.25781 10.795 3.42781 10.625 3.63281 10.625H9.63281C9.83781 10.625 10.0078 10.795 10.0078 11C10.0078 11.205 9.83781 11.375 9.63281 11.375Z" fill="#FCD535"/>
  <path d="M9.77394 6.2193C9.66894 6.2193 9.56394 6.1743 9.48894 6.0893C9.39394 5.9793 9.36894 5.8243 9.42894 5.6943C9.59894 5.3043 9.68394 4.8893 9.68394 4.4543V2.9543C9.68394 2.7793 9.65394 2.6093 9.59394 2.4293C9.58894 2.4143 9.58394 2.3943 9.57894 2.3743C9.56394 2.2993 9.55894 2.2243 9.55894 2.1543C9.55894 1.9493 9.72894 1.7793 9.93394 1.7793H10.2339C11.1289 1.7793 11.8589 2.5293 11.8589 3.4543C11.8589 4.2193 11.5439 4.9743 10.9989 5.5193C10.9889 5.5293 10.9589 5.5543 10.9539 5.5593C10.6589 5.8043 10.3239 6.0793 9.87394 6.2043C9.83894 6.2143 9.80894 6.2193 9.77394 6.2193ZM10.3989 2.5443C10.4239 2.6793 10.4339 2.8193 10.4339 2.9543V4.4543C10.4339 4.6593 10.4189 4.8543 10.3889 5.0543C10.4189 5.0293 10.4439 5.0093 10.4739 4.9843C10.8739 4.5843 11.1089 4.0243 11.1089 3.4543C11.1089 3.0043 10.8039 2.6243 10.3989 2.5443Z" fill="#FCD535"/>
  <path d="M3.34977 6.20078C3.30977 6.20078 3.27477 6.19578 3.23477 6.18078C2.82477 6.05078 2.43977 5.81078 2.11977 5.49078C1.54477 4.85578 1.25977 4.16078 1.25977 3.42578C1.25977 2.51578 1.97477 1.80078 2.88477 1.80078H3.20977C3.33477 1.80078 3.45477 1.86578 3.52477 1.97078C3.59477 2.07578 3.60477 2.21078 3.55477 2.32578C3.47477 2.50578 3.43477 2.71078 3.43477 2.92578V4.42578C3.43477 4.85578 3.51977 5.27578 3.69477 5.67578C3.75477 5.81078 3.72477 5.96578 3.62977 6.07578C3.55477 6.15578 3.45477 6.20078 3.34977 6.20078ZM2.70977 2.56578C2.30477 2.64578 2.00977 2.99578 2.00977 3.42578C2.00977 3.97078 2.22977 4.49578 2.66477 4.97578C2.68477 5.00078 2.70977 5.02078 2.73477 5.04078C2.69977 4.83578 2.68477 4.63078 2.68477 4.42578V2.92578C2.68477 2.80578 2.69477 2.68578 2.70977 2.56578Z" fill="#FCD535"/>
  <path d="M6.55859 8.375C4.42359 8.375 2.68359 6.635 2.68359 4.5V3C2.68359 1.69 3.74859 0.625 5.05859 0.625H8.05859C9.36859 0.625 10.4336 1.69 10.4336 3V4.5C10.4336 6.635 8.69359 8.375 6.55859 8.375ZM5.05859 1.375C4.16359 1.375 3.43359 2.105 3.43359 3V4.5C3.43359 6.225 4.83359 7.625 6.55859 7.625C8.28359 7.625 9.68359 6.225 9.68359 4.5V3C9.68359 2.105 8.95359 1.375 8.05859 1.375H5.05859Z" fill="#FCD535"/>
</svg>