<svg width="24" height="24" viewBox="0 0 24 24" fill="none" xmlns="http://www.w3.org/2000/svg">
<path d="M15 22.75H9C3.57 22.75 1.25 20.43 1.25 15V9C1.25 3.57 3.57 1.25 9 1.25H15C20.43 1.25 22.75 3.57 22.75 9V15C22.75 20.43 20.43 22.75 15 22.75ZM9 2.75C4.39 2.75 2.75 4.39 2.75 9V15C2.75 19.61 4.39 21.25 9 21.25H15C19.61 21.25 21.25 19.61 21.25 15V9C21.25 4.39 19.61 2.75 15 2.75H9Z" fill="black"/>
<path d="M14.1108 17.6117C13.9208 17.6117 13.7308 17.5417 13.5808 17.3917C13.2908 17.1017 13.2908 16.6217 13.5808 16.3317L16.6208 13.2917C16.9108 13.0017 17.3908 13.0017 17.6808 13.2917C17.9708 13.5817 17.9708 14.0617 17.6808 14.3517L14.6408 17.3917C14.5008 17.5317 14.3108 17.6117 14.1108 17.6117Z" fill="black"/>
<path d="M17.1477 14.5703H6.84766C6.43766 14.5703 6.09766 14.2303 6.09766 13.8203C6.09766 13.4103 6.43766 13.0703 6.84766 13.0703H17.1577C17.5677 13.0703 17.9077 13.4103 17.9077 13.8203C17.9077 14.2303 17.5677 14.5703 17.1477 14.5703Z" fill="black"/>
<path d="M6.84906 10.932C6.65906 10.932 6.46906 10.862 6.31906 10.712C6.02906 10.422 6.02906 9.94203 6.31906 9.65203L9.35906 6.61203C9.64906 6.32203 10.1291 6.32203 10.4191 6.61203C10.7091 6.90203 10.7091 7.38203 10.4191 7.67203L7.37906 10.712C7.22906 10.862 7.03906 10.932 6.84906 10.932Z" fill="black"/>
<path d="M17.1477 10.9297H6.84766C6.43766 10.9297 6.09766 10.5897 6.09766 10.1797C6.09766 9.76969 6.43766 9.42969 6.84766 9.42969H17.1577C17.5677 9.42969 17.9077 9.76969 17.9077 10.1797C17.9077 10.5897 17.5677 10.9297 17.1477 10.9297Z" fill="black"/>
</svg>
