<svg width="24" height="24" viewBox="0 0 24 24" fill="none" xmlns="http://www.w3.org/2000/svg">
<path d="M7.50043 15.2504C7.31043 15.2504 7.12043 15.1804 6.97043 15.0304C6.68043 14.7404 6.68043 14.2604 6.97043 13.9704L10.1704 10.7704C10.3304 10.6104 10.5404 10.5304 10.7704 10.5504C10.9904 10.5704 11.1904 10.6904 11.3204 10.8804L12.4104 12.5204L15.9604 8.97043C16.2504 8.68043 16.7304 8.68043 17.0204 8.97043C17.3104 9.26043 17.3104 9.74043 17.0204 10.0304L12.8204 14.2304C12.6604 14.3904 12.4504 14.4704 12.2204 14.4504C12.0004 14.4304 11.8004 14.3104 11.6704 14.1204L10.5804 12.4804L8.03043 15.0304C7.88043 15.1804 7.69043 15.2504 7.50043 15.2504Z" fill="black"/>
<path d="M16.5 12.25C16.09 12.25 15.75 11.91 15.75 11.5V10.25H14.5C14.09 10.25 13.75 9.91 13.75 9.5C13.75 9.09 14.09 8.75 14.5 8.75H16.5C16.91 8.75 17.25 9.09 17.25 9.5V11.5C17.25 11.91 16.91 12.25 16.5 12.25Z" fill="black"/>
<path d="M15 22.75H9C3.57 22.75 1.25 20.43 1.25 15V9C1.25 3.57 3.57 1.25 9 1.25H15C20.43 1.25 22.75 3.57 22.75 9V15C22.75 20.43 20.43 22.75 15 22.75ZM9 2.75C4.39 2.75 2.75 4.39 2.75 9V15C2.75 19.61 4.39 21.25 9 21.25H15C19.61 21.25 21.25 19.61 21.25 15V9C21.25 4.39 19.61 2.75 15 2.75H9Z" fill="black"/>
</svg>
