<svg width="24" height="24" viewBox="0 0 24 24" fill="none" xmlns="http://www.w3.org/2000/svg">
<path d="M12 2.00098C6.477 2.00098 2 6.47798 2 12.001C2 17.524 6.477 22.001 12 22.001C17.523 22.001 22 17.524 22 12.001C22 6.47798 17.523 2.00098 12 2.00098ZM12.5 17.001H11.5C11.224 17.001 11 16.777 11 16.501V15.501C11 15.225 11.224 15.001 11.5 15.001H12.5C12.776 15.001 13 15.225 13 15.501V16.501C13 16.777 12.776 17.001 12.5 17.001ZM12 13.001C11.448 13.001 11 12.553 11 12.001V8.00098C11 7.44898 11.448 7.00098 12 7.00098C12.552 7.00098 13 7.44898 13 8.00098V12.001C13 12.553 12.552 13.001 12 13.001Z" fill="black"/>
</svg>
