<svg width="24" height="24" viewBox="0 0 24 24" fill="none" xmlns="http://www.w3.org/2000/svg">
<path d="M20.5 9.83984H3.5C3.09 9.83984 2.75 9.49984 2.75 9.08984C2.75 8.67984 3.09 8.33984 3.5 8.33984H20.5C20.91 8.33984 21.25 8.67984 21.25 9.08984C21.25 9.49984 20.91 9.83984 20.5 9.83984Z" fill="black"/>
<path d="M16 22.75H8C4.35 22.75 2.25 20.65 2.25 17V8.5C2.25 4.85 4.35 2.75 8 2.75H16C19.65 2.75 21.75 4.85 21.75 8.5V17C21.75 20.65 19.65 22.75 16 22.75ZM8 4.25C5.14 4.25 3.75 5.64 3.75 8.5V17C3.75 19.86 5.14 21.25 8 21.25H16C18.86 21.25 20.25 19.86 20.25 17V8.5C20.25 5.64 18.86 4.25 16 4.25H8Z" fill="black"/>
<path d="M14.7475 17.4975C14.5575 17.4975 14.3675 17.4276 14.2175 17.2776C13.9275 16.9876 13.9275 16.5075 14.2175 16.2175L15.6875 14.7475L14.2175 13.2776C13.9275 12.9876 13.9275 12.5075 14.2175 12.2175C14.5075 11.9275 14.9875 11.9275 15.2775 12.2175L17.2775 14.2175C17.5675 14.5075 17.5675 14.9876 17.2775 15.2776L15.2775 17.2776C15.1275 17.4276 14.9375 17.4975 14.7475 17.4975Z" fill="black"/>
<path d="M11.43 15.5H7.75C7.34 15.5 7 15.16 7 14.75C7 14.34 7.34 14 7.75 14H11.43C11.84 14 12.18 14.34 12.18 14.75C12.18 15.16 11.85 15.5 11.43 15.5Z" fill="black"/>
</svg>
