<svg width="24" height="24" viewBox="0 0 24 24" fill="none" xmlns="http://www.w3.org/2000/svg">
<path d="M14.4417 7.24891C14.2517 7.24891 14.0617 7.17891 13.9117 7.02891L11.8817 4.99891L9.85172 7.02891C9.56172 7.31891 9.08172 7.31891 8.79172 7.02891C8.50172 6.73891 8.50172 6.25891 8.79172 5.96891L11.3517 3.40891C11.6417 3.11891 12.1217 3.11891 12.4117 3.40891L14.9717 5.96891C15.2617 6.25891 15.2617 6.73891 14.9717 7.02891C14.8217 7.17891 14.6317 7.24891 14.4417 7.24891Z" fill="black"/>
<path d="M11.8809 14.9298C11.4709 14.9298 11.1309 14.5898 11.1309 14.1798V4.00977C11.1309 3.59977 11.4709 3.25977 11.8809 3.25977C12.2909 3.25977 12.6309 3.59977 12.6309 4.00977V14.1798C12.6309 14.5998 12.2909 14.9298 11.8809 14.9298Z" fill="black"/>
<path d="M12 20.75C6.85 20.75 3.25 17.15 3.25 12C3.25 11.59 3.59 11.25 4 11.25C4.41 11.25 4.75 11.59 4.75 12C4.75 16.27 7.73 19.25 12 19.25C16.27 19.25 19.25 16.27 19.25 12C19.25 11.59 19.59 11.25 20 11.25C20.41 11.25 20.75 11.59 20.75 12C20.75 17.15 17.15 20.75 12 20.75Z" fill="black"/>
</svg>
